<?xml version="1.0" encoding="UTF-8"?>
<svg width="58px" height="60px" viewBox="0 0 58 60" version="1.1" xmlns="http://www.w3.org/2000/svg" xmlns:xlink="http://www.w3.org/1999/xlink">
    <!-- Generator: sketchtool 52 (66869) - http://www.bohemiancoding.com/sketch -->
    <title>D22DD9F2-0FA9-4C6D-B938-56CFC2F4DED8</title>
    <desc>Created with sketchtool.</desc>
    <g id="Page-1" stroke="none" stroke-width="1" fill="none" fill-rule="evenodd">
        <g id="1" transform="translate(-1312.000000, -2529.000000)" fill="#5395E3">
            <g id="Group-18" transform="translate(0.000000, -43.000000)">
                <g id="Group-17" transform="translate(0.000000, 2342.000000)">
                    <g id="003-customer-support" transform="translate(1312.000000, 230.000000)">
                        <path d="M0.119591542,5.55540757 L3.86428402,12.6338577 C3.99059615,12.8730508 4.2020149,13.0461018 4.44924774,13.1130758 L7.94285635,14.0565364 L19.9251791,27 L21.249146,25.5702495 L9.07928043,12.4246158 C8.95951495,12.2948276 8.8093268,12.2028943 8.64488995,12.1583835 L5.28799113,11.248618 L2.09976516,5.21845731 L4.83319047,2.26577523 L10.4178809,5.7130669 L11.2604752,9.33923354 C11.3012957,9.51727636 11.3867874,9.67992755 11.5065528,9.80929981 L23.6764183,22.9553496 L25,21.5251831 L13.0176772,8.58171948 L12.1442751,4.80995724 C12.0822743,4.542477 11.9220736,4.3136837 11.7006422,4.1768236 L5.1474304,0.132173192 C4.78197237,-0.0924601698 4.32216546,-0.0259021053 4.0240996,0.294824488 L0.27979229,4.33989086 C-0.0213543382,4.65978564 -0.0868209604,5.15730706 0.119591542,5.55540757 Z" id="Path"></path>
                        <polygon id="Path" points="41 20.388882 19.3892861 42 18 40.6107139 39.611118 19"></polygon>
                        <path d="M15.0818139,42.4850188 C14.9137343,42.1838875 14.6119551,42 14.2857279,42 L8.71427209,42 C8.38842694,42 8.08626568,42.1838875 7.91856808,42.4850188 L5.13264918,47.4849503 C4.95578361,47.801714 4.95578361,48.1978745 5.13264918,48.5150497 L7.91856808,53.5149811 C8.08626568,53.8157011 8.38842694,54 8.71427209,54 L14.2857279,54 C14.6119551,54 14.9137343,53.8157011 15.0818139,53.5149811 L17.8673508,48.5150497 C18.0442164,48.1978745 18.0442164,47.801714 17.8673508,47.4849503 L15.0818139,42.4850188 Z M13.7604793,51.9998628 L9.23990275,51.9998628 L7.01132036,48 L9.23990275,43.9997257 L13.7604793,43.9997257 L15.9890616,48 L13.7604793,51.9998628 Z" id="Shape" fill-rule="nonzero"></path>
                        <path d="M46.3801809,23.990989 C52.7619176,24.013193 57.9531653,18.6792986 57.9746299,12.07772 C57.9778098,11.0727834 57.8585622,10.0719587 57.6196694,9.09786094 C57.4908819,8.56208659 56.9665897,8.23601675 56.4486574,8.36924065 C56.2785309,8.41323749 56.1235089,8.5041094 55.9994913,8.63198802 L49.9846399,14.8499308 L45.212349,13.2047787 L43.6207902,8.26932272 L49.6356418,2.04603461 C50.0128618,1.65540861 50.0124643,1.02259466 49.6348468,0.632379819 C49.5104317,0.503678876 49.3538198,0.412395813 49.1825006,0.368810129 C42.9935476,-1.25249316 36.7064141,2.62292748 35.1391024,9.02466992 C34.9010046,9.99588943 34.7821545,10.994247 34.7853345,11.9963054 C34.7877194,12.7833139 34.8660253,13.5678552 35.0202522,14.3384164 L13.8589618,36.228272 C13.1140615,36.0691433 12.3556464,35.9881398 11.5952439,35.9852615 C5.19124759,35.9852615 0,41.3553403 0,47.9799451 C0,54.6041388 5.19124759,59.9742175 11.5952439,59.9742175 C17.9988428,59.9742175 23.1900904,54.6041388 23.1900904,47.9799451 C23.1877054,47.1929366 23.109002,46.4083952 22.9551726,45.6378342 L28.0212102,40.3972788 L30.2368316,42.6892251 C30.6144491,43.0794398 31.2257921,43.0794398 31.6034096,42.6892251 L32.0863626,42.1892239 C32.5100892,41.7537787 33.1949682,41.7537787 33.6186949,42.1892239 C34.0420241,42.6259025 34.042819,43.3347859 33.6206824,43.7726981 C33.6202849,43.7731093 33.6194899,43.7739316 33.6186949,43.774754 L33.1357419,44.2743441 C32.7585219,44.6645588 32.7585219,45.2973729 33.1357419,45.6875876 L44.6622198,57.6111362 C47.6938925,60.7760288 52.6315402,60.7990551 55.6910374,57.6629455 C58.7501371,54.5268359 58.7723967,49.4186821 55.7407239,46.2542008 C55.7244267,46.236931 55.707732,46.2196613 55.6910374,46.2023915 L44.1645595,34.2792541 C43.7873395,33.8890393 43.175599,33.8890393 42.798379,34.2792541 L42.3154261,34.7788441 C41.8913019,35.2147004 41.2068203,35.2147004 40.7826963,34.7788441 C40.3597646,34.3421654 40.3585721,33.6332821 40.7807087,33.1957811 C40.7815038,33.1949586 40.7822987,33.1945475 40.7826963,33.1937252 L41.2660467,32.6937239 C41.6432668,32.3035091 41.6432668,31.6706952 41.2660467,31.2804803 L39.0504253,28.988534 L44.116463,23.7479786 C44.8613634,23.9071073 45.6197784,23.9885219 46.3801809,23.990989 Z M50.1766286,57.9754463 C49.4746574,57.9742127 48.7786486,57.8430446 48.121594,57.5876986 L55.6679829,49.7809364 C56.8067979,52.9145788 55.2744656,56.409653 52.2451778,57.5876986 C51.5841483,57.8446894 50.8833696,57.9762687 50.1766286,57.9754463 Z M39.2300918,31.9971762 C38.1600429,33.3174919 38.3277846,35.2854243 39.6041319,36.3919236 C40.7258549,37.3643767 42.3607401,37.3635543 43.4812706,36.3890453 L54.3248568,47.6160462 C54.4425145,47.7381682 54.5526198,47.8668692 54.6591477,47.997626 L46.3976705,56.5436993 C46.2708705,56.433913 46.1464555,56.3200146 46.0284004,56.1978926 L35.1764667,44.9713029 C36.2465156,43.6509873 36.0787739,41.6830549 34.8024265,40.5765554 C33.6807037,39.6036913 32.0454209,39.6049249 30.9248905,40.5790226 L29.3790434,38.9799234 L37.6838472,30.4017776 L39.2300918,31.9971762 Z M43.1318749,21.9441091 L21.2121694,44.6143943 C20.9716867,44.86275 20.8750961,45.2233595 20.9569794,45.564232 C22.2826158,50.9495247 19.1368629,56.4269229 13.9305104,57.7978143 C8.72455553,59.169117 3.42956231,55.9149972 2.10392601,50.5292934 C0.778687077,45.1440008 3.92444013,39.6666026 9.13079247,38.2953 C10.7056565,37.8808253 12.3556464,37.8808253 13.9305104,38.2953 C14.2600314,38.3787705 14.6078371,38.2788526 14.8487173,38.0317302 L36.7632555,15.361034 C37.0033406,15.112678 37.0999313,14.7520686 37.0172529,14.4116073 C35.7007588,9.08922597 38.8043777,3.67062738 43.9495163,2.30837082 C44.9217822,2.05137999 45.9274373,1.95269554 46.9291175,2.01725159 L41.8320756,7.29193552 C41.5733082,7.55920585 41.4826799,7.95517723 41.5983501,8.31414188 L43.5305596,14.3116893 C43.6271501,14.6097986 43.8537207,14.8441741 44.1422999,14.9432698 L49.9401207,16.9424522 C50.2867339,17.0621072 50.6695189,16.9687681 50.9282862,16.7014977 L56.0253283,11.4288698 C56.0368556,11.6196598 56.0428179,11.8083938 56.0428179,11.9963054 C56.0698474,17.4885062 51.7880618,21.9634348 46.478759,21.9918066 C45.6579377,21.9959185 44.8398987,21.8914774 44.0449144,21.6809506 C43.7153934,21.5958352 43.3667928,21.6953421 43.1267075,21.9436979 L43.1318749,21.9436979 L43.1318749,21.9441091 Z" id="Shape" fill-rule="nonzero"></path>
                        <polygon id="Path" points="50 49.6369928 48.6369927 51 39 41.3630073 40.3626108 40"></polygon>
                    </g>
                </g>
            </g>
        </g>
    </g>
</svg>