<?xml version="1.0" encoding="UTF-8"?>
<svg width="58px" height="59px" viewBox="0 0 58 59" version="1.1" xmlns="http://www.w3.org/2000/svg" xmlns:xlink="http://www.w3.org/1999/xlink">
    <!-- Generator: sketchtool 52 (66869) - http://www.bohemiancoding.com/sketch -->
    <title>3EC3CCD3-D814-4A17-99CE-488BD4037612</title>
    <desc>Created with sketchtool.</desc>
    <g id="Page-1" stroke="none" stroke-width="1" fill="none" fill-rule="evenodd">
        <g id="1" transform="translate(-545.000000, -2529.000000)" fill="#5395E3" fill-rule="nonzero">
            <g id="Group-18" transform="translate(0.000000, -43.000000)">
                <g id="Group-17" transform="translate(0.000000, 2342.000000)">
                    <g id="1datda_driven" transform="translate(545.000000, 230.000000)">
                        <path d="M24.5,4 C13.1781429,4 4,13.1781429 4,24.5 C4,35.8218571 13.1781429,45 24.5,45 C35.8218571,45 45,35.8218571 45,24.5 C44.9876756,13.1832679 35.8167321,4.0123244 24.5,4 Z M24.5,5.95238095 C30.5299286,5.95713988 36.1804851,8.89596131 39.6465714,13.8302381 L37.2060952,16.2707143 C36.6122054,15.9113542 35.9322887,15.7190446 35.2380952,15.7142857 C33.0815685,15.7142857 31.3333333,17.4625208 31.3333333,19.6190476 C31.33675,20.3139732 31.5279613,20.9949881 31.8868333,21.5899762 L25.4947381,27.9820714 C24.2843839,27.2440714 22.7632351,27.2440714 21.552881,27.9820714 L17.1131667,23.5423571 C17.4720387,22.947369 17.66325,22.2663542 17.6666667,21.5714286 C17.6693512,19.4191726 15.9268512,17.6722798 13.7745952,17.6695952 C11.9946339,17.6673988 10.4394405,18.8714077 9.9957619,20.5952381 L6.37409524,20.5952381 C8.22238988,12.0600387 15.767,5.96519345 24.5,5.95238095 Z M37.1904762,19.6190476 C37.1904762,20.697372 36.3164196,21.5714286 35.2380952,21.5714286 C34.1597708,21.5714286 33.2857143,20.697372 33.2857143,19.6190476 C33.2857143,18.5407232 34.1597708,17.6666667 35.2380952,17.6666667 C36.3164196,17.6666667 37.1904762,18.5407232 37.1904762,19.6190476 Z M25.4761905,31.3333333 C25.4761905,32.4116577 24.6021339,33.2857143 23.5238095,33.2857143 C22.4454851,33.2857143 21.5714286,32.4116577 21.5714286,31.3333333 C21.5714286,30.2550089 22.4454851,29.3809524 23.5238095,29.3809524 C24.6021339,29.3809524 25.4761905,30.2550089 25.4761905,31.3333333 Z M15.7142857,21.5714286 C15.7142857,22.649753 14.8402292,23.5238095 13.7619048,23.5238095 C12.6835804,23.5238095 11.8095238,22.649753 11.8095238,21.5714286 C11.8095238,20.4931042 12.6835804,19.6190476 13.7619048,19.6190476 C14.8402292,19.6190476 15.7142857,20.4931042 15.7142857,21.5714286 Z M33.5119464,40.7176964 C30.7551845,42.2483631 27.6533393,43.0503036 24.5,43.047497 C14.2634226,43.0544524 5.95933631,34.7618363 5.95238095,24.5252589 C5.95189286,23.864622 5.98679167,23.2043512 6.05683333,22.547497 L9.9957619,22.547497 C10.4395625,24.2662024 11.9868244,25.4693571 13.7619048,25.4760685 C14.4568304,25.4726518 15.1378452,25.2814405 15.7328333,24.9225685 L20.1725476,29.3622827 C19.8136756,29.9572708 19.6224643,30.6382857 19.6190476,31.3332113 C19.6190476,33.4897381 21.3672827,35.2379732 23.5238095,35.2379732 C25.6803363,35.2379732 27.4285714,33.4897381 27.4285714,31.3332113 C27.4251548,30.6382857 27.2339435,29.9572708 26.8750714,29.3622827 L33.2671667,22.9701875 C33.8621548,23.3290595 34.5431696,23.5202708 35.2380952,23.5236875 C37.394622,23.5236875 39.1428571,21.7754524 39.1428571,19.6189256 C39.1394405,18.924 38.9482292,18.2429851 38.5893571,17.647997 L40.7174524,15.520878 C45.6856518,24.4686399 42.4595863,35.749619 33.5119464,40.7176964 Z" id="Shape"></path>
                        <path d="M48.3369911,9.8360421 C50.0940885,9.829282 51.6256754,8.61750198 52.0649799,6.88617697 L58,6.88617697 L58,4.91960022 L52.0649799,4.91960022 C51.6256754,3.18827521 50.0940885,1.9764952 48.3369911,1.96973509 C46.2023117,1.96973509 44.4717876,3.73068166 44.4717876,5.9028886 C44.4751696,6.60286701 44.6644438,7.28883356 45.0196802,7.88814783 L43.3218895,9.61578551 C35.1983187,-1.15380335 20.0331925,-3.18306473 9.44966127,5.08331774 C-1.13387001,13.3497002 -3.12807347,28.7815509 4.99549732,39.5511397 C12.663578,49.7167437 26.7197531,52.182708 37.2902393,45.2167245 L40.2065354,48.1842888 L41.5728849,49.5746585 L49.351607,57.49013 C51.3299873,59.50329 54.5373816,59.50329 56.5157618,57.49013 C58.4941421,55.4769699 58.4941421,52.21319 56.5157618,50.2000299 L48.7370397,42.2845585 L47.3706902,40.8941888 L44.4543941,37.9266244 C49.6312304,29.8125288 49.6312304,19.3583296 44.4543941,11.2441111 L46.3869959,9.27753431 C46.9755939,9.63913861 47.649468,9.83210895 48.3369911,9.8360421 Z M48.3369911,3.93631185 C49.4043912,3.93631185 50.2695929,4.81672368 50.2695929,5.9028886 C50.2695929,6.98905352 49.4043912,7.86946535 48.3369911,7.86946535 C47.269591,7.86946535 46.4043893,6.98905352 46.4043893,5.9028886 C46.4043893,4.81672368 47.2697118,3.93631185 48.3369911,3.93631185 Z M55.1494124,51.5903997 C56.3870022,52.8214768 56.4095895,54.8404136 55.1997808,56.0997602 C53.9899721,57.3591068 52.0059148,57.3820912 50.7683249,56.1510141 C50.7512939,56.1341753 50.7346252,56.1170907 50.7179565,56.0997602 L42.9392343,48.1842888 L47.3706902,43.6749283 L55.1494124,51.5903997 Z M46.0043408,42.2845585 L41.5728849,46.793919 L38.898164,44.0721768 C39.0344124,43.9659816 39.1619642,43.8489703 39.29628,43.7398253 C39.4305958,43.6306803 39.5861703,43.499903 39.7301491,43.3769919 C39.941769,43.1960668 40.15049,43.0131752 40.3553458,42.8253671 C40.4606726,42.7270383 40.5611679,42.6287095 40.664562,42.5303806 C41.0607454,42.1527979 41.4443669,41.7624324 41.8154264,41.3592842 C41.9120565,41.2540723 42.0086866,41.1518103 42.1053167,41.0446319 C42.2898801,40.8361747 42.4696121,40.6237845 42.6474115,40.4084443 C42.7685614,40.2629176 42.8874165,40.1157931 43.0039765,39.9669478 C43.1102696,39.831254 43.2252594,39.70146 43.3296199,39.5628163 L46.0043408,42.2845585 Z M42.2570259,37.717184 C41.9526411,38.1498309 41.6385933,38.5736282 41.3071521,38.9816929 C41.210522,39.1006708 41.1071279,39.2157155 41.0075989,39.3327268 C40.7119108,39.6827775 40.4065597,40.0223807 40.0915456,40.3514136 C39.9543309,40.4955882 39.8148212,40.6375505 39.6731373,40.7771774 C39.3509968,41.0977294 39.0173814,41.4084486 38.6720496,41.7093348 C38.5570598,41.8076637 38.4440026,41.9148421 38.3270802,42.0141542 C37.9260653,42.3514221 37.5095896,42.6709909 37.0844173,42.9807267 C27.0812704,50.2527588 13.1787372,47.8961853 6.03233817,37.717184 C-1.11406084,27.5381827 1.20180003,13.3912441 11.2049468,6.11921204 C21.2080936,-1.15282006 35.1106269,1.20363054 42.2570259,11.3827547 C47.7868035,19.2591404 47.7868035,29.8407983 42.2570259,37.717184 Z" id="Shape"></path>
                    </g>
                </g>
            </g>
        </g>
    </g>
</svg>