<?xml version="1.0" encoding="UTF-8"?>
<svg width="59px" height="60px" viewBox="0 0 59 60" version="1.1" xmlns="http://www.w3.org/2000/svg" xmlns:xlink="http://www.w3.org/1999/xlink">
    <!-- Generator: sketchtool 52 (66869) - http://www.bohemiancoding.com/sketch -->
    <title>D40A9969-6D4A-4743-8E56-9F679E2707AB</title>
    <desc>Created with sketchtool.</desc>
    <g id="Page-1" stroke="none" stroke-width="1" fill="none" fill-rule="evenodd">
        <g id="1" transform="translate(-931.000000, -2529.000000)" fill="#5395E3" fill-rule="nonzero">
            <g id="Group-18" transform="translate(0.000000, -43.000000)">
                <g id="Group-17" transform="translate(0.000000, 2342.000000)">
                    <g id="2clock" transform="translate(931.000000, 230.000000)">
                        <path d="M40,30 L32.858,30 C32.494,28.601 31.399,27.506 30,27.142 L30,17 C30,16.447 29.552,16 29,16 C28.448,16 28,16.447 28,17 L28,27.142 C26.28,27.589 25,29.141 25,31 C25,33.206 26.794,35 29,35 C30.858,35 32.411,33.72 32.858,32 L40,32 C40.552,32 41,31.553 41,31 C41,30.447 40.553,30 40,30 Z M29,33 C27.897,33 27,32.103 27,31 C27,29.897 27.897,29 29,29 C30.103,29 31,29.897 31,31 C31,32.103 30.103,33 29,33 Z" id="Shape"></path>
                        <path d="M50.9778984,10.0736856 L55.1449861,14.2998151 C55.3362489,14.4937879 55.5946572,14.6021237 55.8642563,14.6021237 C56.1338555,14.6021237 56.3932811,14.4937879 56.5835266,14.2998151 C59.8054911,11.0332316 59.8054911,5.71652122 56.5835266,2.44993766 C53.3625794,-0.816645888 48.1201471,-0.816645888 44.8991999,2.44993766 C44.7079371,2.64391041 44.6011148,2.9049482 44.6011148,3.17939899 C44.6011148,3.45384979 44.7079371,3.71591935 44.8991999,3.90886032 L49.5393579,8.61476291 L47.810871,10.36774 C42.9479123,5.94763768 36.5294171,3.25265466 29.5005087,3.25265466 C22.4716003,3.25265466 16.0531051,5.94763768 11.1901463,10.36774 L9.46064214,8.61476291 L14.1008001,3.90886032 C14.2920629,3.71488758 14.3988852,3.45384979 14.3988852,3.17939899 C14.3988852,2.9049482 14.2920629,2.64287864 14.1008001,2.44993766 C10.8798529,-0.816645888 5.63742057,-0.816645888 2.4164734,2.44993766 C-0.805491133,5.71652122 -0.805491133,11.0332316 2.4164734,14.2998151 C2.60773621,14.4937879 2.86614448,14.6021237 3.13574366,14.6021237 C3.40534284,14.6021237 3.66476847,14.4937879 3.85501392,14.2998151 L8.02210161,10.0736856 L9.72718925,11.8029319 C4.96698337,16.8142384 2.0308957,23.6197928 2.0308957,31.1104424 C2.0308957,41.322901 7.48086855,50.2642191 15.5830869,55.1145695 L12.5025348,58.2387688 C12.1047488,58.6421908 12.1047488,59.2942694 12.5025348,59.6976914 C12.7009191,59.8988865 12.961362,60 13.221805,60 C13.482248,60 13.742691,59.8988865 13.9410753,59.6976914 L17.4509514,56.1380852 C21.091049,57.9478096 25.1798003,58.9682301 29.4994913,58.9682301 C33.8191823,58.9682301 37.9079336,57.9478096 41.5480312,56.1380852 L45.0579074,59.6976914 C45.2562917,59.8988865 45.5167346,60 45.7771776,60 C46.0376206,60 46.2980636,59.8988865 46.4964479,59.6976914 C46.8942338,59.2942694 46.8942338,58.6421908 46.4964479,58.2387688 L43.4158957,55.1145695 C51.5181141,50.2642191 56.9680869,41.322901 56.9680869,31.1104424 C56.9680869,23.6197928 54.0319993,16.8142384 49.2717934,11.8029319 L50.9778984,10.0736856 Z M55.1439687,3.90886032 C57.3272134,6.12303856 57.5469622,9.5856584 55.8042324,12.0526203 L47.115,3.23924165 C49.545462,1.47181978 52.960724,1.69365032 55.1439687,3.90886032 Z M3.19475027,12.0515885 C1.45202049,9.5856584 1.67176925,6.12303856 3.85501392,3.90886032 C6.0382586,1.69468209 9.45352065,1.47285155 11.8839827,3.23924165 L3.19475027,12.0515885 Z M29.4994913,56.9046903 C15.4752472,56.9046903 4.06560649,45.3333907 4.06560649,31.1104424 C4.06560649,16.8874941 15.4752472,5.31619449 29.4994913,5.31619449 C43.5237354,5.31619449 54.9333762,16.8874941 54.9333762,31.1104424 C54.9333762,45.3333907 43.5247528,56.9046903 29.4994913,56.9046903 Z" id="Shape"></path>
                        <path d="M49.8131957,19.7068325 C47.7595,16.1829308 44.8168913,13.2414078 41.2939348,11.1877568 C41.277587,11.1765179 41.2673696,11.1591487 41.25,11.1489315 C41.2316087,11.1387144 41.2121957,11.1387144 41.1938043,11.1295189 C37.7474783,9.14330123 33.7555435,8 29.5,8 C25.2444565,8 21.2525217,9.14227952 17.8061957,11.1295189 C17.7878043,11.1387144 17.7673696,11.1376927 17.75,11.1489315 C17.7326304,11.1591487 17.7234348,11.1765179 17.7060652,11.1877568 C14.182087,13.2414078 11.2405,16.1829308 9.18680435,19.7068325 C9.17556522,19.7242016 9.15819565,19.7333971 9.14797826,19.7507663 C9.13776087,19.7681355 9.13776087,19.7885698 9.12958696,19.8069607 C7.14332609,23.2542336 6,27.2450599 6,31.5005109 C6,35.7559618 7.14332609,39.7478098 9.12958696,43.194061 C9.13878261,43.2124519 9.13776087,43.2318645 9.14797826,43.2502554 C9.16228261,43.2757984 9.18373913,43.2941893 9.20008696,43.3176887 C11.2537826,46.8303515 14.1902609,49.7637008 17.7060652,51.8132649 C17.722413,51.8245038 17.7326304,51.841873 17.75,51.8520902 C17.7765652,51.8674159 17.8051739,51.8735462 17.8317391,51.8858068 C21.2729565,53.8628291 25.2546739,55 29.5,55 C33.7453261,55 37.7270435,53.8628291 41.1682609,51.8858068 C41.1948261,51.8735462 41.2234348,51.8674159 41.25,51.8520902 C41.2673696,51.841873 41.2765652,51.8245038 41.2939348,51.8132649 C44.8097391,49.7637008 47.7462174,46.8313732 49.799913,43.3176887 C49.8162609,43.2941893 49.8377174,43.2757984 49.8520217,43.2502554 C49.8622391,43.2328862 49.8622391,43.2124519 49.870413,43.194061 C51.8566739,39.7467881 53,35.7559618 53,31.5005109 C53,27.2450599 51.8566739,23.2532119 49.870413,19.8069607 C49.8612174,19.7885698 49.8622391,19.7691572 49.8520217,19.7507663 C49.8407826,19.7333971 49.823413,19.7231799 49.8131957,19.7068325 Z M41.0885652,49.5297276 L40.6011957,48.6857894 C40.3181739,48.1974088 39.6938913,48.0288255 39.2055,48.311841 C38.7171087,48.5938349 38.5495435,49.2191257 38.8315435,49.7075064 L39.3209565,50.5545097 C36.6613696,51.9307624 33.6809565,52.7542662 30.5217391,52.9044586 L30.5217391,51.9348492 C30.5217391,51.3698398 30.064,50.9131323 29.5,50.9131323 C28.936,50.9131323 28.4782609,51.3698398 28.4782609,51.9348492 L28.4782609,52.9044586 C25.3190435,52.7552879 22.3386304,51.9307624 19.6790435,50.5545097 L20.1684565,49.7075064 C20.4504565,49.218104 20.2828913,48.5938349 19.7945,48.311841 C19.3030435,48.0298472 18.6808043,48.1984305 18.3988043,48.6857894 L17.9114348,49.5297276 C15.3315435,47.8663725 13.1348043,45.6686594 11.471413,43.0898459 L12.3153696,42.6024869 C12.8037609,42.320493 12.9713261,41.6952023 12.6893261,41.2068216 C12.4063043,40.7184409 11.7830435,40.5478142 11.2936304,40.8328732 L10.4466087,41.3222756 C9.07032609,38.6627465 8.24680435,35.6813765 8.0966087,32.5232495 L9.06623913,32.5232495 C9.63023913,32.5232495 10.0879783,32.066542 10.0879783,31.5015326 C10.0879783,30.9365231 9.63023913,30.4798157 9.06623913,30.4798157 L8.09456522,30.4798157 C8.24476087,27.3206669 9.06828261,24.339297 10.4445652,21.6807895 L11.291587,22.170192 C11.4530217,22.2631682 11.6287609,22.307102 11.8014348,22.307102 C12.1549565,22.307102 12.4982609,22.123193 12.6872826,21.7962436 C12.9692826,21.3068412 12.8017174,20.6825721 12.3133261,20.4005782 L11.4693696,19.9111758 C13.1327609,17.3323623 15.3305217,15.1346492 17.9093913,13.4712941 L18.3967609,14.3152323 C18.5868043,14.6421817 18.929087,14.8260907 19.2826087,14.8260907 C19.4552826,14.8260907 19.6310217,14.7821569 19.7924565,14.6891807 C20.2808478,14.4071868 20.448413,13.781896 20.166413,13.2935154 L19.677,12.446512 C22.336587,11.0702593 25.317,10.2467555 28.4762174,10.0965631 L28.4762174,11.0661725 C28.4762174,11.6311819 28.9339565,12.0878894 29.4979565,12.0878894 C30.0619565,12.0878894 30.5196957,11.6311819 30.5196957,11.0661725 L30.5196957,10.0965631 C33.678913,10.2457338 36.6593261,11.0702593 39.318913,12.446512 L38.8295,13.2935154 C38.5475,13.7829178 38.7150652,14.4071868 39.2034565,14.6891807 C39.3648913,14.7821569 39.5406304,14.8260907 39.7133043,14.8260907 C40.0668261,14.8260907 40.4101304,14.6421817 40.5991522,14.3152323 L41.0865217,13.4712941 C43.666413,15.1346492 45.8631522,17.3323623 47.5265435,19.9111758 L46.682587,20.3985348 C46.1941957,20.6805287 46.0266304,21.3058194 46.3086304,21.7942001 C46.4986739,22.1211495 46.8409565,22.3050586 47.1944783,22.3050586 C47.3671522,22.3050586 47.5428913,22.2611248 47.7043261,22.1681485 L48.5513478,21.6787461 C49.9276304,24.3382753 50.7511522,27.3196452 50.9013478,30.4777722 L49.9317174,30.4777722 C49.3677174,30.4777722 48.9099783,30.9344797 48.9099783,31.4994891 C48.9099783,32.0644986 49.3677174,32.5212061 49.9317174,32.5212061 L50.9013478,32.5212061 C50.7511522,35.6803548 49.9276304,38.6617247 48.5513478,41.3202322 L47.7043261,40.8308298 C47.2138913,40.5467925 46.5906304,40.7174192 46.3086304,41.2047782 C46.0266304,41.6941806 46.1941957,42.3184496 46.682587,42.6004435 L47.5265435,43.0878024 C45.8651957,45.6686594 43.6684565,47.8653508 41.0885652,49.5297276 Z" id="Shape"></path>
                    </g>
                </g>
            </g>
        </g>
    </g>
</svg>