<?xml version="1.0" encoding="UTF-8"?>
<svg width="415px" height="292px" viewBox="0 0 415 292" version="1.1" xmlns="http://www.w3.org/2000/svg" xmlns:xlink="http://www.w3.org/1999/xlink">
    <!-- Generator: sketchtool 52 (66869) - http://www.bohemiancoding.com/sketch -->
    <title>B7B722FE-EEE4-4EF7-BFF9-0D47DF263F42</title>
    <desc>Created with sketchtool.</desc>
    <defs>
        <filter x="-23.1%" y="-32.9%" width="146.3%" height="165.8%" filterUnits="objectBoundingBox" id="filter-1">
            <feOffset dx="9" dy="10" in="SourceAlpha" result="shadowOffsetOuter1"></feOffset>
            <feGaussianBlur stdDeviation="20" in="shadowOffsetOuter1" result="shadowBlurOuter1"></feGaussianBlur>
            <feColorMatrix values="0 0 0 0 0   0 0 0 0 0   0 0 0 0 0  0 0 0 0.23644135 0" type="matrix" in="shadowBlurOuter1" result="shadowMatrixOuter1"></feColorMatrix>
            <feMerge>
                <feMergeNode in="shadowMatrixOuter1"></feMergeNode>
                <feMergeNode in="SourceGraphic"></feMergeNode>
            </feMerge>
        </filter>
        <path d="M118.239514,55.4321447 C93.8859645,56.5974445 68.9261731,59.7388351 47.5135772,71.3545169 C26.0992785,82.9685024 8.78222052,104.668184 8.52848449,128.954593 C8.17086996,163.233406 46.1989181,188.90732 79.9628387,195.554787 C91.8237207,197.888779 104.052435,197.052545 116.112559,196.206134 C166.927881,192.642386 217.746609,189.078637 268.561931,185.514889 C276.378363,184.965316 284.475778,184.339412 291.341977,180.578903 C297.295407,177.318777 301.857547,171.897674 304.96709,165.882894 C316.906307,142.787228 332.697543,100.782155 313.820605,82.8582484 C294.943666,64.9343423 243.65493,64.388161 217.867517,60.5021319 C192.909428,56.7416228 167.663545,54.8537353 142.421068,54.8537353 C134.357712,54.8537353 126.294356,55.0454076 118.239514,55.4321447" id="path-2"></path>
        <path d="M118.239514,55.4321447 C93.8859645,56.5974445 68.9261731,59.7388351 47.5135772,71.3545169 C26.0992785,82.9685024 8.78222052,104.668184 8.52848449,128.954593 C8.17086996,163.233406 46.1989181,188.90732 79.9628387,195.554787 C91.8237207,197.888779 104.052435,197.052545 116.112559,196.206134 C166.927881,192.642386 217.746609,189.078637 268.561931,185.514889 C276.378363,184.965316 284.475778,184.339412 291.341977,180.578903 C297.295407,177.318777 301.857547,171.897674 304.96709,165.882894 C316.906307,142.787228 332.697543,100.782155 313.820605,82.8582484 C294.943666,64.9343423 243.65493,64.388161 217.867517,60.5021319 C192.909428,56.7416228 167.663545,54.8537353 142.421068,54.8537353 C134.357712,54.8537353 126.294356,55.0454076 118.239514,55.4321447" id="path-4"></path>
        <path d="M118.239514,55.4321447 C93.8859645,56.5974445 68.9261731,59.7388351 47.5135772,71.3545169 C26.0992785,82.9685024 8.78222052,104.668184 8.52848449,128.954593 C8.17086996,163.233406 46.1989181,188.90732 79.9628387,195.554787 C91.8237207,197.888779 104.052435,197.052545 116.112559,196.206134 C166.927881,192.642386 217.746609,189.078637 268.561931,185.514889 C276.378363,184.965316 284.475778,184.339412 291.341977,180.578903 C297.295407,177.318777 301.857547,171.897674 304.96709,165.882894 C316.906307,142.787228 332.697543,100.782155 313.820605,82.8582484 C294.943666,64.9343423 243.65493,64.388161 217.867517,60.5021319 C192.909428,56.7416228 167.663545,54.8537353 142.421068,54.8537353 C134.357712,54.8537353 126.294356,55.0454076 118.239514,55.4321447" id="path-6"></path>
        <path d="M47.5135772,71.3545169 C26.0992785,82.9685024 8.78222052,104.668184 8.52848449,128.954593 C8.17086996,163.233406 46.1989181,188.90732 79.9628387,195.554787 C91.8237207,197.888779 104.052435,197.052545 116.112559,196.206134 C166.927881,192.642386 217.746609,189.078637 268.561931,185.514889 C276.378363,184.965316 284.475778,184.339412 291.341977,180.578903 C297.295407,177.318777 301.857547,171.897674 304.96709,165.882894 C316.906307,142.787228 332.697543,100.782155 313.820605,82.8582484 C294.943666,64.9343423 243.65493,64.388161 217.867517,60.5021319 C192.909428,56.7416228 167.663545,54.8537353 142.421068,54.8537353 C134.357712,54.8537353 126.294356,55.0454076 118.239514,55.4321447 C93.8859645,56.5974445 68.9261731,59.7388351 47.5135772,71.3545169 Z" id="path-8"></path>
        <path d="M118.239514,55.4321447 C93.8859645,56.5974445 68.9261731,59.7388351 47.5135772,71.3545169 C26.0992785,82.9685024 8.78222052,104.668184 8.52848449,128.954593 C8.17086996,163.233406 46.1989181,188.90732 79.9628387,195.554787 C91.8237207,197.888779 104.052435,197.052545 116.112559,196.206134 C166.927881,192.642386 217.746609,189.078637 268.561931,185.514889 C276.378363,184.965316 284.475778,184.339412 291.341977,180.578903 C297.295407,177.318777 301.857547,171.897674 304.96709,165.882894 C316.906307,142.787228 332.697543,100.782155 313.820605,82.8582484 C294.943666,64.9343423 243.65493,64.388161 217.867517,60.5021319 C192.909428,56.7416228 167.663545,54.8537353 142.421068,54.8537353 C134.357712,54.8537353 126.294356,55.0454076 118.239514,55.4321447" id="path-10"></path>
        <path d="M47.5135772,71.3545169 C26.0992785,82.9685024 8.78222052,104.668184 8.52848449,128.954593 C8.17086996,163.233406 46.1989181,188.90732 79.9628387,195.554787 C91.8237207,197.888779 104.052435,197.052545 116.112559,196.206134 C166.927881,192.642386 217.746609,189.078637 268.561931,185.514889 C276.378363,184.965316 284.475778,184.339412 291.341977,180.578903 C297.295407,177.318777 301.857547,171.897674 304.96709,165.882894 C316.906307,142.787228 332.697543,100.782155 313.820605,82.8582484 C294.943666,64.9343423 243.65493,64.388161 217.867517,60.5021319 C192.909428,56.7416228 167.663545,54.8537353 142.421068,54.8537353 C134.357712,54.8537353 126.294356,55.0454076 118.239514,55.4321447 C93.8859645,56.5974445 68.9261731,59.7388351 47.5135772,71.3545169 Z" id="path-12"></path>
        <path d="M47.5135772,71.3545169 C26.0992785,82.9685024 8.78222052,104.668184 8.52848449,128.954593 C8.17086996,163.233406 46.1989181,188.90732 79.9628387,195.554787 C91.8237207,197.888779 104.052435,197.052545 116.112559,196.206134 C166.927881,192.642386 217.746609,189.078637 268.561931,185.514889 C276.378363,184.965316 284.475778,184.339412 291.341977,180.578903 C297.295407,177.318777 301.857547,171.897674 304.96709,165.882894 C316.906307,142.787228 332.697543,100.782155 313.820605,82.8582484 C294.943666,64.9343423 243.65493,64.388161 217.867517,60.5021319 C192.909428,56.7416228 167.663545,54.8537353 142.421068,54.8537353 C134.357712,54.8537353 126.294356,55.0454076 118.239514,55.4321447 C93.8859645,56.5974445 68.9261731,59.7388351 47.5135772,71.3545169 Z" id="path-14"></path>
        <path d="M1.02306951,34.042271 C2.49365883,47.6044889 7.73751544,61.7883438 18.2031528,70.5337239 C56.0563937,102.160782 93.697367,105.47618 141.834544,97.7838459 C153.977944,95.842504 166.880412,89.2286936 172.390877,78.2328515 C181.044599,60.9645898 162.748838,35.3398958 150.683552,41.6174108 C144.218733,44.9820638 146.75066,53.0412653 146.375371,60.1985835 C146.163103,64.2324305 145.027048,67.9809358 140.832642,70.4386101 C137.709762,72.2678535 134.128384,73.1442598 130.570781,73.7981676 C112.032186,77.2052821 92.8567876,75.3709433 74.2417759,73.5535891 C57.8988757,71.9587334 40.3350127,68.0250958 28.7706786,55.4428903 C14.9936681,40.4539645 11.0098314,20.3679546 11.7451261,0.0220800041 C0.678347074,7.99635842 -0.445821667,20.4800531 1.02306951,34.042271" id="path-16"></path>
        <path d="M1.02306951,34.042271 C2.49365883,47.6044889 7.73751544,61.7883438 18.2031528,70.5337239 C56.0563937,102.160782 93.697367,105.47618 141.834544,97.7838459 C153.977944,95.842504 166.880412,89.2286936 172.390877,78.2328515 C181.044599,60.9645898 162.748838,35.3398958 150.683552,41.6174108 C144.218733,44.9820638 146.75066,53.0412653 146.375371,60.1985835 C146.163103,64.2324305 145.027048,67.9809358 140.832642,70.4386101 C137.709762,72.2678535 134.128384,73.1442598 130.570781,73.7981676 C112.032186,77.2052821 92.8567876,75.3709433 74.2417759,73.5535891 C57.8988757,71.9587334 40.3350127,68.0250958 28.7706786,55.4428903 C14.9936681,40.4539645 11.0098314,20.3679546 11.7451261,0.0220800041 C0.678347074,7.99635842 -0.445821667,20.4800531 1.02306951,34.042271" id="path-18"></path>
        <path d="M18.2031528,70.5337239 C56.0563937,102.160782 93.697367,105.47618 141.834544,97.7838459 C153.977944,95.842504 166.880412,89.2286936 172.390877,78.2328515 C181.044599,60.9645898 162.748838,35.3398958 150.683552,41.6174108 C144.218733,44.9820638 146.75066,53.0412653 146.375371,60.1985835 C146.163103,64.2324305 145.027048,67.9809358 140.832642,70.4386101 C137.709762,72.2678535 134.128384,73.1442598 130.570781,73.7981676 C112.032186,77.2052821 92.8567876,75.3709433 74.2417759,73.5535891 C57.8988757,71.9587334 40.3350127,68.0250958 28.7706786,55.4428903 C14.9936681,40.4539645 11.0098314,20.3679546 11.7451261,0.0220800041 C0.678347074,7.99635842 -0.445821667,20.4800531 1.02306951,34.042271 C2.49365883,47.6044889 7.73751544,61.7883438 18.2031528,70.5337239 Z" id="path-20"></path>
        <path d="M35.1470965,3.64705638 C25.2537893,7.39831438 16.8318904,21.5270279 11.4905932,28.1293103 C3.47184319,38.0404209 -1.13970355,52.7687207 0.576655973,60.8827806 C3.47184319,73.6637061 30.9250902,98.7540874 57.5346164,98.7540874 C81.2047281,98.7540874 115.285266,80.3496914 118.032462,56.437984 C118.032462,41.0110209 108.948855,32.9567489 103.850808,23.4709858 C99.1525074,14.7317163 96.1416488,10.0067711 87.8609371,4.5712051 C83.1337189,1.46907189 73.4700535,0.350185742 63.5716431,0.350185742 C51.7833662,0.350185742 39.6616834,1.93712503 35.1470965,3.64705638" id="path-22"></path>
        <path d="M35.1470965,3.64705638 C25.2537893,7.39831438 16.8318904,21.5270279 11.4905932,28.1293103 C3.47184319,38.0404209 -1.13970355,52.7687207 0.576655973,60.8827806 C3.47184319,73.6637061 30.9250902,98.7540874 57.5346164,98.7540874 C81.2047281,98.7540874 115.285266,80.3496914 118.032462,56.437984 C118.032462,41.0110209 108.948855,32.9567489 103.850808,23.4709858 C99.1525074,14.7317163 96.1416488,10.0067711 87.8609371,4.5712051 C83.1337189,1.46907189 73.4700535,0.350185742 63.5716431,0.350185742 C51.7833662,0.350185742 39.6616834,1.93712503 35.1470965,3.64705638" id="path-24"></path>
    </defs>
    <g id="Page-1" stroke="none" stroke-width="1" fill="none" fill-rule="evenodd">
        <g id="thank-you" transform="translate(-950.000000, -153.000000)">
            <g id="cat" filter="url(#filter-1)" transform="translate(950.000000, 153.000000)">
                <g id="Group-12" transform="translate(29.000000, 27.000000)">
                    <path d="M333.481412,182.178236 C336.172131,187.818591 341.207863,193.585082 339.017822,199.440209 C336.746038,205.516928 328.650038,206.372612 322.170173,206.207271 C317.88716,206.096475 313.292502,205.881702 309.87631,203.292491 C306.545268,200.766349 305.077293,196.539066 303.78132,192.562352 C298.909074,177.606634 294.038532,162.652621 289.166286,147.698608 C284.777689,134.227553 280.338002,120.013315 283.144524,106.12635 C286.799134,88.0342609 303.571852,67.8421672 317.270679,88.0888065 C328.954872,105.357598 334.520234,126.990036 332.643542,147.751449 C331.594502,159.3475 328.466115,171.671393 333.481412,182.178236 Z" id="Fill-1" fill="#FFFFFF"></path>
                    <path d="M118.24345,55.4356034 C93.8890341,56.6066289 68.9266519,59.7634547 47.5132944,71.4345053 C26.099937,83.1072605 8.78056006,104.915267 8.52851799,129.319303 C8.17089074,163.766544 46.2002915,189.568311 79.9654131,196.246736 C91.825014,198.592196 104.055866,197.751853 116.114716,196.901283 C166.933549,193.320024 217.752381,189.738766 268.571214,186.157507 C276.387924,185.605233 284.483924,184.976254 291.35207,181.197268 C297.305712,177.922828 301.866311,172.475088 304.975965,166.429051 C316.917309,143.219904 306.980381,113.412447 288.102771,95.4004717 C269.223458,77.3884968 243.663327,64.4356249 217.874996,60.530502 C184.940933,55.54299 151.513002,53.8333268 118.24345,55.4356034 Z" id="Fill-3" fill="#FFFFFF"></path>
                    <path d="M304.792554,192.874625 C307.605888,194.889403 308.632789,198.838844 307.725097,202.179761 C306.817405,205.520678 304.25441,208.236026 301.246935,209.947393 C294.932259,213.542288 286.984419,212.996833 280.124788,210.60535 C273.265157,208.213867 267.127592,204.165561 260.67838,200.817826 C243.009891,191.64735 223.147955,187.795068 203.599368,184.050172 C204.137512,178.135386 209.09661,173.710375 213.847943,170.154685 C227.768158,159.734773 248.713194,140.248363 263.082998,155.439309 C274.617328,167.63536 282.480019,185.100175 299.511591,190.711552 C301.326975,191.309849 303.239429,191.761555 304.792554,192.874625 Z" id="Fill-5" fill="#FFFFFF"></path>
                    <mask id="mask-3" fill="white">
                        <use xlink:href="#path-2"></use>
                    </mask>
                    <g id="Clip-9"></g>
                    <path d="M100.629893,85.9764009 C101.510306,92.8477687 99.0768246,99.659769 98.2049263,106.532833 C97.147409,114.876516 98.4484447,123.505162 101.919009,131.172055 C104.425716,136.708502 108.342447,141.978642 113.991053,144.260052 C120.097747,146.728045 127.294314,145.215021 132.825419,141.64788 C138.356524,138.08074 142.45717,132.700345 145.919219,127.114708 C156.649358,109.799744 162.24858,89.3722237 161.843284,69.0278185 C161.611686,57.3934783 158.456163,44.3139628 148.318643,38.5315651 C140.62993,34.1451526 130.826183,35.2714395 122.691304,38.7707315 C110.120302,44.1765694 89.7311648,51.6009034 94.5385259,68.0050007 C96.3214897,74.0893246 99.8227063,79.6885311 100.629893,85.9764009 Z" id="Fill-8" fill="#494747" mask="url(#mask-3)"></path>
                    <mask id="mask-5" fill="white">
                        <use xlink:href="#path-4"></use>
                    </mask>
                    <g id="Clip-12"></g>
                    <path d="M126.391593,46.6218332 C123.30589,50.899688 120.817915,55.7966613 120.436459,61.051536 C120.056707,66.3047145 122.110436,71.9429339 126.517609,74.8536392 C131.055908,77.8508515 137.338003,77.4030507 141.992101,74.5873334 C146.646199,71.7733124 149.798315,66.9407953 151.565953,61.8114405 C153.149674,57.2113048 153.43236,51.4034639 149.769366,48.1891361 C146.750077,45.5379517 142.257758,45.68213 138.24396,45.9755752 C133.845301,46.2978561 129.446643,46.6184408 125.049687,46.9407217" id="Fill-11" fill="#F1B464" mask="url(#mask-5)"></path>
                    <mask id="mask-7" fill="white">
                        <use xlink:href="#path-6"></use>
                    </mask>
                    <g id="Clip-15"></g>
                    <path d="M135.486071,101.883507 C136.174053,105.415027 137.439327,108.965206 139.956253,111.543453 C142.474881,114.1217 146.461431,115.507508 149.823008,114.199726 C151.554884,113.524632 152.961501,112.232116 154.272754,110.919246 C160.192126,104.982492 165.212353,97.9160597 172.453196,93.6738255 C177.066423,90.9734509 182.376148,89.555415 186.8293,86.6006081 C197.564548,79.4731117 200.646844,63.1215971 193.242521,52.5999741 C175.273242,27.0736314 149.751485,54.459026 140.579524,71.9860178 C135.799409,81.1218329 133.515785,91.770672 135.486071,101.883507 Z" id="Fill-14" fill="#F1B464" mask="url(#mask-7)"></path>
                    <mask id="mask-9" fill="white">
                        <use xlink:href="#path-8"></use>
                    </mask>
                    <g id="Clip-18"></g>
                    <path d="M48.6645852,100.0538 C53.4702433,103.892335 55.2446926,110.422763 59.5037113,114.85667 C62.9487313,118.444165 67.996205,120.445699 72.9738587,120.194659 C74.1352545,120.136988 75.4056375,119.901214 76.1361929,118.998827 C76.9229449,118.030289 76.8173635,116.642785 76.6709118,115.406244 C75.0497259,101.660116 73.42854,87.9156837 71.8090571,74.1695556 C71.1210748,68.3447526 69.5731148,61.3902702 64.0147632,59.4548887 C60.8541319,58.354045 57.3733505,59.3412422 54.2365602,60.5082383 C44.2369767,64.226342 26.773467,75.1838923 32.531061,88.9944766 C35.0871534,95.1262946 43.465551,95.8980725 48.6645852,100.0538 Z" id="Fill-17" fill="#494747" mask="url(#mask-9)"></path>
                    <mask id="mask-11" fill="white">
                        <use xlink:href="#path-10"></use>
                    </mask>
                    <g id="Clip-21"></g>
                    <path d="M71.7935605,88.896605 C74.2440715,92.4315175 76.0610939,96.7992716 79.9403601,98.6752857 C84.4360856,100.849834 89.8854499,98.7024251 93.8089922,95.6204021 C96.9934645,93.1167884 99.6874939,89.9957524 101.691838,86.4811945 C106.490685,78.0713595 106.882358,66.8084905 101.044726,59.0771415 C87.6137462,41.2889326 53.1158643,58.1544005 64.9733405,79.8048914 C66.7954716,83.1311695 69.6342499,85.7789614 71.7935605,88.896605 Z" id="Fill-20" fill="#F1B464" mask="url(#mask-11)"></path>
                    <mask id="mask-13" fill="white">
                        <use xlink:href="#path-12"></use>
                    </mask>
                    <g id="Clip-24"></g>
                    <path d="M142.599875,155.658788 C154.697464,149.38788 173.044793,174.978679 164.368383,192.224099 C158.842387,203.207092 145.903553,209.812155 133.725926,211.749232 C85.4513703,219.431391 47.704305,216.120379 9.74777976,184.535155 C-0.749058219,175.801343 -6.00769476,161.63625 -7.48242898,148.091972 C-8.95546026,134.549389 -4.07827922,119.833026 7.01969175,111.870992 C6.28402757,132.189954 6.52924897,154.49688 20.3433875,169.465979 C31.9403158,182.029846 49.553683,185.95828 65.9426461,187.551026 C84.6101247,189.367673 103.839569,191.199585 122.430416,187.796977 C125.998047,187.143934 129.589518,186.268687 132.7212,184.441864 C136.927428,181.98744 138.066686,178.243893 138.279551,174.213686 C138.655898,167.065835 136.116835,159.017294 142.599875,155.658788 Z" id="Fill-23" fill="#B3B3B3" mask="url(#mask-13)"></path>
                    <mask id="mask-15" fill="white">
                        <use xlink:href="#path-14"></use>
                    </mask>
                    <g id="Clip-27"></g>
                    <path d="M323.488117,70.0592869 C320.736188,93.8046037 286.618059,112.079626 262.923542,112.079626 C236.284665,112.079626 208.801137,87.1656173 205.902756,74.4728389 C204.184504,66.4158166 208.801137,51.7927453 216.828732,41.9496084 C222.17592,35.3954328 230.607109,21.3660368 240.511328,17.6411482 C248.825015,14.5150236 282.912491,11.8078641 293.283313,18.5588006 C301.573158,23.9561574 304.587338,28.6461925 309.29082,37.3257257 C314.396194,46.7431126 323.488117,54.7424636 323.488117,70.0592869" id="Fill-26" fill="#DADADA" mask="url(#mask-15)"></path>
                    <path d="M146.826423,173.000365 C147.202412,165.822974 144.665761,157.741169 151.142642,154.368783 C163.228736,148.071959 181.558632,173.76852 172.890467,191.085212 C167.369721,202.113597 154.44318,208.745956 142.277124,210.691039 C94.0484357,218.404947 56.3372352,215.080251 18.4167737,183.364492 C7.92990914,174.594584 2.67626901,160.370949 1.20293599,146.770695 C-0.268695721,133.172144 4.60385135,118.39496 15.6912778,110.400021 C14.9563126,130.802957 15.201301,153.202074 29.0023142,168.233038 C40.5882239,180.848828 58.184856,184.793498 74.5582474,186.392826 C93.2079894,188.216981 112.419163,190.056464 130.992346,186.639794 C134.556587,185.984052 138.144646,185.105188 141.273352,183.270814 C145.475584,180.806247 146.613759,177.047229 146.826423,173.000365" id="Fill-30" fill="#FFFFFF"></path>
                    <g id="Group-41" transform="translate(0.000000, 114.174380)">
                        <g id="Group-34">
                            <mask id="mask-17" fill="white">
                                <use xlink:href="#path-16"></use>
                            </mask>
                            <g id="Clip-33"></g>
                            <path d="M28.4979573,4.24326725 C44.0749964,10.4987023 58.8657966,19.4088332 69.9716328,31.9978324 C75.3292648,38.071532 79.7868826,44.9435087 85.6047105,50.5790051 C96.4218629,61.0585148 111.163417,66.5071804 125.864216,69.7784179 C133.643396,71.5091506 142.499196,73.3434894 146.615488,80.1696076 C150.845555,87.1808581 147.795695,96.7414999 141.874281,102.397378 C135.952866,108.053256 127.874814,110.733429 120.082049,113.247152 C110.431519,116.360433 100.677402,119.495793 90.5717703,120.348421 C63.2147334,122.658329 37.3503616,108.121194 15.2269925,91.8601205 C1.2750735,81.6065063 -12.4017468,69.9924241 -20.1367749,54.5007536 C-39.6619897,15.3936693 -9.02924058,-10.8254863 28.4979573,4.24326725" id="Fill-32" fill="#494747" mask="url(#mask-17)"></path>
                        </g>
                        <g id="Group-37">
                            <mask id="mask-19" fill="white">
                                <use xlink:href="#path-18"></use>
                            </mask>
                            <g id="Clip-36"></g>
                            <path d="M-0.416783472,55.3883697 C-0.92452736,51.5855136 0.230207904,46.7788666 3.95253099,45.8549033 C6.90899289,45.1211678 9.81451059,47.3478513 11.5262358,49.8666702 C13.237961,52.3854892 14.3332614,55.3645913 16.522164,57.4808747 C22.922454,63.6700697 36.4209696,60.7453184 39.5404529,69.0830677 C41.2334986,73.60777 37.9628808,78.8577156 33.5086593,80.7260237 C29.0527397,82.5943317 23.9192622,81.8130393 19.3410765,80.2708359 C12.6656878,78.0186755 6.39785272,74.0799424 2.31552394,68.3374429 C-1.76680485,62.5932449 -3.41400074,54.9229912 -1.06547299,48.2803069" id="Fill-35" fill="#F1B464" mask="url(#mask-19)"></path>
                        </g>
                        <g id="Group-40">
                            <mask id="mask-21" fill="white">
                                <use xlink:href="#path-20"></use>
                            </mask>
                            <g id="Clip-39"></g>
                            <path d="M62.9374271,94.5601653 C64.8902882,91.7067494 66.9654154,88.7446319 70.0305583,87.1429824 C77.0370843,83.4827971 86.7215773,90.3989338 85.9115644,98.2628122 C85.1015516,106.128389 74.8244078,111.047135 67.9826013,107.086322 C61.1407949,103.125508 60.0115317,92.2757341 65.5967145,86.6810008" id="Fill-38" fill="#F1B464" mask="url(#mask-21)"></path>
                        </g>
                    </g>
                    <path d="M322.827382,64.9624312 C320.088304,89.0391627 286.129505,107.569251 262.545639,107.569251 C236.031164,107.569251 208.675982,82.3075156 205.791137,69.4375834 C204.080909,61.2681088 208.675982,46.4409425 216.666089,36.4604244 C221.988307,29.8147719 230.380122,15.5895668 240.238089,11.8126897 C248.512951,8.64293358 282.441242,5.89799013 292.763632,12.7431499 C301.014764,18.2158379 304.014868,22.971332 308.696385,31.772006 C313.777917,41.3208318 322.827382,49.4318301 322.827382,64.9624312" id="Fill-42" fill="#FFFFFF"></path>
                    <g id="Group-9" transform="translate(205.435607, 0.000000)">
                        <g id="had2" transform="translate(0.000000, 8.492309)">
                            <g id="Group-46">
                                <mask id="mask-23" fill="white">
                                    <use xlink:href="#path-22"></use>
                                </mask>
                                <g id="Clip-45"></g>
                                <path d="M60.793148,23.8278336 C60.352576,28.5732775 62.3870319,33.1581484 64.3755594,37.4867858 C67.6160598,44.5434555 70.8565602,51.6001253 74.0970605,58.6585033 C76.2063626,63.250207 78.529997,68.0981443 82.7928285,70.7903039 C86.6201911,73.2091479 91.371224,73.4756307 95.889213,73.6737846 C103.746363,74.0154292 112.598628,73.9932223 118.167866,68.417582 C120.557841,66.0277778 122.024146,62.8675651 123.151942,59.674896 C128.733088,43.8840814 126.895954,26.1800569 121.115785,10.4609876 C119.09834,4.97417493 116.502538,-0.502388423 112.154654,-4.39542894 C95.5234872,-19.2962593 62.5333222,5.08179299 60.793148,23.8278336" id="Fill-44" fill="#F1B464" mask="url(#mask-23)"></path>
                            </g>
                            <g id="Group-49">
                                <mask id="mask-25" fill="white">
                                    <use xlink:href="#path-24"></use>
                                </mask>
                                <g id="Clip-48"></g>
                                <path d="M15.4446841,18.3734446 C13.4238366,24.4786341 2.42824897,31.046752 7.59944118,34.8458403 C12.0493882,38.1153794 30.4955751,38.7593795 35.3367636,36.1082172 C40.1779521,33.4553467 43.7314457,28.949054 46.7099843,24.2890213 C49.4877991,19.9398852 51.8896818,15.3498897 53.8782093,10.5856554 C54.8597152,8.23514035 55.7527665,5.77359082 55.7238486,3.22663013 C55.6660129,-2.03982178 51.387872,-6.69985448 46.3153407,-8.04422608 C33.2461731,-11.5102108 19.0270955,7.54672643 15.4446841,18.3734446" id="Fill-47" fill="#494747" mask="url(#mask-25)"></path>
                            </g>
                        </g>
                        <g id="had1" transform="translate(2.840124, 0.000000)">
                            <path d="M3.85658687,7.59087689 C4.17759418,5.76890448 4.60730239,3.8777646 5.80471062,2.46067495 C8.76680987,-1.04662193 14.4141608,0.151156229 18.6687815,1.91239622 C25.6731951,4.81068196 32.3803797,8.42088654 38.6510623,12.6670945 C39.4985895,13.2406784 40.3783873,13.8733077 40.7792219,14.8112861 C41.6726073,16.8981193 39.812803,19.065929 38.1160501,20.5842394 C32.6962917,25.4394584 17.2607653,44.8907009 8.30822799,41.1084211 C-0.413319955,37.423988 2.58954212,14.7826069 3.85658687,7.59087689" id="Fill-51" fill="#494747"></path>
                            <path d="M109.107582,7.59087689 C108.786575,5.76890448 108.356867,3.8777646 107.159458,2.46067495 C104.197359,-1.04662193 98.5500081,0.151156229 94.2953874,1.91239622 C87.2909738,4.81068196 80.5837892,8.42088654 74.3131066,12.6670945 C73.4655794,13.2406784 72.5857816,13.8733077 72.184947,14.8112861 C71.2915616,16.8981193 73.1513659,19.065929 74.8481188,20.5842394 C80.2678772,25.4394584 95.7034036,44.8907009 104.655941,41.1084211 C113.377489,37.423988 110.374627,14.7826069 109.107582,7.59087689" id="Fill-53" fill="#F1B464"></path>
                            <path d="M37.2017737,52.6492667 C36.0757004,50.4477167 34.8884829,52.4518863 34.2889295,53.7677553 C33.1390779,56.2830894 32.8146737,60.0096978 34.2617543,62.4828567 C35.8311234,65.1652049 36.8366066,62.6684279 37.2663148,60.8447685 C37.8522806,58.3648616 38.395785,54.9840906 37.2017737,52.6492667" id="Fill-55" fill="#494747"></path>
                            <path d="M79.6630587,52.6492667 C78.5369854,50.4477167 77.3497679,52.4518863 76.7502145,53.7677553 C75.600363,56.2830894 75.2759587,60.0096978 76.7230393,62.4828567 C78.2924084,65.1652049 79.2978917,62.6684279 79.7275999,60.8447685 C80.3135656,58.3648616 80.85707,54.9840906 79.6630587,52.6492667" id="Fill-57" fill="#494747"></path>
                            <path d="M61.769024,72.9909138 C59.9771577,73.1106916 50.5915153,71.9601498 52.1354076,76.2181668 C53.0491745,78.7385619 55.8974775,80.4947409 58.5946183,80.06624 C61.3223313,79.634365 63.3146147,77.1966334 63.4318079,74.5109112 C63.4742692,73.5307575 62.7065691,72.9284944 61.769024,72.9909138" id="Fill-59" fill="#494747"></path>
                            <path d="M134.808549,60.9839469 C112.567328,62.2475185 88.2183283,67.4654451 67.6466849,76.0742647 C67.5176026,76.1282491 67.5957313,76.3036983 67.7248137,76.271645 C79.3320305,73.2923828 90.7065596,69.6956743 102.451351,67.1904622 C113.197453,64.8978136 124.062447,63.5043421 134.888376,61.6908048 C135.343561,61.6148892 135.270527,60.9569548 134.808549,60.9839469" id="Fill-61" fill="#494747"></path>
                            <path d="M132.220958,77.7494671 C110.883313,75.3522238 88.096889,76.1063179 66.8611511,78.9523063 C66.65394,78.9809855 66.6930044,79.2728385 66.8968186,79.2677774 C88.691347,78.7043156 110.419636,78.7802311 132.209069,78.4816301 C132.631983,78.474882 132.63538,77.7967034 132.220958,77.7494671" id="Fill-63" fill="#494747"></path>
                            <path d="M112.555269,88.4027759 C97.2726028,85.2042022 80.7925289,81.9145298 65.1905543,81.0878941 C64.9833432,81.0777721 64.9476758,81.3476939 65.1446961,81.4016783 C80.2354368,85.4319487 96.9261187,87.4006911 112.45506,89.0809546 C112.900054,89.1281909 112.988374,88.4938746 112.555269,88.4027759" id="Fill-65" fill="#494747"></path>
                            <path d="M49.0564549,78.0462124 C37.2929805,74.5878389 24.3643685,74.0496822 12.2679976,75.9560052 C11.7109055,76.0437298 11.8026219,76.8568693 12.3665078,76.8197551 C24.8025689,76.0217986 36.6373783,76.7455266 48.9562463,78.3987978 C49.158362,78.42579 49.2653644,78.1069448 49.0564549,78.0462124" id="Fill-67" fill="#494747"></path>
                            <path d="M49.0309782,75.429995 C34.7520972,69.4950886 16.6771774,69.1340681 1.53888008,71.5363725 C0.998772539,71.6224101 1.08709201,72.4136185 1.63399336,72.3748172 C10.0888844,71.7742411 18.5030127,71.3811674 26.9680945,72.1048954 C34.4192008,72.7425857 41.5968564,74.6269775 48.9749293,75.6307494 C49.0921224,75.6476195 49.1430759,75.4772313 49.0309782,75.429995" id="Fill-69" fill="#494747"></path>
                            <path d="M48.1358943,81.4917647 C32.3216133,80.2012009 15.625836,82.7823285 0.562270529,87.6105553 C0.178420513,87.7337072 0.414505257,88.2651158 0.783069211,88.1757042 C16.7009557,84.2837687 31.8103794,82.7975116 48.1257036,82.0670356 C48.4552031,82.0518525 48.4670923,81.5187569 48.1358943,81.4917647" id="Fill-71" fill="#494747"></path>
                        </g>
                    </g>
                </g>
            </g>
        </g>
    </g>
</svg>