<?xml version="1.0" encoding="UTF-8"?>
<svg width="517px" height="496px" viewBox="0 0 517 496" version="1.1" xmlns="http://www.w3.org/2000/svg" xmlns:xlink="http://www.w3.org/1999/xlink">
    <!-- Generator: sketchtool 52 (66869) - http://www.bohemiancoding.com/sketch -->
    <title>5DAB990E-F072-4627-84E9-967D21A7D2BF</title>
    <desc>Created with sketchtool.</desc>
    <defs>
        <path d="M217.905538,397 C329.871148,397 494.382589,360.461375 420.637209,194.669329 C346.891828,28.8772829 381.094693,0 269.129083,0 C157.163473,0 79.7056931,28.8772829 15.1738677,194.669329 C-49.3579577,360.461375 105.939928,397 217.905538,397 Z" id="path-1"></path>
        <filter x="-31.2%" y="-49.5%" width="162.3%" height="199.0%" filterUnits="objectBoundingBox" id="filter-3">
            <feOffset dx="9" dy="10" in="SourceAlpha" result="shadowOffsetOuter1"></feOffset>
            <feGaussianBlur stdDeviation="20" in="shadowOffsetOuter1" result="shadowBlurOuter1"></feGaussianBlur>
            <feColorMatrix values="0 0 0 0 0   0 0 0 0 0   0 0 0 0 0  0 0 0 0.23644135 0" type="matrix" in="shadowBlurOuter1" result="shadowMatrixOuter1"></feColorMatrix>
            <feMerge>
                <feMergeNode in="shadowMatrixOuter1"></feMergeNode>
                <feMergeNode in="SourceGraphic"></feMergeNode>
            </feMerge>
        </filter>
        <path d="M105.558755,49.5568482 C83.817035,50.598637 61.5340907,53.4070692 42.4179182,63.7915957 C23.3002254,74.1746059 7.84035919,93.5743209 7.61383543,115.286595 C7.29457376,145.93217 41.2442515,168.884885 71.387114,174.827782 C81.9759593,176.914393 92.8931881,176.166792 103.659908,175.410092 C149.025471,172.224068 194.394074,169.038045 239.759637,165.852021 C246.737785,165.360697 253.966781,164.801133 260.096605,161.439204 C265.411552,158.524621 269.484419,153.678105 272.260475,148.300837 C282.919254,127.653098 297.016937,90.1001751 280.164482,74.0760378 C263.312026,58.0519005 217.523822,57.5636094 194.502015,54.0894636 C172.220591,50.7275337 149.682238,49.0397449 127.146925,49.0397449 C119.948334,49.0397449 112.749744,49.2111017 105.558755,49.5568482" id="path-4"></path>
        <path d="M105.558755,49.5568482 C83.817035,50.598637 61.5340907,53.4070692 42.4179182,63.7915957 C23.3002254,74.1746059 7.84035919,93.5743209 7.61383543,115.286595 C7.29457376,145.93217 41.2442515,168.884885 71.387114,174.827782 C81.9759593,176.914393 92.8931881,176.166792 103.659908,175.410092 C149.025471,172.224068 194.394074,169.038045 239.759637,165.852021 C246.737785,165.360697 253.966781,164.801133 260.096605,161.439204 C265.411552,158.524621 269.484419,153.678105 272.260475,148.300837 C282.919254,127.653098 297.016937,90.1001751 280.164482,74.0760378 C263.312026,58.0519005 217.523822,57.5636094 194.502015,54.0894636 C172.220591,50.7275337 149.682238,49.0397449 127.146925,49.0397449 C119.948334,49.0397449 112.749744,49.2111017 105.558755,49.5568482" id="path-6"></path>
        <path d="M105.558755,49.5568482 C83.817035,50.598637 61.5340907,53.4070692 42.4179182,63.7915957 C23.3002254,74.1746059 7.84035919,93.5743209 7.61383543,115.286595 C7.29457376,145.93217 41.2442515,168.884885 71.387114,174.827782 C81.9759593,176.914393 92.8931881,176.166792 103.659908,175.410092 C149.025471,172.224068 194.394074,169.038045 239.759637,165.852021 C246.737785,165.360697 253.966781,164.801133 260.096605,161.439204 C265.411552,158.524621 269.484419,153.678105 272.260475,148.300837 C282.919254,127.653098 297.016937,90.1001751 280.164482,74.0760378 C263.312026,58.0519005 217.523822,57.5636094 194.502015,54.0894636 C172.220591,50.7275337 149.682238,49.0397449 127.146925,49.0397449 C119.948334,49.0397449 112.749744,49.2111017 105.558755,49.5568482" id="path-8"></path>
        <path d="M42.4179182,63.7915957 C23.3002254,74.1746059 7.84035919,93.5743209 7.61383543,115.286595 C7.29457376,145.93217 41.2442515,168.884885 71.387114,174.827782 C81.9759593,176.914393 92.8931881,176.166792 103.659908,175.410092 C149.025471,172.224068 194.394074,169.038045 239.759637,165.852021 C246.737785,165.360697 253.966781,164.801133 260.096605,161.439204 C265.411552,158.524621 269.484419,153.678105 272.260475,148.300837 C282.919254,127.653098 297.016937,90.1001751 280.164482,74.0760378 C263.312026,58.0519005 217.523822,57.5636094 194.502015,54.0894636 C172.220591,50.7275337 149.682238,49.0397449 127.146925,49.0397449 C119.948334,49.0397449 112.749744,49.2111017 105.558755,49.5568482 C83.817035,50.598637 61.5340907,53.4070692 42.4179182,63.7915957 Z" id="path-10"></path>
        <path d="M105.558755,49.5568482 C83.817035,50.598637 61.5340907,53.4070692 42.4179182,63.7915957 C23.3002254,74.1746059 7.84035919,93.5743209 7.61383543,115.286595 C7.29457376,145.93217 41.2442515,168.884885 71.387114,174.827782 C81.9759593,176.914393 92.8931881,176.166792 103.659908,175.410092 C149.025471,172.224068 194.394074,169.038045 239.759637,165.852021 C246.737785,165.360697 253.966781,164.801133 260.096605,161.439204 C265.411552,158.524621 269.484419,153.678105 272.260475,148.300837 C282.919254,127.653098 297.016937,90.1001751 280.164482,74.0760378 C263.312026,58.0519005 217.523822,57.5636094 194.502015,54.0894636 C172.220591,50.7275337 149.682238,49.0397449 127.146925,49.0397449 C119.948334,49.0397449 112.749744,49.2111017 105.558755,49.5568482" id="path-12"></path>
        <path d="M42.4179182,63.7915957 C23.3002254,74.1746059 7.84035919,93.5743209 7.61383543,115.286595 C7.29457376,145.93217 41.2442515,168.884885 71.387114,174.827782 C81.9759593,176.914393 92.8931881,176.166792 103.659908,175.410092 C149.025471,172.224068 194.394074,169.038045 239.759637,165.852021 C246.737785,165.360697 253.966781,164.801133 260.096605,161.439204 C265.411552,158.524621 269.484419,153.678105 272.260475,148.300837 C282.919254,127.653098 297.016937,90.1001751 280.164482,74.0760378 C263.312026,58.0519005 217.523822,57.5636094 194.502015,54.0894636 C172.220591,50.7275337 149.682238,49.0397449 127.146925,49.0397449 C119.948334,49.0397449 112.749744,49.2111017 105.558755,49.5568482 C83.817035,50.598637 61.5340907,53.4070692 42.4179182,63.7915957 Z" id="path-14"></path>
        <path d="M42.4179182,63.7915957 C23.3002254,74.1746059 7.84035919,93.5743209 7.61383543,115.286595 C7.29457376,145.93217 41.2442515,168.884885 71.387114,174.827782 C81.9759593,176.914393 92.8931881,176.166792 103.659908,175.410092 C149.025471,172.224068 194.394074,169.038045 239.759637,165.852021 C246.737785,165.360697 253.966781,164.801133 260.096605,161.439204 C265.411552,158.524621 269.484419,153.678105 272.260475,148.300837 C282.919254,127.653098 297.016937,90.1001751 280.164482,74.0760378 C263.312026,58.0519005 217.523822,57.5636094 194.502015,54.0894636 C172.220591,50.7275337 149.682238,49.0397449 127.146925,49.0397449 C119.948334,49.0397449 112.749744,49.2111017 105.558755,49.5568482 C83.817035,50.598637 61.5340907,53.4070692 42.4179182,63.7915957 Z" id="path-16"></path>
        <path d="M0.913349015,30.434104 C2.22622296,42.5588518 6.90769495,55.2393489 16.2509306,63.0577993 C50.0445485,91.3326808 83.6486638,94.2966768 126.623303,87.4196595 C137.464367,85.684082 148.983093,79.7712744 153.90258,69.9408903 C161.628222,54.5029052 145.294614,31.5941926 134.523287,37.2063489 C128.751796,40.2143796 131.012183,47.41938 130.677143,53.8180885 C130.48764,57.4243848 129.473422,60.7755831 125.728851,62.9727666 C122.940889,64.6081271 119.743601,65.3916424 116.567538,65.976242 C100.01714,69.0222338 82.8982336,67.382318 66.2796144,65.7575866 C51.689431,64.3317709 36.0092287,60.8150626 25.6851276,49.566455 C13.3856515,36.1662171 9.82906687,18.2091391 10.4855038,0.0197397272 C0.605596808,7.14881812 -0.398008909,18.3093562 0.913349015,30.434104" id="path-18"></path>
        <path d="M0.913349015,30.434104 C2.22622296,42.5588518 6.90769495,55.2393489 16.2509306,63.0577993 C50.0445485,91.3326808 83.6486638,94.2966768 126.623303,87.4196595 C137.464367,85.684082 148.983093,79.7712744 153.90258,69.9408903 C161.628222,54.5029052 145.294614,31.5941926 134.523287,37.2063489 C128.751796,40.2143796 131.012183,47.41938 130.677143,53.8180885 C130.48764,57.4243848 129.473422,60.7755831 125.728851,62.9727666 C122.940889,64.6081271 119.743601,65.3916424 116.567538,65.976242 C100.01714,69.0222338 82.8982336,67.382318 66.2796144,65.7575866 C51.689431,64.3317709 36.0092287,60.8150626 25.6851276,49.566455 C13.3856515,36.1662171 9.82906687,18.2091391 10.4855038,0.0197397272 C0.605596808,7.14881812 -0.398008909,18.3093562 0.913349015,30.434104" id="path-20"></path>
        <path d="M16.2509306,63.0577993 C50.0445485,91.3326808 83.6486638,94.2966768 126.623303,87.4196595 C137.464367,85.684082 148.983093,79.7712744 153.90258,69.9408903 C161.628222,54.5029052 145.294614,31.5941926 134.523287,37.2063489 C128.751796,40.2143796 131.012183,47.41938 130.677143,53.8180885 C130.48764,57.4243848 129.473422,60.7755831 125.728851,62.9727666 C122.940889,64.6081271 119.743601,65.3916424 116.567538,65.976242 C100.01714,69.0222338 82.8982336,67.382318 66.2796144,65.7575866 C51.689431,64.3317709 36.0092287,60.8150626 25.6851276,49.566455 C13.3856515,36.1662171 9.82906687,18.2091391 10.4855038,0.0197397272 C0.605596808,7.14881812 -0.398008909,18.3093562 0.913349015,30.434104 C2.22622296,42.5588518 6.90769495,55.2393489 16.2509306,63.0577993 Z" id="path-22"></path>
        <path d="M31.3776977,3.26050202 C22.5454119,6.61416124 15.0267312,19.2453613 10.2582687,25.1478627 C3.09950059,34.0084869 -1.01747447,47.1757227 0.514811709,54.429767 C3.09950059,65.8560321 27.6084864,88.2870643 51.3642373,88.2870643 C72.4958153,88.2870643 102.921339,71.8333647 105.373908,50.4560779 C105.373908,36.6642307 97.2644848,29.4636372 92.7131848,20.9832776 C88.5187602,13.1702901 85.8308053,8.94614559 78.4381699,4.08669949 C74.2179288,1.31336381 65.5906564,0.313069281 56.7538147,0.313069281 C46.2297878,0.313069281 35.4081115,1.73180763 31.3776977,3.26050202" id="path-24"></path>
        <path d="M31.3776977,3.26050202 C22.5454119,6.61416124 15.0267312,19.2453613 10.2582687,25.1478627 C3.09950059,34.0084869 -1.01747447,47.1757227 0.514811709,54.429767 C3.09950059,65.8560321 27.6084864,88.2870643 51.3642373,88.2870643 C72.4958153,88.2870643 102.921339,71.8333647 105.373908,50.4560779 C105.373908,36.6642307 97.2644848,29.4636372 92.7131848,20.9832776 C88.5187602,13.1702901 85.8308053,8.94614559 78.4381699,4.08669949 C74.2179288,1.31336381 65.5906564,0.313069281 56.7538147,0.313069281 C46.2297878,0.313069281 35.4081115,1.73180763 31.3776977,3.26050202" id="path-26"></path>
        <filter x="-38.1%" y="-38.1%" width="176.2%" height="176.2%" filterUnits="objectBoundingBox" id="filter-28">
            <feOffset dx="9" dy="10" in="SourceAlpha" result="shadowOffsetOuter1"></feOffset>
            <feGaussianBlur stdDeviation="20" in="shadowOffsetOuter1" result="shadowBlurOuter1"></feGaussianBlur>
            <feColorMatrix values="0 0 0 0 0   0 0 0 0 0   0 0 0 0 0  0 0 0 0.23644135 0" type="matrix" in="shadowBlurOuter1" result="shadowMatrixOuter1"></feColorMatrix>
            <feMerge>
                <feMergeNode in="shadowMatrixOuter1"></feMergeNode>
                <feMergeNode in="SourceGraphic"></feMergeNode>
            </feMerge>
        </filter>
        <path d="M185.154887,62.4659794 C198.714737,64.6967156 209,75.4943223 209,88.4782609 C209,103.077788 195.995907,114.913043 179.954545,114.913043 C176.620404,114.913043 173.417473,114.401758 170.435245,113.460636 C161.253821,119.971961 148.563676,124 134.545455,124 C121.523761,124 109.648035,120.524296 100.666145,114.811065 C98.0132081,115.418195 95.2491235,115.73913 92.4090909,115.73913 C72.3009052,115.73913 56,99.6505802 56,79.8043478 C56,59.9581154 72.3009052,43.8695652 92.4090909,43.8695652 C92.7503442,43.8695652 93.0905009,43.8741989 93.4295,43.8834059 C102.645829,34.8660692 117.628597,29 134.545455,29 C161.389962,29 183.364253,43.7712982 185.154887,62.4659794 Z" id="path-29"></path>
        <filter x="-36.6%" y="-57.9%" width="185.0%" height="236.8%" filterUnits="objectBoundingBox" id="filter-30">
            <feOffset dx="9" dy="10" in="SourceAlpha" result="shadowOffsetOuter1"></feOffset>
            <feGaussianBlur stdDeviation="20" in="shadowOffsetOuter1" result="shadowBlurOuter1"></feGaussianBlur>
            <feColorMatrix values="0 0 0 0 0   0 0 0 0 0   0 0 0 0 0  0 0 0 0.23644135 0" type="matrix" in="shadowBlurOuter1"></feColorMatrix>
        </filter>
        <path d="M323.554923,404.166886 C332.931906,405.837225 340,413.252865 340,422.148148 C340,432.273369 330.842188,440.481481 319.545455,440.481481 C317.354396,440.481481 315.243801,440.172704 313.264881,439.601051 C306.736987,444.168824 297.665618,447 287.636364,447 C278.403683,447 269.982771,444.600697 263.610622,440.656024 C261.734834,441.074893 259.780595,441.296296 257.772727,441.296296 C243.538843,441.296296 232,430.169743 232,416.444444 C232,402.719146 243.538843,391.592593 257.772727,391.592593 C257.897176,391.592593 258.021419,391.593443 258.14545,391.595139 C264.65685,385.18818 275.438103,381 287.636364,381 C306.698312,381 322.299983,391.227374 323.554923,404.166886 Z" id="path-31"></path>
        <filter x="-51.9%" y="-83.3%" width="220.4%" height="297.0%" filterUnits="objectBoundingBox" id="filter-32">
            <feOffset dx="9" dy="10" in="SourceAlpha" result="shadowOffsetOuter1"></feOffset>
            <feGaussianBlur stdDeviation="20" in="shadowOffsetOuter1" result="shadowBlurOuter1"></feGaussianBlur>
            <feColorMatrix values="0 0 0 0 0   0 0 0 0 0   0 0 0 0 0  0 0 0 0.23644135 0" type="matrix" in="shadowBlurOuter1"></feColorMatrix>
        </filter>
    </defs>
    <g id="Page-1" stroke="none" stroke-width="1" fill="none" fill-rule="evenodd">
        <g id="2" transform="translate(-1042.000000, -1719.000000)">
            <g id="Group-13" transform="translate(407.000000, 1719.000000)">
                <g id="cat_il" transform="translate(635.000000, 0.000000)">
                    <g id="Group-10" transform="translate(30.000000, 29.000000)">
                        <g id="illustration-copy-2">
                            <mask id="mask-2" fill="white">
                                <use xlink:href="#path-1"></use>
                            </mask>
                            <use id="Oval" fill="#4A90E2" xlink:href="#path-1"></use>
                            <polygon id="Path-2" fill="#FFFFFF" opacity="0.0516183036" mask="url(#mask-2)" transform="translate(284.707453, 182.694621) rotate(-19.000000) translate(-284.707453, -182.694621) " points="64.0674765 -56.4467156 318.991228 479.207198 505.34743 373.564903 371.267373 -113.817956"></polygon>
                        </g>
                        <g id="cat" filter="url(#filter-3)" transform="translate(60.611576, 125.239175)">
                            <g id="Group-12">
                                <path d="M297.716739,162.869022 C300.118888,167.911551 304.614556,173.066847 302.659389,178.301385 C300.631245,183.734028 293.403512,184.499017 287.618589,184.351201 C283.794914,184.252148 279.693016,184.060139 276.643199,181.745361 C273.669398,179.486966 272.358859,175.707736 271.201874,172.152517 C266.852159,158.781968 262.503965,145.412943 258.15425,132.043917 C254.236314,120.00067 250.272767,107.293009 252.7783,94.8779347 C256.040966,78.7034406 271.014871,60.6515227 283.244548,78.7522049 C293.675654,94.1906635 298.644151,113.530263 296.968727,132.091157 C296.032193,142.458133 293.239314,153.475807 297.716739,162.869022 Z" id="Fill-1" fill="#FFFFFF"></path>
                                <path d="M105.562268,49.5599404 C83.8197754,50.606848 61.5345182,53.4290793 42.4176658,63.8631061 C23.3008133,74.2986569 7.83887681,93.7952159 7.61386534,115.612649 C7.29459231,146.4088 41.2454777,169.475817 71.3894123,175.44639 C81.9771139,177.543253 92.8962514,176.791979 103.661834,176.031562 C149.030531,172.829883 194.399227,169.628205 239.767924,166.426527 C246.74632,165.932789 253.974054,165.370476 260.105616,161.992028 C265.420752,159.064648 269.492243,154.194318 272.268398,148.789105 C282.929076,128.039914 274.057847,101.391773 257.204793,85.288901 C240.350217,69.1860294 217.531318,57.6060426 194.508692,54.1148266 C165.106688,49.655945 135.263782,48.1274904 105.562268,49.5599404 Z" id="Fill-3" fill="#FFFFFF"></path>
                                <path d="M272.104656,172.431693 C274.616271,174.232922 275.533041,177.763759 274.722695,180.75057 C273.91235,183.737381 271.624227,186.164926 268.939292,187.694905 C263.301843,190.908774 256.20638,190.421131 250.082419,188.283124 C243.958459,186.145116 238.479126,182.525894 232.721569,179.532987 C216.947961,171.334497 199.216145,167.890521 181.764073,164.54255 C182.244503,159.254677 186.671756,155.298676 190.913526,152.119856 C203.340849,142.80436 222.039605,125.383329 234.8683,138.964174 C245.165615,149.867557 252.18506,165.481262 267.390058,170.497885 C269.010749,171.032768 270.718099,171.436597 272.104656,172.431693 Z" id="Fill-5" fill="#FFFFFF"></path>
                                <mask id="mask-5" fill="white">
                                    <use xlink:href="#path-4"></use>
                                </mask>
                                <g id="Clip-9"></g>
                                <path d="M89.8377019,76.8636948 C90.6236937,83.0067609 88.4511941,89.096752 87.6728037,95.2413346 C86.7287014,102.700664 87.8902057,110.414754 90.9885642,117.269026 C93.2264365,122.21866 96.7231119,126.930215 101.765926,128.969816 C107.217699,131.176224 113.64246,129.823567 118.580374,126.634511 C123.518288,123.445454 127.179155,118.635332 130.269912,113.641721 C139.849282,98.1619827 144.848008,79.8995917 144.486178,61.7115059 C144.279418,51.3102986 141.462314,39.6170912 132.412006,34.4475744 C125.54788,30.5260811 116.795549,31.532992 109.533106,34.6613913 C98.3102985,39.4942602 80.1078225,46.1316832 84.3996115,60.7970974 C85.9913589,66.2365391 89.1170827,71.2422812 89.8377019,76.8636948 Z" id="Fill-8" fill="#494747" mask="url(#mask-5)"></path>
                                <mask id="mask-7" fill="white">
                                    <use xlink:href="#path-6"></use>
                                </mask>
                                <g id="Clip-12"></g>
                                <path d="M112.836552,41.6803486 C110.08178,45.5047902 107.860631,49.8827295 107.520085,54.5806359 C107.18106,59.2770259 109.014534,64.317646 112.949054,66.9198434 C117.000637,69.5993788 122.609,69.1990407 126.763963,66.6817635 C130.918925,64.1660028 133.732989,59.8456879 135.311054,55.2599975 C136.724927,51.1474338 136.977295,45.9551705 133.707144,43.0815318 C131.011663,40.7113485 127.001128,40.8402452 123.417796,41.102588 C119.490878,41.3907101 115.563959,41.6773157 111.638561,41.9654378" id="Fill-11" fill="#F1B464" mask="url(#mask-7)"></path>
                                <mask id="mask-9" fill="white">
                                    <use xlink:href="#path-8"></use>
                                </mask>
                                <g id="Clip-15"></g>
                                <path d="M120.955681,91.0847944 C121.569879,94.2420059 122.699458,97.4158981 124.946452,99.7208748 C127.194966,102.025852 130.753973,103.264776 133.755033,102.095607 C135.301172,101.492067 136.556934,100.336546 137.72756,99.1628278 C143.012101,93.8553157 147.493927,87.5378599 153.958216,83.7452633 C158.076691,81.3311035 162.816967,80.0633664 166.792535,77.4217418 C176.376466,71.0496944 179.128197,56.4312896 172.517961,47.0248617 C156.475822,24.204076 133.691181,48.6868712 125.502879,64.3561634 C121.235415,72.5236663 119.196701,82.0438266 120.955681,91.0847944 Z" id="Fill-14" fill="#F1B464" mask="url(#mask-9)"></path>
                                <mask id="mask-11" fill="white">
                                    <use xlink:href="#path-10"></use>
                                </mask>
                                <g id="Clip-18"></g>
                                <path d="M43.4454847,89.4490192 C47.7357534,92.8807048 49.3198994,98.7189682 53.1221539,102.682922 C56.197708,105.890175 60.7038584,107.679565 65.1476768,107.455133 C66.184517,107.403574 67.3186561,107.19279 67.9708621,106.386049 C68.6732378,105.520166 68.5789795,104.279724 68.4482343,103.174245 C67.0009147,90.8850803 65.5535952,78.5974315 64.1077959,66.3082663 C63.4935972,61.1008387 62.1116503,54.8834674 57.1494118,53.1532184 C54.3277468,52.169054 51.2202665,53.0516175 48.4198856,54.0949227 C39.4927212,57.4189417 23.9021097,67.2150927 29.0422226,79.5618823 C31.3241834,85.0437841 38.8040282,85.7337607 43.4454847,89.4490192 Z" id="Fill-17" fill="#494747" mask="url(#mask-11)"></path>
                                <mask id="mask-13" fill="white">
                                    <use xlink:href="#path-12"></use>
                                </mask>
                                <g id="Clip-21"></g>
                                <path d="M64.0939612,79.4743842 C66.2816638,82.6346285 67.9038171,86.539441 71.3670461,88.2166148 C75.3806214,90.1606807 80.2455611,88.2408778 83.7483177,85.4855207 C86.5912668,83.2472671 88.9963714,80.4570321 90.785757,77.3149849 C95.0699446,69.7965149 95.4196121,59.7274062 90.2080454,52.815509 C78.2174893,36.9126863 47.4193803,51.99057 58.0051851,71.3463085 C59.6318993,74.3200317 62.1662289,76.6871821 64.0939612,79.4743842 Z" id="Fill-20" fill="#F1B464" mask="url(#mask-13)"></path>
                                <mask id="mask-15" fill="white">
                                    <use xlink:href="#path-14"></use>
                                </mask>
                                <g id="Clip-24"></g>
                                <path d="M127.306555,139.160391 C138.106722,133.554142 154.486366,156.432552 146.740469,171.850116 C141.807116,181.669014 130.255925,187.574 119.384305,189.305765 C76.2870204,196.173686 42.5881911,193.213611 8.70236569,164.97613 C-0.668724439,157.168021 -5.36339127,144.504297 -6.67996558,132.395587 C-7.9950196,120.288394 -3.64089855,107.13183 6.26685525,100.013698 C5.61008839,118.179037 5.82901067,138.121635 18.1616329,151.504148 C28.5148327,162.73636 44.23923,166.248416 58.8705363,167.672346 C75.5359954,169.296445 92.7031514,170.934191 109.300197,167.892229 C112.485213,167.308402 115.691512,166.525923 118.487332,164.892726 C122.242457,162.698449 123.259534,159.351683 123.44957,155.748641 C123.785555,149.358396 121.518797,142.162926 127.306555,139.160391 Z" id="Fill-23" fill="#B3B3B3" mask="url(#mask-15)"></path>
                                <mask id="mask-17" fill="white">
                                    <use xlink:href="#path-16"></use>
                                </mask>
                                <g id="Clip-27"></g>
                                <path d="M288.795189,62.6336482 C286.338394,83.8621803 255.879311,100.200219 234.725945,100.200219 C210.943991,100.200219 186.407972,77.9268653 183.820432,66.5794044 C182.286455,59.3763522 186.407972,46.3031916 193.574636,37.5033366 C198.348358,31.6438432 205.875332,19.1014338 214.71736,15.7713491 C222.139434,12.9765648 252.571152,10.5563393 261.82974,16.5917388 C269.23053,21.4170255 271.921449,25.6099601 276.120501,33.3695428 C280.678341,41.7887735 288.795189,48.940267 288.795189,62.6336482" id="Fill-26" fill="#DADADA" mask="url(#mask-17)"></path>
                                <path d="M131.079821,154.663921 C131.415487,148.247267 129.150883,141.022059 134.933141,138.007115 C145.723046,132.377696 162.087127,155.350659 154.34859,170.831941 C149.419925,180.691418 137.879709,186.620809 127.018418,188.359731 C83.9620817,195.256036 50.2952708,192.283727 16.4416415,163.929546 C7.07945512,156.089168 2.38924885,143.373107 1.07392546,131.214354 C-0.239879078,119.057124 4.11010497,105.846186 14.0084451,98.6986359 C13.3523022,116.939049 13.5710165,136.964066 25.8919211,150.401886 C36.235284,161.680519 51.944741,165.20709 66.5621455,166.636905 C83.2117702,168.267716 100.362615,169.912231 116.943892,166.857696 C120.125881,166.271457 123.329134,165.485744 126.122297,163.845797 C129.873855,161.642451 130.889965,158.281854 131.079821,154.663921" id="Fill-30" fill="#FFFFFF"></path>
                                <g id="Group-41" transform="translate(0.000000, 102.072948)">
                                    <g id="Group-34">
                                        <mask id="mask-19" fill="white">
                                            <use xlink:href="#path-18"></use>
                                        </mask>
                                        <g id="Clip-33"></g>
                                        <path d="M25.4416547,3.79352003 C39.3481127,9.38593659 52.5526532,17.3516757 62.4674287,28.6063571 C67.2504741,34.0363005 71.2300285,40.179911 76.4239155,45.2180968 C86.0809675,54.586875 99.2415434,59.4580323 112.365735,62.3825488 C119.310626,63.9298397 127.216674,65.5697555 130.891508,71.6723681 C134.667916,77.9404907 131.945142,86.4877925 126.658778,91.5441996 C121.372414,96.6006066 114.160703,98.9967058 107.203684,101.243998 C98.5881384,104.027299 89.8801154,106.830341 80.8582761,107.592598 C56.4351823,109.657677 33.3446707,96.6613442 13.5939527,82.1237944 C1.13832649,72.9569688 -11.0717044,62.5738723 -17.9771788,48.724176 C-35.408385,13.7620823 -8.06088724,-9.67808455 25.4416547,3.79352003" id="Fill-32" fill="#494747" mask="url(#mask-19)"></path>
                                    </g>
                                    <g id="Group-37">
                                        <mask id="mask-21" fill="white">
                                            <use xlink:href="#path-20"></use>
                                        </mask>
                                        <g id="Clip-36"></g>
                                        <path d="M-0.372084955,49.517713 C-0.82537515,46.1179246 0.20551894,41.8207379 3.52863636,40.9947062 C6.16802844,40.3387399 8.76193989,42.3294154 10.2900888,44.5812628 C11.8182377,46.8331101 12.796071,49.4964549 14.7502217,51.3884318 C20.4641038,56.9216292 32.5149525,54.3068745 35.2998826,61.7608992 C36.8113553,65.8060248 33.8914994,70.4995246 29.914977,72.1698092 C25.9369386,73.8400938 21.354008,73.1416111 17.2668161,71.7628671 C11.3073387,69.749415 5.7117062,66.2281513 2.06719239,61.0943038 C-1.57732143,55.9589378 -3.04786153,49.1016603 -0.95120487,43.1630393" id="Fill-35" fill="#F1B464" mask="url(#mask-21)"></path>
                                    </g>
                                    <g id="Group-40">
                                        <mask id="mask-23" fill="white">
                                            <use xlink:href="#path-22"></use>
                                        </mask>
                                        <g id="Clip-39"></g>
                                        <path d="M56.1876161,84.5376593 C57.9310399,81.9866792 59.7836173,79.3385189 62.5200347,77.9066294 C68.7751361,74.6343901 77.4210023,80.81748 76.6978604,87.8478597 C75.9747186,94.8797579 66.7997611,99.2771618 60.6917137,95.7361584 C54.5836662,92.195155 53.5755124,82.4953568 58.5617046,77.4936136" id="Fill-38" fill="#F1B464" mask="url(#mask-23)"></path>
                                    </g>
                                </g>
                                <path d="M288.205315,58.0770123 C285.759993,79.6018321 255.443152,96.1679017 234.388571,96.1679017 C210.717677,96.1679017 186.296239,73.5836776 183.720783,62.0778395 C182.193971,54.774254 186.296239,41.5186306 193.429436,32.5959555 C198.180865,26.6546808 205.672688,13.9372164 214.473425,10.5606535 C221.860838,7.72686228 252.150442,5.27285754 261.365793,11.3924934 C268.732021,16.2851269 271.410375,20.5365825 275.589817,28.4044662 C280.126372,36.9412045 288.205315,44.1925117 288.205315,58.0770123" id="Fill-42" fill="#FFFFFF"></path>
                                <g id="Group-9" transform="translate(183.403382, 0.000000)">
                                    <g id="had2" transform="translate(0.000000, 7.592203)">
                                        <g id="Group-46">
                                            <mask id="mask-25" fill="white">
                                                <use xlink:href="#path-24"></use>
                                            </mask>
                                            <g id="Clip-45"></g>
                                            <path d="M54.2733031,21.3023029 C53.8799809,25.5447734 55.6962487,29.6436902 57.4715139,33.513532 C60.3644824,39.8222598 63.2574508,46.1309876 66.1504193,52.4412425 C68.0335063,56.546268 70.1079394,60.8803686 73.9135976,63.2871842 C77.3304895,65.4496529 81.5719913,65.687891 85.6054423,65.8650424 C92.6199417,66.1704759 100.522833,66.1506227 105.49479,61.1659489 C107.628449,59.0294419 108.937499,56.2041826 109.944343,53.349907 C114.92693,39.2327732 113.286822,23.4052121 108.126556,9.35221935 C106.325475,4.44695824 104.008063,-0.44913988 100.126473,-3.92955398 C85.2789393,-17.2510337 55.8268499,4.54316977 54.2733031,21.3023029" id="Fill-44" fill="#F1B464" mask="url(#mask-25)"></path>
                                        </g>
                                        <g id="Group-49">
                                            <mask id="mask-27" fill="white">
                                                <use xlink:href="#path-26"></use>
                                            </mask>
                                            <g id="Clip-48"></g>
                                            <path d="M13.7882977,16.4260288 C11.9841788,21.8841245 2.16782807,27.7560825 6.78442865,31.1525024 C10.7571349,34.0755004 27.2250352,34.6512425 31.5470237,32.2810789 C35.8690123,29.9093883 39.0414066,25.8807211 41.7005078,21.7146089 C44.1804119,17.8264412 46.3247014,13.7229429 48.0999666,9.46367347 C48.9762095,7.36229137 49.7734843,5.16164341 49.7476678,2.88463708 C49.6960347,-1.82361947 45.8767089,-5.98973165 41.3481882,-7.19161226 C29.6806414,-10.2902346 16.9865085,6.74684298 13.7882977,16.4260288" id="Fill-47" fill="#494747" mask="url(#mask-27)"></path>
                                        </g>
                                    </g>
                                    <g id="had1" transform="translate(2.535531, 0.000000)">
                                        <path d="M3.4429819,6.7863139 C3.72956234,5.15745378 4.1131859,3.4667573 5.18217644,2.19986609 C7.82660127,-0.935689649 12.8682943,0.135135062 16.6666224,1.70969985 C22.919838,4.30079401 28.9077013,7.52835018 34.5058759,11.3244992 C35.2625089,11.8372885 36.0479516,12.4028649 36.4057981,13.2414262 C37.2033712,15.1070744 35.5430241,17.0451163 34.0282418,18.4024997 C29.1897328,22.7431103 15.4096108,40.1327003 7.41720064,36.7513074 C-0.368992888,33.4573902 2.31182311,13.2157868 3.4429819,6.7863139" id="Fill-51" fill="#494747"></path>
                                        <path d="M97.4061892,6.7863139 C97.1196087,5.15745378 96.7359852,3.4667573 95.6669946,2.19986609 C93.0225698,-0.935689649 87.9808768,0.135135062 84.1825487,1.70969985 C77.9293331,4.30079401 71.9414698,7.52835018 66.3432952,11.3244992 C65.5866622,11.8372885 64.8012195,12.4028649 64.443373,13.2414262 C63.6457999,15.1070744 65.3061469,17.0451163 66.8209293,18.4024997 C71.6594382,22.7431103 85.4395603,40.1327003 93.4319704,36.7513074 C101.218164,33.4573902 98.537348,13.2157868 97.4061892,6.7863139" id="Fill-53" fill="#F1B464"></path>
                                        <path d="M33.2120182,47.0689297 C32.2067122,45.1007237 31.1468195,46.8924698 30.6115661,48.0688688 C29.5850319,50.3176007 29.2954189,53.6492229 30.5873053,55.8602497 C31.9883652,58.2582938 32.886014,56.0261521 33.2696376,54.3957838 C33.7927606,52.1787242 34.2779762,49.1562838 33.2120182,47.0689297" id="Fill-55" fill="#494747"></path>
                                        <path d="M71.1194843,47.0689297 C70.1141783,45.1007237 69.0542855,46.8924698 68.5190321,48.0688688 C67.4924979,50.3176007 67.2028849,53.6492229 68.4947713,55.8602497 C69.8958313,58.2582938 70.7934801,56.0261521 71.1771036,54.3957838 C71.7002267,52.1787242 72.1854422,49.1562838 71.1194843,47.0689297" id="Fill-57" fill="#494747"></path>
                                        <path d="M55.1445199,65.2545497 C53.5448249,65.3616321 45.1657586,64.3330371 46.5440741,68.1397436 C47.3598427,70.3930001 49.9026755,71.9630402 52.3105578,71.5799565 C54.7457334,71.1938563 56.5243517,69.0145018 56.6289763,66.6134413 C56.6668838,65.7371749 55.9815168,65.1987461 55.1445199,65.2545497" id="Fill-59" fill="#494747"></path>
                                        <path d="M120.35082,54.5202106 C100.49489,55.6498553 78.7572322,60.3147297 60.391823,68.0110938 C60.2765843,68.0593563 60.3463341,68.2162095 60.4615728,68.1875536 C70.8239577,65.5240657 80.9786097,62.3085751 91.4638148,60.0688925 C101.057436,58.0192435 110.757199,56.7734671 120.422086,55.152148 C120.828454,55.0842789 120.763253,54.4960794 120.35082,54.5202106" id="Fill-61" fill="#494747"></path>
                                        <path d="M118.040739,69.5087402 C98.9914794,67.3655825 78.6488168,68.0397497 59.6905349,70.5840895 C59.5055465,70.609729 59.5404213,70.8706482 59.7223772,70.8661236 C79.1795214,70.3623835 98.5775299,70.4302527 118.030125,70.1633006 C118.407684,70.1572678 118.410716,69.5509699 118.040739,69.5087402" id="Fill-63" fill="#494747"></path>
                                        <path d="M100.484124,79.0328965 C86.8404686,76.173342 72.1278229,73.2323446 58.1991036,72.4933247 C58.0141151,72.4842755 57.9822729,72.7255881 58.1581635,72.7738506 C71.6304769,76.3769495 86.5311437,78.1370234 100.394662,79.6391944 C100.791932,79.6814241 100.87078,79.1143395 100.484124,79.0328965" id="Fill-65" fill="#494747"></path>
                                        <path d="M43.7953279,69.7740332 C33.2934435,66.6822154 21.7513782,66.2010984 10.9522993,67.9053687 C10.4549533,67.9837953 10.5368335,68.7107495 11.0402446,68.6775691 C22.1425833,67.9641886 32.7081522,68.6112081 43.7058663,70.0892478 C43.8863058,70.1133791 43.9818326,69.8283286 43.7953279,69.7740332" id="Fill-67" fill="#494747"></path>
                                        <path d="M43.7725834,67.4351107 C31.0250607,62.1292497 14.8886106,61.8064941 1.37384077,63.9541763 C0.891657803,64.0310947 0.970505333,64.7384423 1.4587535,64.7037536 C9.00688813,64.1668331 16.5186316,63.8154216 24.075864,64.462441 C30.7278662,65.0325421 37.1357442,66.7172057 43.7225455,67.614587 C43.8271701,67.629669 43.8726591,67.4773405 43.7725834,67.4351107" id="Fill-69" fill="#494747"></path>
                                        <path d="M42.973494,72.8543887 C28.8552374,71.7006128 13.9500217,74.0081646 0.501969052,78.324644 C0.159285559,78.4347428 0.37005107,78.909827 0.699087876,78.8298922 C14.9098387,75.350466 28.3988315,74.0217385 42.9643962,73.3686862 C43.2585582,73.3551124 43.2691722,72.87852 42.973494,72.8543887" id="Fill-71" fill="#494747"></path>
                                    </g>
                                </g>
                            </g>
                        </g>
                        <g id="glass" filter="url(#filter-28)" transform="translate(187.568256, 20.463918)">
                            <path d="M241.62723,125.238654 C241.62723,61.9481282 190.288063,10.6412371 126.95668,10.6412371 C63.6263403,10.6412371 12.2861303,61.9481282 12.2861303,125.238654 C12.2861303,188.52918 63.6263403,239.837113 126.95668,239.837113 C190.288063,239.837113 241.62723,188.52918 241.62723,125.238654" id="Fill-24" fill="#EBE9E7" opacity="0.2"></path>
                            <path d="M126.547142,228.37732 C69.4154174,228.376273 22.9351571,181.926491 22.9341099,124.829897 C22.9351571,96.277937 34.5520808,70.3976218 53.3167529,51.6458783 C72.0761893,32.8983207 97.9854684,21.2824742 126.547142,21.2824742 C183.678867,21.2835207 230.160175,67.7343489 230.160175,124.829897 C230.160175,153.38081 218.543251,179.264265 199.777532,198.014962 C181.017048,216.760427 155.109863,228.376273 126.547142,228.37732 M125.417283,30.5165489 C100.979229,30.5165489 76.5338461,39.8364344 57.8875003,58.4699265 C20.5906202,95.7431895 20.5906202,156.173846 57.8875003,193.446062 C76.5359403,212.082694 100.977135,221.400486 125.41833,221.400486 C149.859525,221.400486 174.30072,212.082694 192.948113,193.446062 C230.244993,156.173846 230.244993,95.7431895 192.948113,58.4709729 C174.298625,39.8322485 149.861619,30.5165489 125.417283,30.5165489" id="Fill-28" fill="#F7F6F5" opacity="0.2"></path>
                            <path d="M51.4778629,51.4454714 C32.7666936,70.14383 21.1828927,95.9504658 21.1818485,124.42114 C21.1828927,181.355185 67.5306261,227.672727 124.499454,227.673771 C152.980735,227.672727 178.814052,216.08995 197.521045,197.397853 C216.233258,178.700538 227.817059,152.890771 227.817059,124.42114 C227.817059,67.4881393 181.468282,21.1695533 124.499454,21.1685098 C96.0192166,21.1685098 70.1838114,32.7512868 51.4778629,51.4454714 M209.596641,209.465854 C187.795831,231.253997 157.695073,244.748454 124.499454,244.748454 C58.10926,244.748454 4.09537677,190.769582 4.09537677,124.42114 C4.09642092,58.0716547 58.10926,4.09487049 124.500498,4.09278351 C190.889648,4.093827 244.903531,58.0726981 244.903531,124.42114 C244.902487,157.595883 231.399538,187.677711 209.596641,209.465854" id="Fill-29" fill="#726F6F"></path>
                            <path d="M49.4762792,49.4470329 C29.9394226,68.9715184 17.8423493,95.9196202 17.8413072,125.649495 C17.8423493,185.099872 66.2389794,233.466897 125.728067,233.466897 C155.4674,233.466897 182.442998,221.370194 201.97777,201.851957 C221.517754,182.328513 233.613785,155.377287 233.613785,125.649495 C233.613785,66.1991185 185.21507,17.8320927 125.727025,17.8320927 C95.9876917,17.8320927 69.0100095,29.9256717 49.4762792,49.4470329 M214.588615,214.454816 C191.82219,237.204742 160.391476,251.296907 125.728067,251.296907 C56.4012492,251.296907 0,194.931372 0,125.649495 C0,56.3655349 56.4022914,0.0031244176 125.728067,0 C195.053843,0.00104147253 251.455092,56.3665764 251.456134,125.648454 C251.455092,160.289913 237.356082,191.701766 214.588615,214.454816" id="Fill-31" fill="#FFFFFF"></path>
                        </g>
                    </g>
                    <g id="Combined-Shape-Copy-10">
                        <use fill="black" fill-opacity="1" filter="url(#filter-30)" xlink:href="#path-29"></use>
                        <use fill="#FFFFFF" fill-rule="evenodd" xlink:href="#path-29"></use>
                    </g>
                    <g id="Combined-Shape-Copy-11" transform="translate(286.000000, 414.000000) scale(-1, 1) translate(-286.000000, -414.000000) ">
                        <use fill="black" fill-opacity="1" filter="url(#filter-32)" xlink:href="#path-31"></use>
                        <use fill="#FFFFFF" fill-rule="evenodd" xlink:href="#path-31"></use>
                    </g>
                </g>
            </g>
        </g>
    </g>
</svg>