<?xml version="1.0" encoding="UTF-8"?>
<svg width="281px" height="209px" viewBox="0 0 281 209" version="1.1" xmlns="http://www.w3.org/2000/svg" xmlns:xlink="http://www.w3.org/1999/xlink">
    <!-- Generator: Sketch 52 (66869) - http://www.bohemiancoding.com/sketch -->
    <title>cloud</title>
    <desc>Created with Sketch.</desc>
    <g id="Page-1" stroke="none" stroke-width="1" fill="none" fill-rule="evenodd">
        <g id="1" transform="translate(-858.000000, -2493.000000)" fill="#FFFFFF">
            <g id="Group-18" transform="translate(0.000000, -43.000000)">
                <g id="Group-17" transform="translate(0.000000, 2342.000000)">
                    <g id="cloud" transform="translate(858.000000, 194.000000)">
                        <path d="M186.704454,53.2754863 C197.683734,59.5289502 205,70.7266492 205,83.5 C205,103.106109 187.762963,119 166.5,119 C158.589458,119 151.23614,116.800139 145.120327,113.027687 C136.04815,123.985369 122.118852,131 106.5,131 C91.4386955,131 77.9484733,124.477234 68.8696503,114.185949 C62.920342,116.641376 56.373791,118 49.5,118 C22.1619049,118 0,96.509668 0,70 C0,48.1396177 15.0700265,29.6923683 35.6855349,23.8941737 C44.2597428,9.60532089 60.2230962,0 78.5,0 C89.5538758,0 99.7614934,3.51346624 108,9.45157179 C116.238507,3.51346624 126.446124,0 137.5,0 C164.838095,0 187,21.490332 187,48 C187,49.7828673 186.899761,51.5430321 186.70445,53.2754839 Z"></path>
                    </g>
                </g>
            </g>
        </g>
    </g>
</svg>