<?xml version="1.0" encoding="UTF-8"?>
<svg width="462px" height="393px" viewBox="0 0 462 393" version="1.1" xmlns="http://www.w3.org/2000/svg" xmlns:xlink="http://www.w3.org/1999/xlink">
    <!-- Generator: sketchtool 52 (66869) - http://www.bohemiancoding.com/sketch -->
    <title>73336B14-F4B6-4D43-A258-051101761F3C</title>
    <desc>Created with sketchtool.</desc>
    <defs>
        <path d="M206.616569,392 C421.622042,392 376.858148,277.738492 406.674802,191.850182 C436.491456,105.961873 384.801749,0 274.312638,0 C163.823527,0 -38.9991988,92.8515839 6.55833596,191.850182 C52.1158707,290.84878 -8.38890411,392 206.616569,392 Z" id="path-1"></path>
        <path d="M133.960666,326.202751 C127.383036,332.180046 117.341106,336 106.089365,336 C94.6644379,336 84.4868524,332.061549 77.9168078,325.92522 C76.1111368,326.285889 74.2405138,326.47541 72.3239909,326.47541 C57.1724088,326.47541 44.8896247,314.63012 44.8896247,300.018215 C44.8896247,285.40631 57.1724088,273.56102 72.3239909,273.56102 C73.0719554,273.56102 73.8129288,273.589886 74.5457787,273.646527 C80.6215821,265.400727 92.4690933,259.803279 106.089365,259.803279 C124.938695,259.803279 140.392787,270.523665 141.852363,284.147809 C153.60734,284.369582 163.068433,293.996045 163.068433,305.838798 C163.068433,317.82056 153.38393,327.533698 141.43749,327.533698 C138.809408,327.533698 136.290792,327.06363 133.960666,326.202751 Z" id="path-3"></path>
        <filter x="-47.4%" y="-72.2%" width="210.0%" height="270.6%" filterUnits="objectBoundingBox" id="filter-4">
            <feOffset dx="9" dy="10" in="SourceAlpha" result="shadowOffsetOuter1"></feOffset>
            <feGaussianBlur stdDeviation="20" in="shadowOffsetOuter1" result="shadowBlurOuter1"></feGaussianBlur>
            <feColorMatrix values="0 0 0 0 0   0 0 0 0 0   0 0 0 0 0  0 0 0 0.23644135 0" type="matrix" in="shadowBlurOuter1"></feColorMatrix>
        </filter>
        <linearGradient x1="0%" y1="0%" x2="118.015173%" y2="123.176612%" id="linearGradient-5">
            <stop stop-color="#4A90E2" offset="0%"></stop>
            <stop stop-color="#D0ECF4" offset="100%"></stop>
        </linearGradient>
        <path d="M290.325586,147.079296 C282.931994,153.690025 271.760721,157.901639 259.260486,157.901639 C246.737514,157.901639 235.548344,153.674691 228.15508,147.043201 C225.933128,147.540503 223.61899,147.803279 221.241722,147.803279 C204.292188,147.803279 190.551876,134.445217 190.551876,117.967213 C190.551876,101.489209 204.292188,88.1311475 221.241722,88.1311475 C222.086371,88.1311475 222.923051,88.1643203 223.750458,88.2293987 C230.556287,78.8792898 243.905783,72.5245902 259.260486,72.5245902 C280.48034,72.5245902 297.870527,84.6611893 299.452293,100.067922 C312.703025,100.250632 323.388521,111.071559 323.388521,124.393443 C323.388521,137.829354 312.519319,148.721311 299.111479,148.721311 C296.013002,148.721311 293.050101,148.139631 290.325586,147.079296 Z" id="path-6"></path>
        <filter x="-42.2%" y="-64.4%" width="197.9%" height="252.3%" filterUnits="objectBoundingBox" id="filter-7">
            <feOffset dx="9" dy="10" in="SourceAlpha" result="shadowOffsetOuter1"></feOffset>
            <feGaussianBlur stdDeviation="20" in="shadowOffsetOuter1" result="shadowBlurOuter1"></feGaussianBlur>
            <feColorMatrix values="0 0 0 0 0   0 0 0 0 0   0 0 0 0 0  0 0 0 0.23644135 0" type="matrix" in="shadowBlurOuter1"></feColorMatrix>
        </filter>
        <path d="M380.585516,332.340545 C372.694255,339.456978 360.690432,344 347.246753,344 C333.763883,344 321.729275,339.430451 313.83908,332.278241 C311.620672,332.73132 309.31979,332.969697 306.961039,332.969697 C288.75716,332.969697 274,318.771697 274,301.257576 C274,283.743455 288.75716,269.545455 306.961039,269.545455 C307.775726,269.545455 308.58351,269.573891 309.383377,269.62979 C316.663019,259.72596 330.889031,253 347.246753,253 C369.970055,253 388.579723,265.979305 390.169176,282.426606 C403.955004,282.853792 415,294.207723 415,308.151515 C415,322.365874 403.522209,333.888889 389.363636,333.888889 C386.280162,333.888889 383.323833,333.342366 380.585516,332.340545 Z" id="path-8"></path>
        <filter x="-39.7%" y="-60.4%" width="192.2%" height="242.9%" filterUnits="objectBoundingBox" id="filter-9">
            <feOffset dx="9" dy="10" in="SourceAlpha" result="shadowOffsetOuter1"></feOffset>
            <feGaussianBlur stdDeviation="20" in="shadowOffsetOuter1" result="shadowBlurOuter1"></feGaussianBlur>
            <feColorMatrix values="0 0 0 0 0   0 0 0 0 0   0 0 0 0 0  0 0 0 0.23644135 0" type="matrix" in="shadowBlurOuter1"></feColorMatrix>
        </filter>
    </defs>
    <g id="Page-1" stroke="none" stroke-width="1" fill="none" fill-rule="evenodd">
        <g id="1" transform="translate(-1097.000000, -1750.000000)">
            <g id="Group-18" transform="translate(0.000000, -43.000000)">
                <g id="4" transform="translate(406.000000, 1764.000000)">
                    <g id="illustration_media" transform="translate(691.000000, 29.000000)">
                        <g id="illustration-copy">
                            <mask id="mask-2" fill="white">
                                <use xlink:href="#path-1"></use>
                            </mask>
                            <use id="Oval" fill="#4A90E2" xlink:href="#path-1"></use>
                            <g id="Combined-Shape-Copy-4" mask="url(#mask-2)">
                                <use fill="black" fill-opacity="1" filter="url(#filter-4)" xlink:href="#path-3"></use>
                                <use fill="#FFFFFF" fill-rule="evenodd" xlink:href="#path-3"></use>
                            </g>
                            <polygon id="Path-2" fill="#FFFFFF" opacity="0.0516183036" mask="url(#mask-2)" transform="translate(256.970838, 125.298172) rotate(-19.000000) translate(-256.970838, -125.298172) " points="44.9186928 -104.466779 289.807575 410.331826 469.022983 308.709846 340.30152 -159.735483"></polygon>
                            <g id="Group" mask="url(#mask-2)">
                                <g transform="translate(74.205298, 124.852459)">
                                    <polygon id="Fill-40" stroke="none" fill="#AFABAF" fill-rule="evenodd" points="7.37352316 187.921311 273.873717 187.921311 273.873717 20.0590164 7.37352316 20.0590164"></polygon>
                                    <path d="M273.047743,179.47541 L247.539706,179.47541 L247.539706,190.032787 L275.980438,190.032787 L275.980438,182.523434 C275.980438,180.840158 274.667607,179.47541 273.047743,179.47541" id="Fill-41" stroke="none" fill="#F7F7F5" fill-rule="evenodd"></path>
                                    <polygon id="Fill-42" stroke="none" fill="#312420" fill-rule="evenodd" points="173.804475 186.865574 248.593067 186.865574 248.593067 66.5114754 173.804475 66.5114754"></polygon>
                                    <polygon id="Fill-43" stroke="none" fill="url(#linearGradient-5)" fill-rule="evenodd" points="178.017916 182.642623 243.326264 182.642623 243.326264 70.7344262 178.017916 70.7344262"></polygon>
                                    <path d="M188.551521,118.770204 C188.551521,120.228221 187.372437,121.409836 185.91812,121.409836 C184.463802,121.409836 183.284719,120.228221 183.284719,118.770204 C183.284719,117.312763 184.463802,116.131148 185.91812,116.131148 C187.372437,116.131148 188.551521,117.312763 188.551521,118.770204" id="Fill-53" stroke="none" fill="#DEDED9" fill-rule="evenodd"></path>
                                    <path d="M188.551521,140.941272 C188.551521,142.398712 187.372437,143.580328 185.91812,143.580328 C184.463802,143.580328 183.284719,142.398712 183.284719,140.941272 C183.284719,139.483255 184.463802,138.301639 185.91812,138.301639 C187.372437,138.301639 188.551521,139.483255 188.551521,140.941272" id="Fill-54" stroke="none" fill="#DEDED9" fill-rule="evenodd"></path>
                                    <path d="M186.4448,117.186885 C185.281087,117.186885 184.338079,117.93118 184.338079,118.849672 L184.338079,140.861803 C184.338079,141.780295 185.281087,142.52459 186.4448,142.52459 C187.608512,142.52459 188.551521,141.780295 188.551521,140.861803 L188.551521,118.849672 C188.551521,117.93118 187.608512,117.186885 186.4448,117.186885" id="Fill-55" stroke="none" fill="#F7F7F5" fill-rule="evenodd"></path>
                                    <path d="M174.857835,179.47541 L7.13549434,179.47541 C5.52150865,179.47541 4.21344181,180.840722 4.21344181,182.523895 L4.21344181,190.032787 L174.857835,190.032787 L174.857835,179.47541" id="Fill-56" stroke="none" fill="#F7F7F5" fill-rule="evenodd"></path>
                                    <polygon id="Fill-57" stroke="none" fill="#B7B7B2" fill-rule="evenodd" points="7.37352316 13.7245902 273.873717 13.7245902 273.873717 9.50163934 7.37352316 9.50163934"></polygon>
                                    <polygon id="Fill-58" stroke="none" fill="#B7B7B2" fill-rule="evenodd" points="7.37352316 4.22295082 273.873717 4.22295082 273.873717 0 7.37352316 0"></polygon>
                                    <polygon id="Fill-59" stroke="none" fill="#F1B464" fill-rule="evenodd" points="10.5336045 8.44590164 270.713636 8.44590164 270.713636 4.22295082 10.5336045 4.22295082"></polygon>
                                    <polygon id="Fill-61" stroke="none" fill="#DD482A" fill-rule="evenodd" points="225.419137 62.2885246 239.112823 62.2885246 239.112823 57.0098361 225.419137 57.0098361"></polygon>
                                    <polygon id="Fill-62" stroke="none" fill="#DD482A" fill-rule="evenodd" points="244.379625 62.2885246 258.073311 62.2885246 258.073311 57.0098361 244.379625 57.0098361"></polygon>
                                    <polygon id="Fill-63" stroke="none" fill="#DD482A" fill-rule="evenodd" points="233.84602 52.7868852 247.539706 52.7868852 247.539706 47.5081967 233.84602 47.5081967"></polygon>
                                    <polygon id="Fill-64" stroke="none" fill="#DD482A" fill-rule="evenodd" points="251.753148 143.580328 265.446834 143.580328 265.446834 138.301639 251.753148 138.301639"></polygon>
                                    <polygon id="Fill-65" stroke="none" fill="#DD482A" fill-rule="evenodd" points="261.233392 134.078689 274.927078 134.078689 274.927078 128.8 261.233392 128.8"></polygon>
                                    <polygon id="Fill-66" stroke="none" fill="#DD482A" fill-rule="evenodd" points="32.654174 62.2885246 46.3478599 62.2885246 46.3478599 57.0098361 32.654174 57.0098361"></polygon>
                                    <polygon id="Fill-67" stroke="none" fill="#DD482A" fill-rule="evenodd" points="51.6146621 62.2885246 65.308348 62.2885246 65.308348 57.0098361 51.6146621 57.0098361"></polygon>
                                    <polygon id="Fill-68" stroke="none" fill="#DD482A" fill-rule="evenodd" points="41.0810576 52.7868852 54.7747435 52.7868852 54.7747435 47.5081967 41.0810576 47.5081967"></polygon>
                                    <polygon id="Fill-69" stroke="none" fill="#DD482A" fill-rule="evenodd" points="60.0415457 52.7868852 73.7352316 52.7868852 73.7352316 47.5081967 60.0415457 47.5081967"></polygon>
                                    <polygon id="Fill-72" stroke="none" fill="#DD482A" fill-rule="evenodd" points="57.9348248 173.140984 71.6285107 173.140984 71.6285107 167.862295 57.9348248 167.862295"></polygon>
                                    <polygon id="Fill-73" stroke="none" fill="#DD482A" fill-rule="evenodd" points="69.5217898 162.583607 83.2154757 162.583607 83.2154757 157.304918 69.5217898 157.304918"></polygon>
                                    <polygon id="Fill-74" stroke="none" fill="#DD482A" fill-rule="evenodd" points="49.5079412 162.583607 63.2016271 162.583607 63.2016271 157.304918 49.5079412 157.304918"></polygon>
                                    <polygon id="Fill-76" stroke="none" fill="#DD482A" fill-rule="evenodd" points="11.586965 103.462295 22.1205695 103.462295 22.1205695 98.1836066 11.586965 98.1836066"></polygon>
                                    <path d="M249.119747,84.4590164 C248.246636,84.4590164 247.539706,84.9500146 247.539706,85.5550708 L247.539706,93.920339 C247.539706,94.5260051 248.246636,95.0163934 249.119747,95.0163934 C249.992858,95.0163934 250.699788,94.5260051 250.699788,93.920339 L250.699788,85.5550708 C250.699788,84.9500146 249.992858,84.4590164 249.119747,84.4590164" id="Fill-77" stroke="none" fill="#F7F7F5" fill-rule="evenodd"></path>
                                    <path d="M249.119747,161.527869 C248.246636,161.527869 247.539706,162.018867 247.539706,162.623923 L247.539706,170.989191 C247.539706,171.594248 248.246636,172.085246 249.119747,172.085246 C249.992858,172.085246 250.699788,171.594248 250.699788,170.989191 L250.699788,162.623923 C250.699788,162.018867 249.992858,161.527869 249.119747,161.527869" id="Fill-78" stroke="none" fill="#F7F7F5" fill-rule="evenodd"></path>
                                    <polygon id="Fill-80" stroke="none" fill="#DD482A" fill-rule="evenodd" points="136.936859 52.7868852 145.363742 52.7868852 145.363742 47.5081967 136.936859 47.5081967"></polygon>
                                    <polygon id="Fill-81" stroke="none" fill="#DD482A" fill-rule="evenodd" points="117.976371 52.7868852 131.670056 52.7868852 131.670056 47.5081967 117.976371 47.5081967"></polygon>
                                    <polygon id="Fill-85" stroke="none" fill="#DD482A" fill-rule="evenodd" points="154.843986 88.6819672 163.27087 88.6819672 163.27087 83.4032787 154.843986 83.4032787"></polygon>
                                    <polygon id="Fill-86" stroke="none" fill="#DD482A" fill-rule="evenodd" points="158.004068 95.0163934 166.430951 95.0163934 166.430951 89.7377049 158.004068 89.7377049"></polygon>
                                    <path d="M32.654174,33.372765 C32.654174,41.9905291 39.7283634,48.9770492 48.4542663,48.9770492 C57.1807981,48.9770492 64.2549876,41.9905291 64.2549876,33.372765 L64.2549876,23.6393443 L32.654174,23.6393443 L32.654174,33.372765" id="Fill-87" stroke="none" fill="#DEDED9" fill-rule="evenodd"></path>
                                    <path d="M92.6957198,33.372765 C92.6957198,41.9905291 99.7699092,48.9770492 108.496441,48.9770492 C117.222973,48.9770492 124.296533,41.9905291 124.296533,33.372765 L124.296533,23.6393443 L92.6957198,23.6393443 L92.6957198,33.372765" id="Fill-88" stroke="none" fill="#DEDED9" fill-rule="evenodd"></path>
                                    <path d="M155.897347,33.372765 C155.897347,41.9905291 162.970907,48.9770492 171.697439,48.9770492 C180.423971,48.9770492 187.49816,41.9905291 187.49816,33.372765 L187.49816,23.6393443 L155.897347,23.6393443 L155.897347,33.372765" id="Fill-89" stroke="none" fill="#DEDED9" fill-rule="evenodd"></path>
                                    <path d="M218.045614,23.6393443 L218.045614,33.372765 C218.045614,41.9905291 225.119803,48.9770492 233.846335,48.9770492 C242.572867,48.9770492 249.646427,41.9905291 249.646427,33.372765 L249.646427,23.6393443 L218.045614,23.6393443" id="Fill-90" stroke="none" fill="#DEDED9" fill-rule="evenodd"></path>
                                    <polyline id="Fill-91" stroke="none" fill="#F0EFEC" fill-rule="evenodd" points="32.654174 24.2819672 63.7060947 24.2819672 67.4150689 13.7245902 37.8464907 13.7245902 32.654174 24.2819672"></polyline>
                                    <polyline id="Fill-92" stroke="none" fill="#F0EFEC" fill-rule="evenodd" points="92.6957198 24.2819672 123.558759 24.2819672 124.296533 13.7245902 94.9078136 13.7245902 92.6957198 24.2819672"></polyline>
                                    <polyline id="Fill-93" stroke="none" fill="#F0EFEC" fill-rule="evenodd" points="154.843986 13.7245902 155.581161 24.2819672 186.4448 24.2819672 184.232663 13.7245902 154.843986 13.7245902"></polyline>
                                    <polyline id="Fill-94" stroke="none" fill="#F0EFEC" fill-rule="evenodd" points="244.45411 13.7245902 214.885532 13.7245902 218.594506 24.2819672 249.646427 24.2819672 244.45411 13.7245902"></polyline>
                                    <path d="M0,33.372765 C0,41.9905291 7.07404861,48.9770492 15.8004068,48.9770492 C24.5267649,48.9770492 31.6008136,41.9905291 31.6008136,33.372765 L31.6008136,23.6393443 L0,23.6393443 L0,33.372765" id="Fill-95" stroke="none" fill="#CD434A" fill-rule="evenodd"></path>
                                    <path d="M63.2016271,33.372765 C63.2016271,41.9905291 70.2758165,48.9770492 79.0023484,48.9770492 C87.7282513,48.9770492 94.8024407,41.9905291 94.8024407,33.372765 L94.8024407,23.6393443 L63.2016271,23.6393443 L63.2016271,33.372765" id="Fill-96" stroke="none" fill="#CD434A" fill-rule="evenodd"></path>
                                    <path d="M124.296533,33.372765 C124.296533,41.9905291 131.370582,48.9770492 140.09694,48.9770492 C148.823298,48.9770492 155.897347,41.9905291 155.897347,33.372765 L155.897347,23.6393443 L124.296533,23.6393443 L124.296533,33.372765" id="Fill-97" stroke="none" fill="#CD434A" fill-rule="evenodd"></path>
                                    <path d="M186.4448,33.372765 C186.4448,41.9905291 193.518989,48.9770492 202.244892,48.9770492 C210.971424,48.9770492 218.045614,41.9905291 218.045614,33.372765 L218.045614,23.6393443 L186.4448,23.6393443 L186.4448,33.372765" id="Fill-98" stroke="none" fill="#CD434A" fill-rule="evenodd"></path>
                                    <path d="M247.539706,23.6393443 L247.539706,33.372765 C247.539706,41.9905291 254.613755,48.9770492 263.340113,48.9770492 C272.066471,48.9770492 279.14052,41.9905291 279.14052,33.372765 L279.14052,23.6393443 L247.539706,23.6393443" id="Fill-99" stroke="none" fill="#CD434A" fill-rule="evenodd"></path>
                                    <polyline id="Fill-100" stroke="none" fill="#CD434A" fill-rule="evenodd" points="0 24.2819672 31.5860845 24.2819672 36.8676158 13.7245902 6.79098931 13.7245902 0 24.2819672"></polyline>
                                    <polyline id="Fill-101" stroke="none" fill="#CD434A" fill-rule="evenodd" points="63.2016271 24.2819672 94.6547722 24.2819672 96.9091616 13.7245902 66.9585253 13.7245902 63.2016271 24.2819672"></polyline>
                                    <polyline id="Fill-102" stroke="none" fill="#CD434A" fill-rule="evenodd" points="125.051929 13.7245902 124.296533 24.2819672 155.897347 24.2819672 155.14258 13.7245902 125.051929 13.7245902"></polyline>
                                    <polyline id="Fill-103" stroke="none" fill="#CD434A" fill-rule="evenodd" points="184.338079 13.7245902 186.592468 24.2819672 218.045614 24.2819672 214.288715 13.7245902 184.338079 13.7245902"></polyline>
                                    <polyline id="Fill-104" stroke="none" fill="#CD434A" fill-rule="evenodd" points="274.456251 13.7245902 244.379625 13.7245902 249.661156 24.2819672 281.247241 24.2819672 274.456251 13.7245902"></polyline>
                                    <polygon id="Fill-105" stroke="none" fill="#DD482A" fill-rule="evenodd" points="10.5336045 71.7901639 18.9604881 71.7901639 18.9604881 66.5114754 10.5336045 66.5114754"></polygon>
                                    <polygon id="Fill-106" stroke="none" fill="#312420" fill-rule="evenodd" points="27.3873717 143.580328 154.843986 143.580328 154.843986 66.5114754 27.3873717 66.5114754"></polygon>
                                    <polygon id="Fill-107" stroke="none" fill="url(#linearGradient-5)" fill-rule="evenodd" points="33.7075345 141.468852 151.683905 141.468852 151.683905 72.8459016 33.7075345 72.8459016"></polygon>
                                    <polygon id="Fill-115" stroke="none" fill="#FDFCFC" fill-rule="evenodd" points="22.1205695 158.360656 161.164149 158.360656 161.164149 144.636066 22.1205695 144.636066"></polygon>
                                    <path d="M151.096823,138.301639 L29.0278139,138.301639 C25.7943164,138.301639 23.1739299,140.924955 23.1739299,144.161304 L23.1739299,146.747541 L156.950707,146.747541 L156.950707,144.161304 C156.950707,140.924955 154.329703,138.301639 151.096823,138.301639" id="Fill-116" stroke="none" fill="#31753B" fill-rule="evenodd"></path>
                                    <polygon id="Fill-117" stroke="none" fill="#F0EFEC" fill-rule="evenodd" points="22.1205695 147.803279 161.164149 147.803279 161.164149 144.636066 22.1205695 144.636066"></polygon>
                                    <path d="M156.935889,142.52459 L23.1887483,142.52459 C23.1838089,142.597431 23.1739299,142.668914 23.1739299,142.74266 L23.1739299,144.636066 L156.950707,144.636066 L156.950707,142.74266 C156.950707,142.668914 156.940828,142.597431 156.935889,142.52459" id="Fill-118" stroke="none" fill="#20542D" fill-rule="evenodd"></path>
                                    <polyline id="Fill-119" stroke="none" fill="#262725" fill-rule="evenodd" points="172.749268 188.980216 49.5091722 188.980216 49.5079412 188.977049 172.751114 188.977049 172.749268 188.980216"></polyline>
                                    <polygon id="Fill-125" stroke="none" fill="#DD482A" fill-rule="evenodd" points="69.5217898 164.695082 83.2154757 164.695082 83.2154757 160.472131 69.5217898 160.472131"></polygon>
                                    <polygon id="Fill-126" stroke="none" fill="#DD482A" fill-rule="evenodd" points="49.5079412 164.695082 63.2016271 164.695082 63.2016271 160.472131 49.5079412 160.472131"></polygon>
                                    <polyline id="Fill-128" stroke="none" fill="#964530" fill-rule="evenodd" points="161.168363 144.640289 161.168363 144.640289 161.164149 144.636066 161.167309 144.640289"></polyline>
                                    <polyline id="Fill-129" stroke="none" fill="#9A9B97" fill-rule="evenodd" points="160.115002 158.360656 160.115002 158.360656 160.110789 147.577091 160.110789 144.636066 160.115002 144.636066 160.115002 158.360656"></polyline>
                                    <polyline id="Fill-130" stroke="none" fill="#92938F" fill-rule="evenodd" points="161.164149 146.747541 161.164149 144.636066 161.164149 146.747541"></polyline>
                                    <g id="Group-8" stroke="none" stroke-width="1" fill="none" fill-rule="evenodd" transform="translate(68.468429, 80.236066)">
                                        <g id="Group-Copy-6" fill="#4A90E2">
                                            <path d="M24.002038,49.6196721 C36.8422,49.6196721 47.251208,43.2404905 47.251208,24.8098361 C47.251208,6.37918168 41.5430695,0 28.7029075,0 C15.8627455,0 5.01687279,6.37918168 0.752868017,24.8098361 C-3.51113676,43.2404905 11.161876,49.6196721 24.002038,49.6196721 Z" id="Oval-3"></path>
                                        </g>
                                        <g id="Group-Copy-7" transform="translate(10.405146, 11.539459)" fill="#FFFFFF">
                                            <path d="M14.5341721,6.07619165 L14.5341721,6.07619165 C15.8015934,6.07619165 16.8290414,7.10363962 16.8290414,8.37106093 L16.8290414,25.0479931 C16.8290414,26.3154144 15.8015934,27.3428624 14.5341721,27.3428624 L14.5341721,27.3428624 C13.2667508,27.3428624 12.2393028,26.3154144 12.2393028,25.0479931 L12.2393028,8.37106093 C12.2393028,7.10363962 13.2667508,6.07619165 14.5341721,6.07619165 Z" id="Rectangle-3"></path>
                                            <path d="M2.29486928,12.1523833 L2.29486928,12.1523833 C3.56229058,12.1523833 4.58973855,13.1798313 4.58973855,14.4472526 L4.58973855,25.0479931 C4.58973855,26.3154144 3.56229058,27.3428624 2.29486928,27.3428624 L2.29486928,27.3428624 C1.02744797,27.3428624 2.37566039e-15,26.3154144 2.22044605e-15,25.0479931 L-4.4408921e-16,14.4472526 C-5.99303554e-16,13.1798313 1.02744797,12.1523833 2.29486928,12.1523833 Z" id="Rectangle-3-Copy"></path>
                                            <path d="M25.243562,0 L25.243562,0 C26.5109834,-2.32821517e-16 27.5384313,1.02744797 27.5384313,2.29486928 L27.5384313,25.0479931 C27.5384313,26.3154144 26.5109834,27.3428624 25.243562,27.3428624 L25.243562,27.3428624 C23.9761407,27.3428624 22.9486928,26.3154144 22.9486928,25.0479931 L22.9486928,2.29486928 C22.9486928,1.02744797 23.9761407,2.32821517e-16 25.243562,0 Z" id="Rectangle-3-Copy-2"></path>
                                        </g>
                                    </g>
                                    <path d="" id="Path-14" stroke="#979797" stroke-width="1" fill="none"></path>
                                </g>
                            </g>
                            <g id="Combined-Shape-Copy-9" mask="url(#mask-2)">
                                <use fill="black" fill-opacity="1" filter="url(#filter-7)" xlink:href="#path-6"></use>
                                <use fill="#FFFFFF" fill-rule="evenodd" xlink:href="#path-6"></use>
                            </g>
                        </g>
                        <g id="Combined-Shape-Copy-8">
                            <use fill="black" fill-opacity="1" filter="url(#filter-9)" xlink:href="#path-8"></use>
                            <use fill="#FFFFFF" fill-rule="evenodd" xlink:href="#path-8"></use>
                        </g>
                    </g>
                </g>
            </g>
        </g>
    </g>
</svg>