<?xml version="1.0" encoding="UTF-8"?>
<svg width="591px" height="638px" viewBox="0 0 591 638" version="1.1" xmlns="http://www.w3.org/2000/svg" xmlns:xlink="http://www.w3.org/1999/xlink">
    <!-- Generator: sketchtool 52 (66869) - http://www.bohemiancoding.com/sketch -->
    <title>24F1836D-095C-4CB5-AFA2-A3F2F318148E</title>
    <desc>Created with sketchtool.</desc>
    <defs>
        <linearGradient x1="92.3111906%" y1="20.1347238%" x2="13.9073505%" y2="91.454191%" id="linearGradient-1">
            <stop stop-color="#4A90E2" offset="0%"></stop>
            <stop stop-color="#4A90E2" offset="100%"></stop>
        </linearGradient>
        <path d="M236.153729,502.996094 C364.416195,502.996094 559.442791,413.061828 472.153729,237 C384.864666,60.938172 415.134206,0 286.871739,0 C158.609273,0 50.268087,60.938172 7.67424985,237 C-34.9195872,413.061828 107.891262,502.996094 236.153729,502.996094 Z" id="path-2"></path>
        <path d="M191.436095,91.435645 C205.429508,93.8669906 216,104.975513 216,118.311765 C216,133.428123 202.419304,145.682353 185.666667,145.682353 C182.163953,145.682353 178.799904,145.146644 175.669661,144.161073 C165.966859,150.860238 152.596221,155 137.833333,155 C123.654193,155 110.759375,151.18115 101.165063,144.943655 C98.6879492,145.428102 96.1246457,145.682353 93.5,145.682353 C72.2370371,145.682353 55,128.995742 55,108.411765 C55,87.8277872 72.2370371,71.1411765 93.5,71.1411765 C93.8777719,71.1411765 94.254273,71.1464437 94.6294292,71.1569063 C104.4027,61.9629815 120.115307,56 137.833333,56 C166.586714,56 190.058657,71.7040115 191.436095,91.435645 Z" id="path-4"></path>
        <filter x="-34.8%" y="-55.6%" width="180.7%" height="231.3%" filterUnits="objectBoundingBox" id="filter-5">
            <feOffset dx="9" dy="10" in="SourceAlpha" result="shadowOffsetOuter1"></feOffset>
            <feGaussianBlur stdDeviation="20" in="shadowOffsetOuter1" result="shadowBlurOuter1"></feGaussianBlur>
            <feColorMatrix values="0 0 0 0 0   0 0 0 0 0   0 0 0 0 0  0 0 0 0.23644135 0" type="matrix" in="shadowBlurOuter1"></feColorMatrix>
        </filter>
        <path d="M525.953449,368.756861 C543.122075,372.076276 556,385.922755 556,402.5 C556,421.553824 538.98682,437 518,437 C513.539554,437 509.258602,436.302275 505.282332,435.020481 C493.149319,443.05842 476.662362,448 458.5,448 C440.420486,448 424.001128,443.103399 411.883981,435.130282 C408.847944,435.700937 405.710399,436 402.5,436 C375.71419,436 354,415.181241 354,389.5 C354,363.818759 375.71419,343 402.5,343 C403.015002,343 403.52813,343.007696 404.039264,343.022975 C416.322853,331.488374 436.141989,324 458.5,324 C494.93203,324 524.622788,343.883276 525.953449,368.756861 Z" id="path-6"></path>
        <filter x="-27.7%" y="-44.4%" width="164.4%" height="204.8%" filterUnits="objectBoundingBox" id="filter-7">
            <feOffset dx="9" dy="10" in="SourceAlpha" result="shadowOffsetOuter1"></feOffset>
            <feGaussianBlur stdDeviation="20" in="shadowOffsetOuter1" result="shadowBlurOuter1"></feGaussianBlur>
            <feColorMatrix values="0 0 0 0 0   0 0 0 0 0   0 0 0 0 0  0 0 0 0.23644135 0" type="matrix" in="shadowBlurOuter1"></feColorMatrix>
        </filter>
        <path d="M178.436095,525.435645 C192.429508,527.866991 203,538.975513 203,552.311765 C203,567.428123 189.419304,579.682353 172.666667,579.682353 C169.163953,579.682353 165.799904,579.146644 162.669661,578.161073 C152.966859,584.860238 139.596221,589 124.833333,589 C110.654193,589 97.7593754,585.18115 88.1650631,578.943655 C85.6879492,579.428102 83.1246457,579.682353 80.5,579.682353 C59.2370371,579.682353 42,562.995742 42,542.411765 C42,521.827787 59.2370371,505.141176 80.5,505.141176 C80.8777719,505.141176 81.254273,505.146444 81.6294292,505.156906 C91.4026996,495.962981 107.115307,490 124.833333,490 C153.586714,490 177.058657,505.704012 178.436095,525.435645 Z" id="path-8"></path>
        <filter x="-34.8%" y="-55.6%" width="180.7%" height="231.3%" filterUnits="objectBoundingBox" id="filter-9">
            <feOffset dx="9" dy="10" in="SourceAlpha" result="shadowOffsetOuter1"></feOffset>
            <feGaussianBlur stdDeviation="20" in="shadowOffsetOuter1" result="shadowBlurOuter1"></feGaussianBlur>
            <feColorMatrix values="0 0 0 0 0   0 0 0 0 0   0 0 0 0 0  0 0 0 0.23644135 0" type="matrix" in="shadowBlurOuter1"></feColorMatrix>
        </filter>
        <linearGradient x1="0%" y1="0%" x2="13.4735941%" y2="21.0941752%" id="linearGradient-10">
            <stop stop-color="#FFFFFF" offset="0%"></stop>
            <stop stop-color="#D0ECF4" offset="100%"></stop>
        </linearGradient>
        <rect id="path-11" x="0" y="0" width="217" height="87" rx="2"></rect>
        <linearGradient x1="0%" y1="0%" x2="118.015173%" y2="123.176612%" id="linearGradient-13">
            <stop stop-color="#4A90E2" offset="0%"></stop>
            <stop stop-color="#D0ECF4" offset="100%"></stop>
        </linearGradient>
        <filter x="-15.9%" y="-29.7%" width="131.9%" height="159.3%" filterUnits="objectBoundingBox" id="filter-14">
            <feOffset dx="0" dy="3" in="SourceAlpha" result="shadowOffsetOuter1"></feOffset>
            <feGaussianBlur stdDeviation="5" in="shadowOffsetOuter1" result="shadowBlurOuter1"></feGaussianBlur>
            <feColorMatrix values="0 0 0 0 0   0 0 0 0 0   0 0 0 0 0  0 0 0 0.213315217 0" type="matrix" in="shadowBlurOuter1" result="shadowMatrixOuter1"></feColorMatrix>
            <feMerge>
                <feMergeNode in="shadowMatrixOuter1"></feMergeNode>
                <feMergeNode in="SourceGraphic"></feMergeNode>
            </feMerge>
        </filter>
    </defs>
    <g id="Page-1" stroke="none" stroke-width="1" fill="none" fill-rule="evenodd">
        <g id="1" transform="translate(-1060.000000, -131.000000)">
            <g id="Group-18" transform="translate(0.000000, -43.000000)">
                <g id="1" transform="translate(408.000000, 174.000000)">
                    <g id="illustr_1st" transform="translate(652.000000, 0.000000)">
                        <g id="bg" transform="translate(12.000000, 71.000000)">
                            <mask id="mask-3" fill="white">
                                <use xlink:href="#path-2"></use>
                            </mask>
                            <use id="Mask" fill="url(#linearGradient-1)" xlink:href="#path-2"></use>
                            <path d="M65.2977883,71.763412 L459.76408,482.912235 C600.725517,380.449794 671.206236,326.669929 671.206236,321.572642 C671.206236,316.475354 622.664741,191.093441 525.581752,-54.5730973 L294.219499,-99.1899371 L4.35020674,-26.292496 L65.2977883,71.763412 Z" id="Path-13" fill="#FFFFFF" opacity="0.0516183036" mask="url(#mask-3)"></path>
                        </g>
                        <g id="Combined-Shape-Copy">
                            <use fill="black" fill-opacity="1" filter="url(#filter-5)" xlink:href="#path-4"></use>
                            <use fill="#FFFFFF" fill-rule="evenodd" xlink:href="#path-4"></use>
                        </g>
                        <g id="Combined-Shape-Copy-3">
                            <use fill="black" fill-opacity="1" filter="url(#filter-7)" xlink:href="#path-6"></use>
                            <use fill="#FFFFFF" fill-rule="evenodd" xlink:href="#path-6"></use>
                        </g>
                        <g id="Combined-Shape-Copy-2">
                            <use fill="black" fill-opacity="1" filter="url(#filter-9)" xlink:href="#path-8"></use>
                            <use fill="#FFFFFF" fill-rule="evenodd" xlink:href="#path-8"></use>
                        </g>
                        <g id="like" transform="translate(164.000000, 341.000000)"></g>
                        <g id="Group-3" transform="translate(141.000000, 0.000000)">
                            <path d="M17,110 L215,110 C224.388841,110 232,117.611159 232,127 L232,527 C232,536.388841 224.388841,544 215,544 L17,544 C7.61115925,544 1.14980138e-15,536.388841 0,527 L0,127 C-1.14980138e-15,117.611159 7.61115925,110 17,110 Z" id="Rectangle-8" fill="#726F6F"></path>
                            <path d="M10,140 L223,140 C224.104569,140 225,140.895431 225,142 L225,388 C225,389.104569 224.104569,390 223,390 L10,390 C8.8954305,390 8,389.104569 8,388 L8,142 C8,140.895431 8.8954305,140 10,140 Z" id="Rectangle-9" fill="#FFFFFF"></path>
                            <circle id="Oval-10" fill="url(#linearGradient-10)" cx="42.5" cy="171.5" r="16.5"></circle>
                            <g id="Rectangle-14-Copy" transform="translate(8.000000, 403.000000)">
                                <mask id="mask-12" fill="white">
                                    <use xlink:href="#path-11"></use>
                                </mask>
                                <use id="Mask" fill="#FFFFFF" xlink:href="#path-11"></use>
                                <path d="M20,58 L194.666667,58 C197.980375,58 200.666667,60.6862915 200.666667,64 L200.666667,185.4 C200.666667,188.713708 197.980375,191.4 194.666667,191.4 L20,191.4 C16.6862915,191.4 14,188.713708 14,185.4 L14,64 C14,60.6862915 16.6862915,58 20,58 Z" fill="url(#linearGradient-13)" mask="url(#mask-12)"></path>
                            </g>
                            <circle id="Oval-10-Copy" fill="url(#linearGradient-10)" cx="42.5" cy="439.5" r="16.5"></circle>
                            <path d="M64,162 L135,162 C136.104569,162 137,162.895431 137,164 L137,165 C137,166.104569 136.104569,167 135,167 L64,167 C62.8954305,167 62,166.104569 62,165 L62,164 C62,162.895431 62.8954305,162 64,162 Z" id="Rectangle-13" fill="url(#linearGradient-10)"></path>
                            <path d="M64,430 L135,430 C136.104569,430 137,430.895431 137,432 L137,433 C137,434.104569 136.104569,435 135,435 L64,435 C62.8954305,435 62,434.104569 62,433 L62,432 C62,430.895431 62.8954305,430 64,430 Z" id="Rectangle-13-Copy-4" fill="url(#linearGradient-10)"></path>
                            <path d="M104,348 L205,348 C206.104569,348 207,348.895431 207,350 L207,351 C207,352.104569 206.104569,353 205,353 L104,353 C102.895431,353 102,352.104569 102,351 L102,350 C102,348.895431 102.895431,348 104,348 Z" id="Rectangle-13-Copy-2" fill="url(#linearGradient-10)"></path>
                            <path d="M104,359 L122,359 C123.104569,359 124,359.895431 124,361 L124,362 C124,363.104569 123.104569,364 122,364 L104,364 C102.895431,364 102,363.104569 102,362 L102,361 C102,359.895431 102.895431,359 104,359 Z" id="Rectangle-13-Copy-3" fill="url(#linearGradient-10)"></path>
                            <path d="M64,179 L204,179 C205.104569,179 206,179.895431 206,181 L206,182 C206,183.104569 205.104569,184 204,184 L64,184 C62.8954305,184 62,183.104569 62,182 L62,181 C62,179.895431 62.8954305,179 64,179 Z" id="Rectangle-13-Copy" fill="url(#linearGradient-10)"></path>
                            <path d="M64,447 L204,447 C205.104569,447 206,447.895431 206,449 L206,450 C206,451.104569 205.104569,452 204,452 L64,452 C62.8954305,452 62,451.104569 62,450 L62,449 C62,447.895431 62.8954305,447 64,447 Z" id="Rectangle-13-Copy-5" fill="url(#linearGradient-10)"></path>
                            <path d="M28,195 L202,195 C205.313708,195 208,197.686292 208,201 L208,323 C208,326.313708 205.313708,329 202,329 L28,329 C24.6862915,329 22,326.313708 22,323 L22,201 C22,197.686292 24.6862915,195 28,195 Z" id="Rectangle-14" fill="url(#linearGradient-13)"></path>
                            <path d="M42.4192684,345.239652 C43.5090101,342.744174 45.9984597,341.000522 48.8939973,341.000522 C52.794495,341.000522 55.6036309,344.224348 55.956798,348.066435 C55.956798,348.066435 56.1474218,349.020174 55.7278334,350.737217 C55.156502,353.075652 53.8134953,355.153217 52.0028392,356.738783 L42.4192684,365 L32.9971608,356.738261 C31.1865047,355.153217 29.843498,353.07513 29.2721666,350.736696 C28.8525782,349.019652 29.043202,348.065913 29.043202,348.065913 C29.3963691,344.223826 32.205505,341 36.1060027,341 C39.0020803,341 41.3295267,342.744174 42.4192684,345.239652 Z" id="Shape" fill="#CD434A" fill-rule="nonzero"></path>
                            <circle id="Oval-12" fill="#656262" cx="117" cy="515" r="15"></circle>
                            <path d="M79.9029076,365.385497 C76.695896,366.461832 73.8029579,367 71.2240934,367 C68.4462367,367 68.2505205,364.994396 70.6369448,360.983187 C68.9820381,359.101867 68,356.756063 68,354.21243 C68,348.019976 73.8202983,343 81,343 C88.1797017,343 94,348.019976 94,354.21243 C94,360.404885 88.1797017,365.424861 81,365.424861 C80.6304993,365.424861 80.2645992,365.411565 79.9029076,365.385497 Z" id="Combined-Shape" fill="url(#linearGradient-10)"></path>
                            <g id="Group-8" transform="translate(160.000000, 281.000000)">
                                <g id="Group-Copy-6" fill="#4A90E2">
                                    <path d="M16.7098494,34 C25.6489726,34 32.8955637,29.6289075 32.8955637,17 C32.8955637,4.37109251 28.9216456,0 19.9825224,0 C11.0433992,0 3.49266962,4.37109251 0.524135126,17 C-2.44439937,29.6289075 7.77072625,34 16.7098494,34 Z" id="Oval-3"></path>
                                </g>
                                <g id="Group-Copy-7" transform="translate(7.071429, 8.206897)" fill="#FFFFFF">
                                    <path d="M9.95238095,4.16858238 L9.95238095,4.16858238 C10.820257,4.16858238 11.5238095,4.87213491 11.5238095,5.74001095 L11.5238095,17.1871921 C11.5238095,18.0550682 10.820257,18.7586207 9.95238095,18.7586207 L9.95238095,18.7586207 C9.08450492,18.7586207 8.38095238,18.0550682 8.38095238,17.1871921 L8.38095238,5.74001095 C8.38095238,4.87213491 9.08450492,4.16858238 9.95238095,4.16858238 Z" id="Rectangle-3"></path>
                                    <path d="M1.57142857,8.33716475 L1.57142857,8.33716475 C2.43930461,8.33716475 3.14285714,9.04071729 3.14285714,9.90859332 L3.14285714,17.1871921 C3.14285714,18.0550682 2.43930461,18.7586207 1.57142857,18.7586207 L1.57142857,18.7586207 C0.703552536,18.7586207 -7.81894259e-16,18.0550682 -8.8817842e-16,17.1871921 L0,9.90859332 C-1.06284161e-16,9.04071729 0.703552536,8.33716475 1.57142857,8.33716475 Z" id="Rectangle-3-Copy"></path>
                                    <path d="M17.2857143,0 L17.2857143,0 C18.1535903,-1.59426241e-16 18.8571429,0.703552536 18.8571429,1.57142857 L18.8571429,17.1871921 C18.8571429,18.0550682 18.1535903,18.7586207 17.2857143,18.7586207 L17.2857143,18.7586207 C16.4178383,18.7586207 15.7142857,18.0550682 15.7142857,17.1871921 L15.7142857,1.57142857 C15.7142857,0.703552536 16.4178383,1.59426241e-16 17.2857143,0 Z" id="Rectangle-3-Copy-2"></path>
                                </g>
                            </g>
                            <g id="Group-3-Copy" filter="url(#filter-14)" transform="translate(37.000000, 219.000000)">
                                <polyline id="Path-3" stroke="#F95A95" stroke-width="3" points="6.29037513 81.7601657 61.824896 60.3941174 108.229993 5.39078015 154.563503 5.39078015"></polyline>
                                <ellipse id="Oval-7" fill="#F1B464" cx="63.3530638" cy="58.84935" rx="4.94243761" ry="4.94154847"></ellipse>
                                <ellipse id="Oval-7-Copy-2" fill="#F1B464" cx="154.114191" cy="4.94154847" rx="4.94243761" ry="4.94154847"></ellipse>
                                <ellipse id="Oval-7-Copy-3" fill="#F1B464" cx="108.284315" cy="4.94154847" rx="4.94243761" ry="4.94154847"></ellipse>
                                <ellipse id="Oval-7-Copy" fill="#F1B464" cx="4.94243761" cy="80.4124706" rx="4.94243761" ry="4.94154847"></ellipse>
                            </g>
                            <g id="girl" transform="translate(124.000000, 0.000000)">
                                <path d="M20.0991117,128.17421 C22.636256,120.588902 33.0083848,111.864165 51.2154979,102 L91.6444449,102 C92.0481715,111.053041 91.4122526,116.860625 89.7366881,119.422754 C88.0611236,121.984882 83.894103,123.521538 77.2356262,124.032721 C68.5604398,129.282306 63.6013409,133.722457 62.3583295,137.353174 C61.1153182,140.983891 60.0644789,153.07214 59.2058119,173.61792 L52.7206842,177.145311 C51.8736885,159.138563 51.8736885,145.874517 52.7206842,137.353174 C53.5676798,128.831831 55.4222949,123.437208 58.2845295,121.169304 L55.6532674,118.150025 C41.4375984,126.469843 33.1930195,132.870892 30.9195306,137.353174 C28.6460418,141.835456 27.0728611,154.04025 26.1999885,173.967556 L19.3874918,176.509993 C17.3247607,151.871445 17.5619673,135.759517 20.0991117,128.17421 Z" id="Path-6" fill="#339FCB"></path>
                                <path d="M13.3253573,186.53041 C18.8967548,184.772096 23.1956625,182.885733 26.2220806,180.871322 C29.2484988,178.856912 29.9783514,177.396086 28.4116386,176.488847 L26.2220806,173 C19.3914082,175.656164 15.0925004,177.911233 13.3253573,179.765205 C11.5582142,181.619178 11.5582142,183.874246 13.3253573,186.53041 Z" id="Path-7" fill="#184A6B"></path>
                                <path d="M46.3253573,186.53041 C51.8967548,184.772096 56.1956625,182.885733 59.2220806,180.871322 C62.2484988,178.856912 62.9783514,177.396086 61.4116386,176.488847 L59.2220806,173 C52.3914082,175.656164 48.0925004,177.911233 46.3253573,179.765205 C44.5582142,181.619178 44.5582142,183.874246 46.3253573,186.53041 Z" id="Path-7-Copy" fill="#184A6B"></path>
                                <path d="M62.6827945,40.3650063 L65.6954558,39.6777985 L65.6673876,35.6526602 C65.0550719,35.25083 64.5576397,34.8889721 64.175091,34.5670867 C63.7925423,34.2452012 63.2951101,33.7699569 62.6827945,33.1413537 C57.93542,32.335794 55.2456317,30.9890237 54.6134297,29.1010428 C54.0681987,27.4727884 53.5612442,23.0896691 54.6134297,16.2860869 C54.7253207,15.5625836 55.166957,14.4672213 55.9383385,13 L69.3714545,20.2657075 C72.2072585,17.8495151 74.2599616,17.8495151 75.5295638,20.2657075 C76.799166,22.6818999 76.0547308,24.9392697 73.2962581,27.0378168 C73.3109412,35.4644713 73.6868296,39.6777985 74.4239233,39.6777985 C75.161017,39.6777985 76.1500131,40.0346597 77.3909116,40.7483819 C74.5993239,47.2315157 72.385516,50.4730825 70.7494878,50.4730825 C69.8447324,50.4730825 66.5270414,49.6690906 65.3907731,47.7794662 C64.7785103,46.7612677 63.8758508,44.289781 62.6827945,40.3650063 Z" id="Path-11" fill="#FFAA81"></path>
                                <path d="M49.9058318,101.973134 L91.7493099,101.973134 L90.6069922,80.0977126 L103.139421,77.8430733 C104.245978,61.5842509 103.018833,50.9511283 99.4579847,45.9437055 C95.897137,40.9362827 88.2520176,39.092831 76.5226266,40.4133504 C74.5230187,46.5678551 72.0503073,49.6451074 69.1044924,49.6451074 C66.1586775,49.6451074 64.0948957,46.5678551 62.9131472,40.4133504 C50.6493578,40.3994759 43.3965305,41.6881808 41.1546652,44.279465 C38.9127999,46.8707493 36.5279115,56.7219023 34,73.8329241 L42.7618622,80.0977126 L49.9058318,64.7095495 L49.9058318,101.973134 Z" id="Path-8" fill="#CD434A"></path>
                                <path d="M91.9179656,79.7832642 L103.211777,77.784967 C103.322231,80.9605058 102.691094,83.6820717 101.318364,85.9496648 C99.9456341,88.2172578 94.8771355,94.77626 86.112868,105.626671 C86.829953,107.614339 86.829953,108.908313 86.112868,109.508592 C85.6859009,109.86601 81.9160678,116.789637 79.4346556,117.212756 C78.7258914,117.333612 76.1882619,116.816663 75.2692434,115.29408 C74.9102522,114.699322 74.9102522,113.463765 75.2692434,111.587409 L91.9179656,85.9496648 L91.9179656,79.7832642 Z" id="Path-9" fill="#FAAC86"></path>
                                <rect id="Rectangle-15" fill="#726F6F" transform="translate(14.911877, 57.986567) rotate(-35.000000) translate(-14.911877, -57.986567) " x="6.41187653" y="44.9865668" width="17" height="26" rx="1"></rect>
                                <rect id="Rectangle-15-Copy" fill="url(#linearGradient-13)" transform="translate(14.389097, 57.338594) rotate(-35.000000) translate(-14.389097, -57.338594) " x="7.08586949" y="46.1689522" width="14.6064543" height="22.3392831" rx="1"></rect>
                                <circle id="Oval-14" fill="#656262" cx="21.5" cy="67.5" r="1"></circle>
                                <path d="M22.0171018,68.7988746 C25.5362697,71.4174147 28.1878242,73.1101009 29.9717651,73.8769333 C31.755706,74.6437657 33.1846359,74.6437657 34.2585548,73.8769333 L42.8237531,79.7101007 C41.2542885,83.6405317 39.5794233,85.9525395 37.7991576,86.6461243 C36.0188918,87.339709 33.6554709,86.601002 30.708895,84.4300033 C21.307619,78.4681565 14.5479137,73.5935418 10.429779,69.8061593 C6.3116443,66.0187769 4.16838463,62.7054772 4,59.8662604 C5.81743373,55.4251867 7.96069339,54.8101232 10.429779,58.02107 C14.1334074,62.8374901 14.7314383,65.3644548 14.0231691,66.3040825 C13.5509896,66.930501 12.8485555,67.7620984 11.915867,68.7988746 L15.9913722,72.4779005 L22.0171018,68.7988746 Z" id="Path-10" fill="#FFA981"></path>
                                <path d="M54.1066973,27.7805222 C54.1066973,18.4102726 55.0538617,13.9785286 56.9481904,14.48529 C58.8425192,14.9920515 62.9668266,17.1310926 69.3211128,20.9024135 C72.0922963,19.112822 73.8352579,19.112822 74.5499976,20.9024135 C75.622107,23.5868007 75.4790247,26.4499866 73.5370019,26.4499866 C72.24232,26.4499866 72.24232,28.2936448 73.5370019,31.980961 C78.4546435,28.3515632 81.2296336,25.9478257 81.8619722,24.7697486 C82.81048,23.0026329 84.5214216,36.4312901 89.8416641,37.2938143 C95.1619065,38.1563384 103.527182,41.7260061 105.418823,39.9411723 C107.310465,38.1563384 116.005568,34.049778 111.658017,20.9024135 C108.759649,12.1375038 106.679918,11.8164361 105.418823,19.9392103 C99.8025641,21.4882607 95.653402,20.6953744 92.971337,17.5605514 C90.289272,14.4257284 86.5861504,12.9362396 81.8619722,13.0920851 C78.9381055,8.09005742 76.5007806,4.95769751 74.5499976,3.6950054 C66.0768343,-1.78945707 56.4455649,-1.61293915 52.8491854,7.24519243 C51.8393094,9.73258697 53.4009722,11.0466257 52.8491854,13.0920851 C52.2624792,15.26699 49.9456358,17.8611188 50.0009748,19.9392103 C50.0517742,21.8468276 51.4203483,24.4605982 54.1066973,27.7805222 Z" id="Path-12" fill="#F95A95"></path>
                                <g id="logo" transform="translate(9.000000, 50.000000)">
                                    <g id="Group-Copy-8" transform="translate(5.500000, 5.500000) rotate(-35.000000) translate(-5.500000, -5.500000) translate(2.000000, 2.000000)" fill="#4A90E2">
                                        <path d="M3.55576658,7 C5.45796417,7 7,6.10006919 7,3.5 C7,0.899930811 6.15437148,0 4.25217389,0 C2.34997629,0 0.743221413,0.899930811 0.111533151,3.5 C-0.520155111,6.10006919 1.65356898,7 3.55576658,7 Z" id="Oval-3"></path>
                                    </g>
                                    <g id="Group-Copy-9" transform="translate(5.498669, 5.375881) rotate(-35.000000) translate(-5.498669, -5.375881) translate(3.498669, 3.875881)" fill="#FFFFFF">
                                        <path d="M1.58333333,0.666666667 L1.58333333,0.666666667 C1.72140452,0.666666667 1.83333333,0.778595479 1.83333333,0.916666667 L1.83333333,2.75 C1.83333333,2.88807119 1.72140452,3 1.58333333,3 L1.58333333,3 C1.44526215,3 1.33333333,2.88807119 1.33333333,2.75 L1.33333333,0.916666667 C1.33333333,0.778595479 1.44526215,0.666666667 1.58333333,0.666666667 Z" id="Rectangle-3"></path>
                                        <path d="M0.25,1.33333333 L0.25,1.33333333 C0.388071187,1.33333333 0.5,1.44526215 0.5,1.58333333 L0.5,2.75 C0.5,2.88807119 0.388071187,3 0.25,3 L0.25,3 C0.111928813,3 -1.4962461e-16,2.88807119 -1.66533454e-16,2.75 L0,1.58333333 C-1.69088438e-17,1.44526215 0.111928813,1.33333333 0.25,1.33333333 Z" id="Rectangle-3-Copy"></path>
                                        <path d="M2.75,0 L2.75,0 C2.88807119,-2.53632657e-17 3,0.111928813 3,0.25 L3,2.75 C3,2.88807119 2.88807119,3 2.75,3 L2.75,3 C2.61192881,3 2.5,2.88807119 2.5,2.75 L2.5,0.25 C2.5,0.111928813 2.61192881,2.53632657e-17 2.75,0 Z" id="Rectangle-3-Copy-2"></path>
                                    </g>
                                </g>
                            </g>
                        </g>
                    </g>
                </g>
            </g>
        </g>
    </g>
</svg>