<?xml version="1.0" encoding="UTF-8"?>
<svg width="554px" height="462px" viewBox="0 0 554 462" version="1.1" xmlns="http://www.w3.org/2000/svg" xmlns:xlink="http://www.w3.org/1999/xlink">
    <!-- Generator: sketchtool 52 (66869) - http://www.bohemiancoding.com/sketch -->
    <title>596A0B65-7FCF-4A05-A60C-1153C6192029</title>
    <desc>Created with sketchtool.</desc>
    <defs>
        <path d="M214.91539,392 C325.344583,392 487.598561,355.92156 414.865131,192.217574 C342.131701,28.5135892 375.865227,0 265.436034,0 C155.006841,0 78.6119539,28.5135892 14.9656485,192.217574 C-48.6806568,355.92156 104.486197,392 214.91539,392 Z" id="path-1"></path>
        <polygon id="path-3" points="0.0344578697 0.0459402254 315.420448 0.0459402254 315.420448 432.311303 0.0344578697 432.311303"></polygon>
        <polygon id="path-5" points="0.0345419454 0.367452046 250.342174 0.367452046 250.342174 202.734666 0.0345419454 202.734666"></polygon>
        <polygon id="path-7" points="0.0343454125 0.257628866 186.537949 0.257628866 186.537949 247.166844 0.0343454125 247.166844"></polygon>
        <polygon id="path-9" points="0.0344426125 0.0460349619 444.000866 0.0460349619 444.000866 105.832076 0.0344426125 105.832076"></polygon>
        <path d="M214.91539,392 C104.486197,392 -48.6806568,355.92156 14.9656485,192.217574 C78.6119539,28.5135892 155.006841,0 265.436034,0 C375.865227,0 342.131701,28.5135892 414.865131,192.217574 C487.598561,355.92156 325.344583,392 214.91539,392 Z M216.096082,303.901031 C252.457748,303.901031 281.934701,274.409058 281.934701,238.028866 C281.934701,201.648674 252.457748,172.156701 216.096082,172.156701 C179.734417,172.156701 150.257463,201.648674 150.257463,238.028866 C150.257463,274.409058 179.734417,303.901031 216.096082,303.901031 Z" id="path-11"></path>
        <path d="M490.064637,398.339635 C499.712269,400.00965 507,407.639746 507,416.8 C507,427.182953 497.636912,435.6 486.086957,435.6 C483.672041,435.6 481.352727,435.232038 479.194609,434.55508 C472.505102,439.156527 463.286835,442 453.108696,442 C443.333015,442 434.442799,439.376952 427.828087,435.092612 C426.120263,435.425363 424.353017,435.6 422.543478,435.6 C407.88392,435.6 396,424.13849 396,410 C396,395.86151 407.88392,384.4 422.543478,384.4 C422.80393,384.4 423.063505,384.403618 423.322153,384.410804 C430.060246,378.095785 440.893162,374 453.108696,374 C472.932455,374 489.114974,384.786594 490.064637,398.339635 Z" id="path-13"></path>
        <filter x="-50.5%" y="-80.9%" width="217.1%" height="291.2%" filterUnits="objectBoundingBox" id="filter-14">
            <feOffset dx="9" dy="10" in="SourceAlpha" result="shadowOffsetOuter1"></feOffset>
            <feGaussianBlur stdDeviation="20" in="shadowOffsetOuter1" result="shadowBlurOuter1"></feGaussianBlur>
            <feColorMatrix values="0 0 0 0 0   0 0 0 0 0   0 0 0 0 0  0 0 0 0.23644135 0" type="matrix" in="shadowBlurOuter1"></feColorMatrix>
        </filter>
        <path d="M288.049884,83.0524039 C298.261884,84.7230725 306,92.6940658 306,102.275281 C306,113.069655 296.178247,121.820225 284.0625,121.820225 C281.658529,121.820225 279.344871,121.475721 277.18033,120.839103 C270.088289,125.870882 260.139914,129 249.125,129 C239.012928,129 229.799722,126.362819 222.87016,122.037375 C220.986763,122.41783 219.033522,122.617978 217.03125,122.617978 C201.550018,122.617978 189,110.652913 189,95.8932584 C189,81.1336036 201.550018,69.1685393 217.03125,69.1685393 C217.156697,69.1685393 217.281951,69.169325 217.407008,69.1708914 C224.483355,62.4069101 236.053145,58 249.125,58 C269.844471,58 286.790205,69.07177 288.049884,83.0524039 Z" id="path-15"></path>
        <filter x="-47.9%" y="-77.5%" width="211.1%" height="283.1%" filterUnits="objectBoundingBox" id="filter-16">
            <feOffset dx="9" dy="10" in="SourceAlpha" result="shadowOffsetOuter1"></feOffset>
            <feGaussianBlur stdDeviation="20" in="shadowOffsetOuter1" result="shadowBlurOuter1"></feGaussianBlur>
            <feColorMatrix values="0 0 0 0 0   0 0 0 0 0   0 0 0 0 0  0 0 0 0.23644135 0" type="matrix" in="shadowBlurOuter1"></feColorMatrix>
        </filter>
        <path d="M206.257722,197.461118 C193.189919,209.371634 173.092113,217 150.551724,217 C127.96436,217 107.82977,209.339805 94.7641157,197.386596 C91.1903124,198.084848 87.4893339,198.451613 83.6982759,198.451613 C53.4892523,198.451613 29,175.163199 29,146.435484 C29,117.707769 53.4892523,94.4193548 83.6982759,94.4193548 C85.0121989,94.4193548 86.3153014,94.463411 87.6060391,94.5500546 C99.6071237,78.1559912 123.293365,67 150.551724,67 C187.888748,67 218.523751,87.9309112 221.606856,114.584143 C245.070692,114.879938 264,133.901292 264,157.322581 C264,180.9283 244.771402,200.064516 221.051724,200.064516 C215.852922,200.064516 210.869865,199.145242 206.257722,197.461118 Z" id="path-17"></path>
        <filter x="-23.8%" y="-36.7%" width="155.3%" height="186.7%" filterUnits="objectBoundingBox" id="filter-18">
            <feOffset dx="9" dy="10" in="SourceAlpha" result="shadowOffsetOuter1"></feOffset>
            <feGaussianBlur stdDeviation="20" in="shadowOffsetOuter1" result="shadowBlurOuter1"></feGaussianBlur>
            <feColorMatrix values="0 0 0 0 0   0 0 0 0 0   0 0 0 0 0  0 0 0 0.23644135 0" type="matrix" in="shadowBlurOuter1"></feColorMatrix>
        </filter>
    </defs>
    <g id="Page-1" stroke="none" stroke-width="1" fill="none" fill-rule="evenodd">
        <g id="3" transform="translate(-1008.000000, -1714.000000)">
            <g id="4-copy" transform="translate(407.000000, 1685.000000)">
                <g id="impression" transform="translate(601.000000, 0.000000)">
                    <g id="illustration-copy-3" transform="translate(64.000000, 65.000000)">
                        <mask id="mask-2" fill="white">
                            <use xlink:href="#path-1"></use>
                        </mask>
                        <use id="Oval" fill="#4A90E2" xlink:href="#path-1"></use>
                        <g id="Group" mask="url(#mask-2)">
                            <g id="Group-4" fill="#A29EA2">
                                <polygon id="Fill-3" points="0.0344743937 459.318635 459.612616 459.318635 459.612616 0.0459318635 0.0344743937 0.0459318635"></polygon>
                            </g>
                            <polyline id="Fill-5" fill="#FFFFFF" points="394.541701 0 308.593284 214.392778 323.538692 220.651546 411.996269 0 394.541701 0"></polyline>
                            <g id="Group-11" fill="#FFFFFF">
                                <path d="M336.617173,203.20199 C341.19882,226.862067 350.266734,269.486262 378.795444,315.042633 C396.742814,343.702967 422.433706,373.614945 459.612616,400.892731 L459.612616,422.008182 C414.937249,391.432489 384.811801,357.068566 364.244952,324.224412 C334.037914,275.988492 324.515512,231.260617 319.709781,206.443057 L336.617173,203.20199" id="Fill-6"></path>
                                <polyline id="Fill-8" points="459.612616 79.5367632 0 449.871599 0 459.318635 13.9092687 459.318635 459.612616 100.191748 459.612616 79.5367632"></polyline>
                                <polyline id="Fill-9" points="323.211805 459.318635 323.21123 0.0459318635 307.14961 0.0459318635 307.14961 459.318635 323.211805 459.318635"></polyline>
                                <polyline id="Fill-10" points="459.612616 198.191972 0 198.191972 0 214.289942 459.612616 214.289368 459.612616 198.191972"></polyline>
                            </g>
                            <path d="M315.459888,160.03299 C341.560478,160.03299 362.718284,181.383579 362.718284,207.719588 C362.718284,234.055596 341.560478,255.406186 315.459888,255.406186 C289.358724,255.406186 268.201493,234.055596 268.201493,207.719588 C268.201493,181.383579 289.358724,160.03299 315.459888,160.03299" id="Fill-12" fill="#FFFFFF"></path>
                            <path d="M315.459888,173.773196 C333.08301,173.773196 347.369403,188.066941 347.369403,205.698969 C347.369403,223.331571 333.08301,237.624742 315.459888,237.624742 C297.837341,237.624742 283.550373,223.331571 283.550373,205.698969 C283.550373,188.066941 297.837341,173.773196 315.459888,173.773196" id="Fill-13" fill="#C3E691"></path>
                            <g id="Group-22">
                                <mask id="mask-4" fill="white">
                                    <use xlink:href="#path-3"></use>
                                </mask>
                                <g id="Clip-15"></g>
                                <polyline id="Fill-14" fill="#FFFFFF" mask="url(#mask-4)" points="216.327081 296.189841 225.349299 282.866027 39.9774462 201.003416 30.954653 214.328379 216.327081 296.189841"></polyline>
                                <polyline id="Fill-16" fill="#FFFFFF" mask="url(#mask-4)" points="50.8868077 432.311303 59.9096009 418.98634 0 380.9352 0 399.991206 50.8868077 432.311303"></polyline>
                                <polyline id="Fill-17" fill="#FFFFFF" mask="url(#mask-4)" points="314.958713 131.497578 315.420448 115.396678 0 52.3563521 0 68.549133 314.958713 131.497578"></polyline>
                                <polyline id="Fill-18" fill="#FFFFFF" mask="url(#mask-4)" points="0 183.314133 89.127003 84.0091673 83.0693095 69.0923762 0 161.647574 0 183.314133"></polyline>
                                <polyline id="Fill-19" fill="#FFFFFF" mask="url(#mask-4)" points="28.6402327 146.222569 40.1141291 131.962723 0 123.63778 0 140.278478 28.6402327 146.222569"></polyline>
                                <polyline id="Fill-20" fill="#FFFFFF" mask="url(#mask-4)" points="0 3.53510034 2.57285427 0.0459402254 0 0.0459402254 0 3.53510034"></polyline>
                                <polyline id="Fill-21" fill="#FFFFFF" mask="url(#mask-4)" points="0 174.85022 3.40616042 170.617403 0 169.857666 0 174.85022"></polyline>
                            </g>
                            <polyline id="Fill-23" fill="#FFFFFF" points="132.485075 86.9261751 145.831045 94.5649485 229.425373 0 209.32835 0 132.485075 86.9261751"></polyline>
                            <polyline id="Fill-24" fill="#FFFFFF" points="124.406716 202.184698 138.533364 210.14433 148.641791 89.5937631 134.514561 81.6329897 124.406716 202.184698"></polyline>
                            <polyline id="Fill-25" fill="#FFFFFF" points="146.218284 143.866903 144.840511 126.086598 30.7647168 126.087167 13.733209 143.868041 146.218284 143.866903"></polyline>
                            <polyline id="Fill-26" fill="#FFFFFF" points="317.916849 148.717526 319.902985 130.813064 135.277324 126.086598 133.29291 143.992753 317.916849 148.717526"></polyline>
                            <polyline id="Fill-27" fill="#FFFFFF" points="174.313694 211.760825 191.45709 208.499866 190.866573 139.826804 173.684701 145.059655 174.313694 211.760825"></polyline>
                            <g id="Group-31" transform="translate(0.000000, 4.849485)">
                                <mask id="mask-6" fill="white">
                                    <use xlink:href="#path-5"></use>
                                </mask>
                                <g id="Clip-29"></g>
                                <polyline id="Fill-28" fill="#FFFFFF" mask="url(#mask-6)" points="232.642881 202.734666 250.342174 199.546462 249.731933 132.418174 231.993492 137.531643 232.642881 202.734666"></polyline>
                                <polyline id="Fill-30" fill="#FFFFFF" mask="url(#mask-6)" points="177.737883 46.2600982 189.239775 32.0700488 0 0.367452046 0 16.4850531 177.737883 46.2600982"></polyline>
                            </g>
                            <polyline id="Fill-32" fill="#FFFFFF" points="109.057836 27.7898322 126.177725 33.9463918 145.410448 0 124.770723 0 109.057836 27.7898322"></polyline>
                            <polyline id="Fill-33" fill="#FFFFFF" points="318.287313 370.985567 317.603267 354.764304 155.912313 331.381443 156.596359 347.603864 318.287313 370.985567"></polyline>
                            <polyline id="Fill-34" fill="#FFFFFF" points="319.902985 429.987629 319.215531 413.816413 90.4776119 383.109278 91.1662174 399.280495 319.902985 429.987629"></polyline>
                            <polyline id="Fill-35" fill="#FFFFFF" points="134.908582 400.520948 155.084585 406.548454 218.115672 348.724412 197.94024 342.696907 134.908582 400.520948"></polyline>
                            <polyline id="Fill-36" fill="#FFFFFF" points="371.604478 327.717231 388.188937 335.42268 459.658582 213.411542 459.658582 209.802521 444.737624 202.870103 371.604478 327.717231"></polyline>
                            <polyline id="Fill-37" fill="#FFFFFF" points="392.608209 459.892784 382.680183 323.298969 365.141791 325.00317 375.080631 459.892784 392.608209 459.892784"></polyline>
                            <polyline id="Fill-38" fill="#FFFFFF" points="385.337687 429.961098 384.648353 414.630928 315.863806 417.082201 316.552563 432.412371 385.337687 429.961098"></polyline>
                            <polyline id="Fill-39" fill="#FFFFFF" points="379.682836 338.238233 378.999985 316.024742 312.632463 347.962689 313.315886 370.17732 379.682836 338.238233"></polyline>
                            <polyline id="Fill-40" fill="#FFFFFF" points="142.340377 459.892784 158.335821 404.633047 142.421231 397.657732 124.406716 459.892784 142.340377 459.892784"></polyline>
                            <polyline id="Fill-41" fill="#FFFFFF" points="318.116049 297.409805 322.326493 279.687461 209.108898 279.653608 206.80597 297.435052 318.116049 297.409805"></polyline>
                            <polyline id="Fill-42" fill="#FFFFFF" points="380.490672 46.8783505 381.425959 65.0895244 459.658582 71.1257732 459.658582 54.5127037 380.490672 46.8783505"></polyline>
                            <polyline id="Fill-43" fill="#FFFFFF" points="416.843284 54.7217216 437.433638 60.6185567 459.658582 16.2178564 459.658582 0 444.234908 0 416.843284 54.7217216"></polyline>
                            <polyline id="Fill-44" fill="#FFFFFF" points="351.408582 112.346392 352.335352 130.127835 419.284961 127.082055 433 112.66063 351.408582 112.346392"></polyline>
                            <g id="Group-48" transform="translate(0.000000, 142.251546)">
                                <mask id="mask-8" fill="white">
                                    <use xlink:href="#path-7"></use>
                                </mask>
                                <g id="Clip-46"></g>
                                <polyline id="Fill-45" fill="#C3E691" mask="url(#mask-8)" points="155.943628 201.436575 186.537949 209.081282 144.402425 247.166844 105.673393 241.977626 155.943628 201.436575"></polyline>
                                <polyline id="Fill-47" fill="#F1B464" mask="url(#mask-8)" points="35.5257499 1.18337526 0 40.7752069 0 55.6438275 124.366456 55.6438275 128.920658 0.257628866 35.5257499 1.18337526"></polyline>
                            </g>
                            <polyline id="Fill-49" fill="#726F6F" points="193.072761 146.292784 193.549773 199.637113 232.656716 199.637113 232.143628 147.31777 193.072761 146.292784"></polyline>
                            <g id="Group-53">
                                <mask id="mask-10" fill="white">
                                    <use xlink:href="#path-9"></use>
                                </mask>
                                <g id="Clip-51"></g>
                                <polyline id="Fill-50" fill="#726F6F" mask="url(#mask-10)" points="409.367671 0.0460349619 390.227911 48.1790403 419.252127 50.9768151 444.000866 0.0460349619 409.367671 0.0460349619"></polyline>
                                <polyline id="Fill-52" fill="#706D6D" mask="url(#mask-10)" points="70.8163075 82.8796191 50.2672708 105.832076 0 95.3723569 0 93.3819202 15.8286766 71.8628773 70.8163075 82.8796191"></polyline>
                            </g>
                            <polyline id="Fill-54" fill="#FFFFFF" points="459.658582 275.442359 422.089144 252.981443 414.419776 267.15652 459.658582 294.202062 459.658582 275.442359"></polyline>
                            <polyline id="Fill-55" fill="#FFFFFF" points="424.921642 390.389231 438.507534 399.274227 459.658582 359.408865 459.658582 324.915464 424.921642 390.389231"></polyline>
                            <polyline id="Fill-56" fill="#FFFFFF" points="457.235075 342.696907 454.811567 348.845226 457.235075 351.587629 457.235075 342.696907"></polyline>
                            <path d="M459.658582,360.478351 L444.309701,389.746554 C444.309701,389.746554 450.513951,394.928959 455.882478,398.920519 C457.101951,399.826498 458.391921,400.774722 459.658582,401.698969 L459.658582,360.478351" id="Fill-57" fill="#C3E691"></path>
                            <polyline id="Fill-58" fill="#726F6F" points="155.104478 83.7700818 191.342869 42.8371134 256.891791 55.5768606 232.313464 99.414433 155.104478 83.7700818"></polyline>
                            <polyline id="Fill-59" fill="#726F6F" points="306.977612 130.127835 146.218284 125.961174 148.478746 98.6061856 306.977612 130.127835"></polyline>
                            <path d="M138.66344,368.616548 C147.352715,385.305178 157.030627,401.52818 164.625033,418.622801 C170.430067,431.689053 175.602282,444.929628 180.147388,458.276289 L88.7889219,458.276289 C89.9466161,454.384397 90.9655241,450.507414 91.8410768,446.699243 C95.8978612,429.046672 98.8043762,403.566162 91.4247181,384.150856 C68.1303339,346.065709 38.6631035,312.17924 3.74779947,283.73752 L0,221.459794 C52.0151388,256.794182 95.7402275,301.59194 129.472707,353.687211 L131.696143,353.166533 L138.556066,368.375132 C138.592048,368.455413 138.62803,368.536267 138.66344,368.616548" id="Fill-87" fill="#FFFFFF"></path>
                            <path d="M125.185904,374.07454 C125.2886,374.301128 125.38841,374.529441 125.489375,374.75718 C135.309476,390.975484 143.957811,407.568752 151.473613,424.365604 C156.73704,436.128059 161.441988,447.99058 165.606343,459.892784 L145.607861,459.892784 C142.205644,450.343876 138.434762,440.826024 134.288292,431.372008 C133.735006,440.898487 132.364773,450.493977 130.336827,459.892784 L108.400979,459.892784 C108.860801,458.130112 109.297545,456.358239 109.710057,454.577739 C115.705044,428.67883 116.450451,401.481928 107.757691,380.478818 C81.7578751,337.879098 47.1356863,298.088151 3.00898252,264.647997 L1.61567164,241.665979 C54.409173,279.115707 95.1636605,324.865232 125.087824,374.096968 L125.185904,374.07454" id="Fill-89" fill="#4A90E2"></path>
                        </g>
                        <mask id="mask-12" fill="white">
                            <use xlink:href="#path-11"></use>
                        </mask>
                        <use id="Combined-Shape" fill="#4A90E2" xlink:href="#path-11"></use>
                    </g>
                    <g id="happy" transform="translate(112.000000, 0.000000)">
                        <polygon id="Path-2" fill="#FFFFFF" opacity="0.0516183036" transform="translate(218.116006, 216.913905) rotate(-19.000000) translate(-218.116006, -216.913905) " points="46.8007519 81.0067417 354.960613 387.305422 389.43126 317.893462 291.517769 46.5223879"></polygon>
                        <ellipse id="Oval" fill="#F1B464" fill-rule="nonzero" cx="168.656772" cy="303.476723" rx="44.0853432" ry="44.0465549"></ellipse>
                        <path d="M139.940631,303.880819 C139.940631,319.949077 152.797442,332.975791 168.656126,332.975791 C184.515548,332.975791 197.372913,319.949077 197.372913,303.880819 L139.940631,303.880819 Z" id="Shape" fill="#494747" fill-rule="nonzero"></path>
                        <path d="M152.883117,314.387337 C152.883117,322.421466 160.307472,328.934823 169.465304,328.934823 C178.623562,328.934823 186.048237,322.421466 186.048237,314.387337 L152.883117,314.387337 Z" id="Shape-Copy" fill="#CD434A" fill-rule="nonzero"></path>
                        <g id="Group" transform="translate(148.029685, 281.251397)" fill="#494747" fill-rule="nonzero">
                            <ellipse id="Oval" cx="6.87569573" cy="6.86964618" rx="6.87569573" ry="6.86964618"></ellipse>
                            <ellipse id="Oval" cx="33.5695733" cy="6.86964618" rx="6.87569573" ry="6.86964618"></ellipse>
                        </g>
                    </g>
                    <g id="Combined-Shape">
                        <use fill="black" fill-opacity="1" filter="url(#filter-14)" xlink:href="#path-13"></use>
                        <use fill="#FFFFFF" fill-rule="evenodd" xlink:href="#path-13"></use>
                    </g>
                    <g id="Combined-Shape-Copy-14">
                        <use fill="black" fill-opacity="1" filter="url(#filter-16)" xlink:href="#path-15"></use>
                        <use fill="#FFFFFF" fill-rule="evenodd" xlink:href="#path-15"></use>
                    </g>
                    <g id="Combined-Shape">
                        <use fill="black" fill-opacity="1" filter="url(#filter-18)" xlink:href="#path-17"></use>
                        <use fill="#FFFFFF" fill-rule="evenodd" xlink:href="#path-17"></use>
                    </g>
                </g>
            </g>
        </g>
    </g>
</svg>