<?xml version="1.0" encoding="UTF-8"?>
<svg width="251px" height="42px" viewBox="0 0 251 42" version="1.1" xmlns="http://www.w3.org/2000/svg" xmlns:xlink="http://www.w3.org/1999/xlink">
    <!-- Generator: sketchtool 52 (66869) - http://www.bohemiancoding.com/sketch -->
    <title>78107166-25BD-4553-95C6-715EF7A96A12</title>
    <desc>Created with sketchtool.</desc>
    <g id="Page-1" stroke="none" stroke-width="1" fill="none" fill-rule="evenodd">
        <g id="1" transform="translate(-407.000000, -20.000000)">
            <g id="Group-18" transform="translate(0.000000, -43.000000)">
                <g id="header" transform="translate(0.000000, 43.000000)">
                    <g id="Group-11" transform="translate(407.000000, 20.000000)">
                        <g id="logo_header">
                            <path d="M21.2670811,42 C32.6441469,42 41.8670811,36.6004151 41.8670811,21 C41.8670811,5.39958486 36.8093671,0 25.4323013,0 C14.0552354,0 4.44521588,5.39958486 0.667081069,21 C-3.11105374,36.6004151 9.89001522,42 21.2670811,42 Z" id="Oval-3" fill="#4A90E2"></path>
                            <path d="M78.1565886,31.6127248 C78.3642093,32.0682365 78.4680181,32.5117544 78.4680181,32.9432918 C78.4680181,33.7344438 78.1623588,34.4057142 77.5510311,34.9571231 C76.9397033,35.508532 76.2418773,35.7842324 75.4575323,35.7842324 C74.9269459,35.7842324 74.4425048,35.6403887 74.0041943,35.3526971 C73.5658838,35.0650055 73.2198544,34.6334745 72.9660957,34.0580913 L71.4089479,30.4260028 L60.1974834,30.4260028 L58.6057323,34.0580913 C58.3519736,34.6334745 58.000177,35.0650055 57.550332,35.3526971 C57.1004871,35.6403887 56.6102788,35.7842324 56.0796924,35.7842324 C55.2953473,35.7842324 54.5859871,35.508532 53.9515904,34.9571231 C53.3171936,34.4057142 53,33.7344438 53,32.9432918 C53,32.5117544 53.1038088,32.0682365 53.3114296,31.6127248 L62.4466969,12.1217151 C62.7465936,11.4744089 63.1906646,10.9769496 63.7789234,10.6293223 C64.3671822,10.2816949 65.0188709,10.1078838 65.7340091,10.1078838 C66.4260782,10.1078838 67.0719998,10.2816949 67.671793,10.6293223 C68.2715863,10.9769496 68.7214245,11.4744089 69.0213212,12.1217151 L78.1565886,31.6127248 Z M62.3428871,25.4633472 L69.2635442,25.4633472 L65.8032156,17.4439834 L62.3428871,25.4633472 Z M85.581465,35.8921162 C84.6125682,35.8921162 83.8455364,35.5984354 83.2803465,35.011065 C82.7151567,34.4236946 82.432566,33.6265611 82.432566,32.6196404 L82.432566,13.3803596 C82.432566,12.3974133 82.6863209,11.6422341 83.1938383,11.1147994 C83.7013557,10.5873648 84.4280174,10.3236515 85.3738453,10.3236515 L94.2322864,10.3236515 C96.9313562,10.3236515 99.0306011,11.0368762 100.530084,12.4633472 C102.029568,13.8898181 102.779298,15.8736618 102.779298,18.4149378 C102.779298,20.9322394 102.0238,22.9100896 100.512783,24.3485477 C99.001765,25.7870058 96.9082872,26.5062241 94.2322864,26.5062241 L88.7995706,26.5062241 L88.7995706,32.6196404 C88.7995706,33.6265611 88.5112127,34.4236946 87.9344884,35.011065 C87.3577641,35.5984354 86.5734308,35.8921162 85.581465,35.8921162 Z M93.3672042,21.5435685 C94.5437218,21.5435685 95.4145625,21.2918421 95.9797523,20.7883817 C96.5449421,20.2849214 96.8275328,19.5057683 96.8275328,18.450899 C96.8275328,16.3651348 95.6741015,15.3222683 93.3672042,15.3222683 L88.7995706,15.3222683 L88.7995706,21.5435685 L93.3672042,21.5435685 Z M110.307984,35.8921162 C109.339087,35.8921162 108.572056,35.5984354 108.006866,35.011065 C107.441676,34.4236946 107.159085,33.6265611 107.159085,32.6196404 L107.159085,13.3803596 C107.159085,12.3974133 107.41284,11.6422341 107.920358,11.1147994 C108.427875,10.5873648 109.154537,10.3236515 110.100365,10.3236515 L118.958806,10.3236515 C121.657875,10.3236515 123.75712,11.0368762 125.256604,12.4633472 C126.756087,13.8898181 127.505817,15.8736618 127.505817,18.4149378 C127.505817,20.9322394 126.75032,22.9100896 125.239302,24.3485477 C123.728284,25.7870058 121.634806,26.5062241 118.958806,26.5062241 L113.52609,26.5062241 L113.52609,32.6196404 C113.52609,33.6265611 113.237732,34.4236946 112.661008,35.011065 C112.084283,35.5984354 111.29995,35.8921162 110.307984,35.8921162 Z M118.093723,21.5435685 C119.270241,21.5435685 120.141082,21.2918421 120.706272,20.7883817 C121.271461,20.2849214 121.554052,19.5057683 121.554052,18.450899 C121.554052,16.3651348 120.400621,15.3222683 118.093723,15.3222683 L113.52609,15.3222683 L113.52609,21.5435685 L118.093723,21.5435685 Z M140.121186,35.8561549 C139.15229,35.8561549 138.373723,35.5624741 137.785465,34.9751037 C137.197206,34.3877333 136.903081,33.6025867 136.903081,32.6196404 L136.903081,15.6818811 L132.024018,15.6818811 C131.008983,15.6818811 130.253485,15.4601221 129.757502,15.0165975 C129.261519,14.5730729 129.013532,13.8958091 129.013532,12.9847856 C129.013532,12.0737622 129.261519,11.4024918 129.757502,10.9709544 C130.253485,10.5394169 131.008983,10.3236515 132.024018,10.3236515 L148.218355,10.3236515 C149.23339,10.3236515 149.988887,10.5394169 150.48487,10.9709544 C150.980853,11.4024918 151.228841,12.0737622 151.228841,12.9847856 C151.228841,13.8958091 150.980853,14.5730729 150.48487,15.0165975 C149.988887,15.4601221 149.23339,15.6818811 148.218355,15.6818811 L143.339292,15.6818811 L143.339292,32.6196404 C143.339292,33.6025867 143.045167,34.3877333 142.456908,34.9751037 C141.868649,35.5624741 141.090083,35.8561549 140.121186,35.8561549 Z M175.090278,31.4688797 C175.50552,32.1161858 175.713137,32.7275213 175.713137,33.3029046 C175.713137,34.0700822 175.407478,34.7113852 174.79615,35.2268326 C174.184822,35.7422801 173.475462,36 172.668048,36 C172.114393,36 171.595349,35.8681433 171.1109,35.604426 C170.626452,35.3407087 170.211217,34.9451386 169.865182,34.417704 L165.366755,27.5850622 C165.043789,27.1055762 164.703527,26.7519606 164.345958,26.5242047 C163.988389,26.2964488 163.567386,26.1825726 163.082938,26.1825726 L160.833724,26.1825726 L160.833724,32.6196404 C160.833724,33.6265611 160.556901,34.4236946 160.003246,35.011065 C159.44959,35.5984354 158.688326,35.8921162 157.719429,35.8921162 C156.750532,35.8921162 155.9835,35.5984354 155.41831,35.011065 C154.85312,34.4236946 154.57053,33.6265611 154.57053,32.6196404 L154.57053,13.3803596 C154.57053,12.3974133 154.824285,11.6422341 155.331802,11.1147994 C155.839319,10.5873648 156.565981,10.3236515 157.511809,10.3236515 L166.197234,10.3236515 C169.150062,10.3236515 171.370417,10.9889283 172.858366,12.3195021 C174.346315,13.6500758 175.090278,15.5739846 175.090278,18.0912863 C175.090278,20.0092304 174.582768,21.633465 173.567734,22.9640387 C172.552699,24.2946125 171.122444,25.1876418 169.276926,25.6431535 C170.038202,25.763025 170.701425,26.0267384 171.266615,26.4343015 C171.831805,26.8418646 172.391219,27.4532002 172.944874,28.2683264 L175.090278,31.4688797 Z M165.193738,21.219917 C166.600946,21.219917 167.610198,20.9921646 168.221526,20.5366528 C168.832854,20.0811411 169.138513,19.3379489 169.138513,18.3070539 C169.138513,17.2521847 168.832854,16.491012 168.221526,16.0235131 C167.610198,15.5560143 166.600946,15.3222683 165.193738,15.3222683 L160.764518,15.3222683 L160.764518,21.219917 L165.193738,21.219917 Z M190.99296,36 C187.463407,36 184.781679,35.0650163 182.947696,33.1950207 C181.113712,31.3250252 180.196734,28.5919959 180.196734,24.9958506 L180.196734,13.3803596 C180.196734,12.3974133 180.479325,11.6122667 181.044515,11.0248963 C181.609705,10.4375259 182.365202,10.1438451 183.31103,10.1438451 C184.256858,10.1438451 185.012356,10.4375259 185.577545,11.0248963 C186.142735,11.6122667 186.425326,12.3974133 186.425326,13.3803596 L186.425326,25.2475795 C186.425326,27.0696264 186.817492,28.472102 187.601838,29.4550484 C188.386183,30.4379948 189.516545,30.9294606 190.99296,30.9294606 C192.469374,30.9294606 193.599736,30.4379948 194.384081,29.4550484 C195.168427,28.472102 195.560593,27.0696264 195.560593,25.2475795 L195.560593,13.3803596 C195.560593,12.3974133 195.843184,11.6122667 196.408374,11.0248963 C196.973564,10.4375259 197.729061,10.1438451 198.674889,10.1438451 C199.620717,10.1438451 200.381981,10.4375259 200.958706,11.0248963 C201.53543,11.6122667 201.823788,12.3974133 201.823788,13.3803596 L201.823788,24.9958506 C201.823788,28.5680215 200.895276,31.2950574 199.038223,33.1770401 C197.181171,35.0590228 194.499443,36 190.99296,36 Z M216.584561,36 C214.739043,36 213.026198,35.790228 211.445973,35.3706777 C209.865748,34.9511275 208.568138,34.3697594 207.553103,33.626556 C207.160931,33.3148901 206.87834,32.9912419 206.705323,32.6556017 C206.532306,32.3199614 206.445798,31.8884305 206.445798,31.3609959 C206.445798,30.6417668 206.653416,30.0184443 207.068657,29.4910097 C207.483899,28.963575 207.96834,28.6998617 208.521995,28.6998617 C208.821892,28.6998617 209.11025,28.7478096 209.387077,28.8437068 C209.663905,28.939604 210.009935,29.1194085 210.425176,29.3831259 C211.371004,29.9345348 212.31105,30.3301048 213.245344,30.5698479 C214.179637,30.8095909 215.235027,30.9294606 216.411544,30.9294606 C217.772614,30.9294606 218.804935,30.7196886 219.508538,30.3001383 C220.212142,29.880588 220.563939,29.263259 220.563939,28.4481328 C220.563939,27.8967238 220.235211,27.4232385 219.577745,27.0276625 C218.920279,26.6320865 217.668806,26.24251 215.823289,25.8589212 C213.53946,25.3554608 211.751642,24.7561123 210.459779,24.0608575 C209.167917,23.3656028 208.262473,22.5444953 207.743421,21.5975104 C207.22437,20.6505255 206.964847,19.5057697 206.964847,18.1632089 C206.964847,16.6288536 207.403151,15.2383649 208.279772,13.9917012 C209.156393,12.7450376 210.361729,11.7680994 211.895816,11.0608575 C213.429902,10.3536156 215.154282,10 217.069007,10 C218.753042,10 220.252503,10.1917915 221.567434,10.5753804 C222.882365,10.9589692 224.081934,11.5583177 225.166176,12.373444 C225.581417,12.6851099 225.875542,13.0147516 226.048559,13.362379 C226.221577,13.7100063 226.308084,14.1355438 226.308084,14.6390041 C226.308084,15.3582332 226.106234,15.9815557 225.702527,16.5089903 C225.29882,17.036425 224.820146,17.3001383 224.26649,17.3001383 C223.966594,17.3001383 223.68977,17.2581839 223.436011,17.1742739 C223.182253,17.0903638 222.824689,16.9045658 222.36331,16.6168741 C222.247965,16.5449512 221.919237,16.3591532 221.377116,16.0594744 C220.834995,15.7597956 220.200608,15.5200562 219.473935,15.340249 C218.747263,15.1604417 217.957162,15.0705394 217.10361,15.0705394 C215.927093,15.0705394 214.981279,15.3042854 214.266141,15.7717842 C213.551003,16.2392831 213.193439,16.8566121 213.193439,17.6237898 C213.193439,18.0793015 213.320316,18.4508976 213.574075,18.7385892 C213.827834,19.0262808 214.300741,19.3079746 214.99281,19.5836791 C215.684879,19.8593836 216.711433,20.1410774 218.072502,20.428769 C220.287123,20.9322293 222.028805,21.5375714 223.297598,22.2448133 C224.566392,22.9520552 225.466068,23.7731627 225.996655,24.7081604 C226.527241,25.6431582 226.79253,26.7459595 226.79253,28.0165975 C226.79253,29.5989014 226.36576,30.9953835 225.512209,32.2060858 C224.658657,33.416788 223.464855,34.3517717 221.930768,35.011065 C220.396682,35.6703583 218.61463,36 216.584561,36 Z M239.892345,35.8561549 C238.923449,35.8561549 238.144882,35.5624741 237.556624,34.9751037 C236.968365,34.3877333 236.67424,33.6025867 236.67424,32.6196404 L236.67424,15.6818811 L231.795177,15.6818811 C230.780142,15.6818811 230.024644,15.4601221 229.528661,15.0165975 C229.032678,14.5730729 228.784691,13.8958091 228.784691,12.9847856 C228.784691,12.0737622 229.032678,11.4024918 229.528661,10.9709544 C230.024644,10.5394169 230.780142,10.3236515 231.795177,10.3236515 L247.989514,10.3236515 C249.004549,10.3236515 249.760046,10.5394169 250.256029,10.9709544 C250.752012,11.4024918 251,12.0737622 251,12.9847856 C251,13.8958091 250.752012,14.5730729 250.256029,15.0165975 C249.760046,15.4601221 249.004549,15.6818811 247.989514,15.6818811 L243.110451,15.6818811 L243.110451,32.6196404 C243.110451,33.6025867 242.816326,34.3877333 242.228067,34.9751037 C241.639808,35.5624741 240.861242,35.8561549 239.892345,35.8561549 Z" id="APPTRUST-Copy-2" fill="#494747"></path>
                            <g id="lin" transform="translate(10.000000, 10.000000)" fill="#FFFFFF">
                                <path d="M12.6666667,5.11111111 L12.6666667,5.11111111 C13.7712362,5.11111111 14.6666667,6.00654161 14.6666667,7.11111111 L14.6666667,21 C14.6666667,22.1045695 13.7712362,23 12.6666667,23 L12.6666667,23 C11.5620972,23 10.6666667,22.1045695 10.6666667,21 L10.6666667,7.11111111 C10.6666667,6.00654161 11.5620972,5.11111111 12.6666667,5.11111111 Z" id="Rectangle-3"></path>
                                <path d="M2,10.2222222 L2,10.2222222 C3.1045695,10.2222222 4,11.1176527 4,12.2222222 L4,21 C4,22.1045695 3.1045695,23 2,23 L2,23 C0.8954305,23 2.3557168e-15,22.1045695 2.22044605e-15,21 L0,12.2222222 C-1.3527075e-16,11.1176527 0.8954305,10.2222222 2,10.2222222 Z" id="Rectangle-3-Copy"></path>
                                <path d="M22,0 L22,0 C23.1045695,-2.02906125e-16 24,0.8954305 24,2 L24,21 C24,22.1045695 23.1045695,23 22,23 L22,23 C20.8954305,23 20,22.1045695 20,21 L20,2 C20,0.8954305 20.8954305,2.02906125e-16 22,0 Z" id="Rectangle-3-Copy-2"></path>
                            </g>
                        </g>
                    </g>
                </g>
            </g>
        </g>
    </g>
</svg>