<?xml version="1.0" encoding="UTF-8"?>
<svg width="60px" height="73px" viewBox="0 0 60 73" version="1.1" xmlns="http://www.w3.org/2000/svg" xmlns:xlink="http://www.w3.org/1999/xlink">
    <!-- Generator: Sketch 52.2 (67145) - http://www.bohemiancoding.com/sketch -->
    <title>new_flag</title>
    <desc>Created with Sketch.</desc>
    <g id="Page-1" stroke="none" stroke-width="1" fill="none" fill-rule="evenodd">
        <g id="1" transform="translate(-1139.000000, -1562.000000)">
            <g id="new_flag" transform="translate(1139.000000, 1562.000000)">
                <polygon id="Triangle" fill="#F1B464" fill-rule="nonzero" transform="translate(28.500000, 28.500000) rotate(-450.000000) translate(-28.500000, -28.500000) " points="28.5 0 57 57 0 57"></polygon>
                <path d="M28.014,24.48 C28.3180015,24.48 28.567999,24.579999 28.764,24.78 C28.960001,24.980001 29.058,25.2399984 29.058,25.56 L29.058,31.98 C29.058,32.3080016 28.9620009,32.571999 28.77,32.772 C28.577999,32.972001 28.3300015,33.072 28.026,33.072 C27.6659982,33.072 27.3940009,32.9520012 27.21,32.712 L23.562,28.164 L23.562,31.98 C23.562,32.3080016 23.4700009,32.571999 23.286,32.772 C23.1019991,32.972001 22.8540015,33.072 22.542,33.072 C22.2379985,33.072 21.9900009,32.972001 21.798,32.772 C21.605999,32.571999 21.51,32.3080016 21.51,31.98 L21.51,25.56 C21.51,25.2399984 21.605999,24.980001 21.798,24.78 C21.9900009,24.579999 22.2379985,24.48 22.542,24.48 C22.8860017,24.48 23.153999,24.5999988 23.346,24.84 L26.994,29.376 L26.994,25.56 C26.994,25.2319984 27.087999,24.970001 27.276,24.774 C27.4640009,24.577999 27.7099985,24.48 28.014,24.48 Z M31.854,33 C31.5259984,33 31.2740009,32.9120009 31.098,32.736 C30.9219991,32.5599991 30.834,32.3080016 30.834,31.98 L30.834,25.56 C30.834,25.2319984 30.9219991,24.9800009 31.098,24.804 C31.2740009,24.6279991 31.5259984,24.54 31.854,24.54 L36.006,24.54 C36.3500017,24.54 36.6099991,24.6119993 36.786,24.756 C36.9620009,24.9000007 37.05,25.1079986 37.05,25.38 C37.05,25.9560029 36.7020035,26.244 36.006,26.244 L32.982,26.244 L32.982,27.852 L35.766,27.852 C36.4620035,27.852 36.81,28.1359972 36.81,28.704 C36.81,28.9760014 36.7220009,29.1839993 36.546,29.328 C36.3699991,29.4720007 36.1100017,29.544 35.766,29.544 L32.982,29.544 L32.982,31.296 L36.006,31.296 C36.7020035,31.296 37.05,31.5839971 37.05,32.16 C37.05,32.4320014 36.9620009,32.6399993 36.786,32.784 C36.6099991,32.9280007 36.3500017,33 36.006,33 L31.854,33 Z M48.69,25.152 C48.7700004,24.9279989 48.8999991,24.7560006 49.08,24.636 C49.2600009,24.5159994 49.4579989,24.456 49.674,24.456 C49.9380013,24.456 50.167999,24.5399992 50.364,24.708 C50.560001,24.8760008 50.658,25.1039986 50.658,25.392 C50.658,25.5200006 50.6260003,25.679999 50.562,25.872 L48.15,32.4 C48.0699996,32.6240011 47.9240011,32.7979994 47.712,32.922 C47.4999989,33.0460006 47.2660013,33.108 47.01,33.108 C46.7539987,33.108 46.522001,33.0460006 46.314,32.922 C46.105999,32.7979994 45.9620004,32.6240011 45.882,32.4 L44.322,27.948 L42.69,32.4 C42.6019996,32.6240011 42.454001,32.7979994 42.246,32.922 C42.037999,33.0460006 41.8100012,33.108 41.562,33.108 C41.3059987,33.108 41.074001,33.0460006 40.866,32.922 C40.657999,32.7979994 40.5140004,32.6240011 40.434,32.4 L38.01,25.872 C37.9539997,25.7119992 37.926,25.5600007 37.926,25.416 C37.926,25.1199985 38.0319989,24.8860009 38.244,24.714 C38.4560011,24.5419991 38.7019986,24.456 38.982,24.456 C39.2060011,24.456 39.4119991,24.5139994 39.6,24.63 C39.7880009,24.7460006 39.9219996,24.9199988 40.002,25.152 L41.646,29.88 L43.386,25.152 C43.4660004,24.9279989 43.5959991,24.7560006 43.776,24.636 C43.9560009,24.5159994 44.1539989,24.456 44.37,24.456 C44.5860011,24.456 44.7819991,24.5159994 44.958,24.636 C45.1340009,24.7560006 45.2619996,24.9319988 45.342,25.164 L46.974,29.988 L48.69,25.152 Z" id="NEW" fill="#5395E3"></path>
                <rect id="Rectangle" fill="#494747" fill-rule="nonzero" x="57" y="0" width="3" height="73"></rect>
            </g>
        </g>
    </g>
</svg>