<?xml version="1.0" encoding="UTF-8"?>
<svg width="550px" height="525px" viewBox="0 0 550 525" version="1.1" xmlns="http://www.w3.org/2000/svg" xmlns:xlink="http://www.w3.org/1999/xlink">
    <!-- Generator: sketchtool 52 (66869) - http://www.bohemiancoding.com/sketch -->
    <title>A2E59668-8E73-4AB4-AF2D-9AC0C98F35E7</title>
    <desc>Created with sketchtool.</desc>
    <defs>
        <path d="M209.817618,381.88571 C317.627441,381.88571 476.032771,346.738157 405.02457,187.258022 C334.01637,27.7778884 366.94974,0 259.139917,0 C151.330094,0 76.7472859,27.7778884 14.6106648,187.258022 C-47.5259564,346.738157 102.007795,381.88571 209.817618,381.88571 Z" id="path-1"></path>
        <filter x="-54.5%" y="-29.8%" width="209.1%" height="159.6%" filterUnits="objectBoundingBox" id="filter-3">
            <feOffset dx="9" dy="10" in="SourceAlpha" result="shadowOffsetOuter1"></feOffset>
            <feGaussianBlur stdDeviation="20" in="shadowOffsetOuter1" result="shadowBlurOuter1"></feGaussianBlur>
            <feColorMatrix values="0 0 0 0 0   0 0 0 0 0   0 0 0 0 0  0 0 0 0.23644135 0" type="matrix" in="shadowBlurOuter1" result="shadowMatrixOuter1"></feColorMatrix>
            <feMerge>
                <feMergeNode in="shadowMatrixOuter1"></feMergeNode>
                <feMergeNode in="SourceGraphic"></feMergeNode>
            </feMerge>
        </filter>
        <linearGradient x1="0%" y1="0%" x2="100%" y2="100%" id="linearGradient-4">
            <stop stop-color="#FFFFFF" offset="0%"></stop>
            <stop stop-color="#D0ECF4" offset="100%"></stop>
        </linearGradient>
        <polygon id="path-5" points="0.189460482 0.320703498 226.268427 0.320703498 226.268427 59.6390457 0.189460482 59.6390457"></polygon>
        <polygon id="path-7" points="0.117201647 0.0113408483 570.510538 0.0113408483 570.510538 76.1808758 0.117201647 76.1808758"></polygon>
        <path d="M210.089989,140.056886 C223.118081,142.193696 233,152.536667 233,164.973913 C233,178.958723 220.505871,190.295652 205.093583,190.295652 C201.890192,190.295652 198.812867,189.805895 195.947589,188.904399 C187.12622,195.141563 174.933728,199 161.465241,199 C148.954201,199 137.54419,195.670642 128.914532,190.197968 C126.365631,190.779534 123.709942,191.086957 120.981283,191.086957 C101.661654,191.086957 86,175.675819 86,156.665217 C86,137.654616 101.661654,122.243478 120.981283,122.243478 C121.309154,122.243478 121.635971,122.247917 121.961676,122.256736 C130.816581,113.619077 145.211789,108 161.465241,108 C187.257023,108 208.369576,122.149349 210.089989,140.056886 Z" id="path-9"></path>
        <filter x="-38.1%" y="-60.4%" width="188.4%" height="242.9%" filterUnits="objectBoundingBox" id="filter-10">
            <feOffset dx="9" dy="10" in="SourceAlpha" result="shadowOffsetOuter1"></feOffset>
            <feGaussianBlur stdDeviation="20" in="shadowOffsetOuter1" result="shadowBlurOuter1"></feGaussianBlur>
            <feColorMatrix values="0 0 0 0 0   0 0 0 0 0   0 0 0 0 0  0 0 0 0.23644135 0" type="matrix" in="shadowBlurOuter1"></feColorMatrix>
        </filter>
        <path d="M521.138943,318.116566 C532.425011,319.905031 541,328.777966 541,339.454545 C541,351.420715 530.228416,361.121212 516.940994,361.121212 C514.295572,361.121212 511.749872,360.736707 509.369045,360.026368 C501.699177,365.560765 490.962097,369 479.07764,369 C468.118363,369 458.134775,366.075397 450.632344,361.280166 C448.611353,361.692362 446.516475,361.909091 444.369565,361.909091 C427.596917,361.909091 414,348.68114 414,332.363636 C414,316.046132 427.596917,302.818182 444.369565,302.818182 C444.680329,302.818182 444.990003,302.822723 445.29852,302.83174 C452.996984,295.647753 465.262034,291 479.07764,291 C501.216941,291 519.374483,302.935237 521.138943,318.116566 Z" id="path-11"></path>
        <filter x="-44.1%" y="-70.5%" width="202.4%" height="266.7%" filterUnits="objectBoundingBox" id="filter-12">
            <feOffset dx="9" dy="10" in="SourceAlpha" result="shadowOffsetOuter1"></feOffset>
            <feGaussianBlur stdDeviation="20" in="shadowOffsetOuter1" result="shadowBlurOuter1"></feGaussianBlur>
            <feColorMatrix values="0 0 0 0 0   0 0 0 0 0   0 0 0 0 0  0 0 0 0.23644135 0" type="matrix" in="shadowBlurOuter1"></feColorMatrix>
        </filter>
        <path d="M293.011731,391.464859 C302.128242,393.084582 309,400.275506 309,408.901235 C309,418.71963 300.096572,426.679012 289.113636,426.679012 C286.983441,426.679012 284.931473,426.379592 283.007523,425.825261 C276.660959,430.254617 267.841573,433 258.090909,433 C249.114692,433 240.927694,430.673403 234.732549,426.848266 C232.908867,427.254442 231.008911,427.469136 229.056818,427.469136 C215.21832,427.469136 204,416.679751 204,403.37037 C204,390.06099 215.21832,379.271605 229.056818,379.271605 C229.17781,379.271605 229.298602,379.27243 229.419187,379.274074 C235.749715,373.061266 246.231489,369 258.090909,369 C276.623359,369 291.79165,378.917453 293.011731,391.464859 Z" id="path-13"></path>
        <filter x="-53.3%" y="-85.9%" width="223.8%" height="303.1%" filterUnits="objectBoundingBox" id="filter-14">
            <feOffset dx="9" dy="10" in="SourceAlpha" result="shadowOffsetOuter1"></feOffset>
            <feGaussianBlur stdDeviation="20" in="shadowOffsetOuter1" result="shadowBlurOuter1"></feGaussianBlur>
            <feColorMatrix values="0 0 0 0 0   0 0 0 0 0   0 0 0 0 0  0 0 0 0.23644135 0" type="matrix" in="shadowBlurOuter1"></feColorMatrix>
        </filter>
        <path d="M414.522993,419.331153 C426.800313,421.694198 436,431.429944 436,443.081081 C436,456.500108 423.796667,467.378378 408.743094,467.378378 C405.956154,467.378378 403.266907,467.005527 400.7347,466.31273 C392.079736,472.29664 380.102917,476 366.870166,476 C354.855203,476 343.875648,472.946904 335.477931,467.905746 C332.759618,468.584768 329.909525,468.945946 326.972376,468.945946 C308.209951,468.945946 293,454.207644 293,436.027027 C293,417.84641 308.209951,403.108108 326.972376,403.108108 C327.19311,403.108108 327.413352,403.110148 327.633084,403.114209 C336.269898,394.582491 350.623428,389 366.870166,389 C392.00391,389 412.606797,402.360111 414.522993,419.331153 Z" id="path-15"></path>
        <filter x="-39.2%" y="-63.2%" width="190.9%" height="249.4%" filterUnits="objectBoundingBox" id="filter-16">
            <feOffset dx="9" dy="10" in="SourceAlpha" result="shadowOffsetOuter1"></feOffset>
            <feGaussianBlur stdDeviation="20" in="shadowOffsetOuter1" result="shadowBlurOuter1"></feGaussianBlur>
            <feColorMatrix values="0 0 0 0 0   0 0 0 0 0   0 0 0 0 0  0 0 0 0.23644135 0" type="matrix" in="shadowBlurOuter1"></feColorMatrix>
        </filter>
    </defs>
    <g id="Page-1" stroke="none" stroke-width="1" fill="none" fill-rule="evenodd">
        <g id="4" transform="translate(-997.000000, -1699.000000)">
            <g id="Group-13-Copy" transform="translate(408.000000, 1699.000000)">
                <g id="ricket_il" transform="translate(569.000000, 0.000000)">
                    <g id="Group-10" transform="translate(0.000000, 27.000000)">
                        <g id="illustration-copy-2" transform="translate(87.542818, 53.542739)">
                            <mask id="mask-2" fill="white">
                                <use xlink:href="#path-1"></use>
                            </mask>
                            <use id="Oval" fill="#4A90E2" xlink:href="#path-1"></use>
                            <polygon id="Path-2" fill="#FFFFFF" opacity="0.0516183036" mask="url(#mask-2)" transform="translate(274.139145, 175.758304) rotate(-19.000000) translate(-274.139145, -175.758304) " points="61.6477252 -54.3854116 307.241179 461.004595 486.630565 359.428309 357.397452 -109.487987"></polygon>
                        </g>
                        <g id="rocket">
                            <path d="M189.427719,226.44554 C192.570723,223.650819 195.904869,224.147402 197.635,224.703651 C199.152312,220.884969 202.41946,216.533134 209.438508,216.533134 C221.941556,216.533134 222.942589,228.54928 222.942589,228.54928 C231.746942,225.947033 233.447514,233.555526 233.447514,233.855785 L186.127072,233.855785 C186.127072,228.949625 189.427719,226.44554 189.427719,226.44554" id="Fill-8" fill="#FFFFFE"></path>
                            <path d="M216.885359,146.454105 C216.885359,149.063712 214.768201,151.179497 212.15435,151.179497 C209.540498,151.179497 207.421271,149.063712 207.421271,146.454105 C207.421271,143.844498 209.540498,141.730779 212.15435,141.730779 C214.768201,141.730779 216.885359,143.844498 216.885359,146.454105" id="Fill-11" fill="#6D93BF"></path>
                            <path d="M394.646988,122.821864 L392.127015,121.473883 L391.755457,121.102913 L390.4035,118.586928 C390.063212,117.949667 389.149032,117.949667 388.805065,118.586928 L387.454948,121.102913 L387.08339,121.473883 L384.561577,122.821864 C383.925146,123.165286 383.925146,124.07802 384.561577,124.419606 L387.08339,125.767587 L387.454948,126.138557 L388.805065,128.654542 C389.149032,129.291803 390.063212,129.291803 390.4035,128.654542 L391.755457,126.138557 L392.127015,125.767587 L394.646988,124.419606 C395.285258,124.07802 395.285258,123.165286 394.646988,122.821864" id="Fill-12" fill="#DDEAF1"></path>
                            <path d="M402.534131,62.1928871 L400.012021,60.8439511 L399.642712,60.4734434 L398.28978,57.9572281 C397.949295,57.3205303 397.03413,57.3205303 396.693645,57.9572281 L395.340713,60.4734434 L394.969603,60.8439511 L392.449295,62.1928871 C391.811561,62.5346176 391.811561,63.4482969 392.449295,63.7900274 L394.969603,65.1389634 L395.340713,65.5094711 L396.693645,68.0256864 C397.03413,68.6623842 397.949295,68.6623842 398.28978,68.0256864 L399.642712,65.5094711 L400.012021,65.1389634 L402.534131,63.7900274 C403.171864,63.4482969 403.171864,62.5346176 402.534131,62.1928871" id="Fill-16" fill="#6D93BF"></path>
                            <polygon id="Fill-17" fill="#FFFFFE" points="287.866022 443.30238 328.088398 443.30238 328.088398 259.839761 287.866022 259.839761"></polygon>
                            <g id="Group" filter="url(#filter-3)" transform="translate(220.828729, 0.000000)">
                                <path d="M101.920052,269.860623 C101.920052,261.976548 95.5307238,255.585061 87.6512699,255.585061 C79.7698579,255.585061 73.3805294,261.976548 73.3805294,269.860623 C73.3805294,269.860623 71.5379434,303.61034 87.6512699,321.576237 C103.762638,303.61034 101.920052,269.860623 101.920052,269.860623" id="Fill-18" fill="#FFFFFF"></path>
                                <path d="M37.8172488,192.565348 C37.8172488,192.565348 -15.6157874,218.450578 5.55730776,294.786053 C5.55730776,294.786053 16.8634625,256.413623 53.1159996,246.476751 L37.8172488,192.565348" id="Fill-19" fill="#B0ACB0"></path>
                                <path d="M137.965029,192.565348 C137.965029,192.565348 191.398065,218.450578 170.223012,294.786053 C170.223012,294.786053 158.918815,256.413623 122.666278,246.476751 L137.965029,192.565348" id="Fill-20" fill="#B0ACB0"></path>
                                <path d="M105.231224,262.397685 L68.9121115,262.397685 C67.4787715,262.397685 66.2373267,261.404585 65.9201121,260.006019 L63.9267513,251.209154 C63.4920498,249.291512 64.9508453,247.462015 66.9187506,247.462015 L107.224585,247.462015 C109.192491,247.462015 110.653244,249.291512 110.216585,251.209154 L108.221266,260.006019 C107.906009,261.404585 106.662606,262.397685 105.231224,262.397685" id="Fill-21" fill="#34446D"></path>
                                <path d="M34.6588096,171.947268 C34.6588096,171.947268 40.2335624,223.143806 57.4610562,255.585061 C57.4610562,255.585061 84.8257103,242.406413 117.257965,255.585061 C117.257965,255.585061 137.01926,228.21312 141.074515,167.890642 C143.408588,133.132155 140.618275,93.4473452 129.110434,59.2549445 L48.7337387,59.2549445 C38.0385157,87.1087448 30.4194911,124.51158 34.6588096,171.947268" id="Fill-22" fill="url(#linearGradient-4)"></path>
                                <path d="M81.4322974,3.78043843 C73.3472415,12.9298829 59.4857469,31.2699063 48.7337387,59.2549445 L129.110434,59.2549445 C121.747923,37.3754123 110.821642,17.7406378 95.3525354,3.1027018 C91.371688,-0.664025196 85.0606841,-0.327115657 81.4322974,3.78043843" id="Fill-23" fill="#C64047"></path>
                                <path d="M86.4626943,169.471374 C86.4626943,169.471374 61.8080711,225.510008 86.4626943,292.139746 C86.4626943,292.139746 113.858678,236.541837 86.4626943,169.471374" id="Fill-24" fill="#726F6F"></path>
                                <path d="M119.776101,117.471738 C119.776101,134.605155 105.891109,148.494838 88.7634791,148.494838 C71.6378073,148.494838 57.7528154,134.605155 57.7528154,117.471738 C57.7528154,100.338321 71.6378073,86.4486372 88.7634791,86.4486372 C105.891109,86.4486372 119.776101,100.338321 119.776101,117.471738" id="Fill-25" fill="#494747"></path>
                                <path d="M110.292951,117.471738 C110.292951,129.365428 100.65511,139.008484 88.7634791,139.008484 C76.8738062,139.008484 67.2340071,129.365428 67.2340071,117.471738 C67.2340071,105.578047 76.8738062,95.9349912 88.7634791,95.9349912 C100.65511,95.9349912 110.292951,105.578047 110.292951,117.471738" id="Fill-26" fill="#F1B464"></path>
                            </g>
                            <g id="Group-30" transform="translate(208.209945, 406.294899)">
                                <mask id="mask-6" fill="white">
                                    <use xlink:href="#path-5"></use>
                                </mask>
                                <g id="Clip-28"></g>
                                <path d="M91.4472459,45.2939585 C91.4472459,70.1317558 71.0186015,90.265246 45.8193372,90.265246 C20.6181049,90.265246 0.189460482,70.1317558 0.189460482,45.2939585 C0.189460482,20.4561612 20.6181049,0.320703498 45.8193372,0.320703498 C71.0186015,0.320703498 91.4472459,20.4561612 91.4472459,45.2939585" id="Fill-27" fill="#FFFFFE" mask="url(#mask-6)"></path>
                                <path d="M226.268427,45.2939585 C226.268427,67.5444853 207.967274,85.5806139 185.393425,85.5806139 C162.817608,85.5806139 144.516456,67.5444853 144.516456,45.2939585 C144.516456,23.0434317 162.817608,5.00533558 185.393425,5.00533558 C207.967274,5.00533558 226.268427,23.0434317 226.268427,45.2939585" id="Fill-29" fill="#FFFFFE" mask="url(#mask-6)"></path>
                            </g>
                            <path d="M357.269337,416.923737 C357.269337,434.101095 343.145948,448.02674 325.722376,448.02674 C308.298803,448.02674 294.175414,434.101095 294.175414,416.923737 C294.175414,399.748321 308.298803,385.822676 325.722376,385.822676 C343.145948,385.822676 357.269337,399.748321 357.269337,416.923737" id="Fill-31" fill="#FFFFFE"></path>
                            <path d="M289.44337,398.420967 C289.44337,410.597716 279.555895,420.467977 267.359521,420.467977 C255.163147,420.467977 245.277624,410.597716 245.277624,398.420967 C245.277624,386.244219 255.163147,376.373957 267.359521,376.373957 C279.555895,376.373957 289.44337,386.244219 289.44337,398.420967" id="Fill-32" fill="#FFFFFE"></path>
                            <path d="M339.129834,378.735155 C339.129834,386.999091 332.421029,393.696608 324.145997,393.696608 C315.870964,393.696608 309.160221,386.999091 309.160221,378.735155 C309.160221,370.473183 315.870964,363.775666 324.145997,363.775666 C332.421029,363.775666 339.129834,370.473183 339.129834,378.735155" id="Fill-33" fill="#FFFFFE"></path>
                            <g id="Group-41" transform="translate(0.000000, 389.759642)">
                                <mask id="mask-8" fill="white">
                                    <use xlink:href="#path-7"></use>
                                </mask>
                                <g id="Clip-35"></g>
                                <path d="M324.395845,26.5854944 C324.395845,41.2595107 312.338183,53.1557134 297.465625,53.1557134 C282.589135,53.1557134 270.533439,41.2595107 270.533439,26.5854944 C270.533439,11.9095109 282.589135,0.0113408483 297.465625,0.0113408483 C312.338183,0.0113408483 324.395845,11.9095109 324.395845,26.5854944" id="Fill-34" fill="#FFFFFE" mask="url(#mask-8)"></path>
                                <path d="M163.999846,140.332236 C157.664365,184.763481 116.02474,215.712888 70.9942666,209.462807 C25.9637932,203.212727 -5.40499911,162.125875 0.930482637,117.696597 C7.26596438,73.265352 48.9055889,42.3159454 93.9360623,48.5640585 C138.966536,54.8161062 170.335328,95.900991 163.999846,140.332236" id="Fill-36" fill="#FFFFFE" mask="url(#mask-8)"></path>
                                <path d="M242.999746,79.9324979 C244.418988,113.545615 217.952675,141.927708 183.884964,143.328419 C149.819218,144.729129 121.053025,118.615322 119.633783,85.0041716 C118.21454,51.3910543 144.680853,23.0069939 178.746599,21.6062834 C212.814311,20.2055729 241.580503,46.3213479 242.999746,79.9324979" id="Fill-37" fill="#FFFFFE" mask="url(#mask-8)"></path>
                                <path d="M570.510538,123.921103 C570.510538,171.474437 531.440096,210.023485 483.24483,210.023485 C435.05153,210.023485 395.983054,171.474437 395.983054,123.921103 C395.983054,76.3677684 435.05153,37.8206877 483.24483,37.8206877 C531.440096,37.8206877 570.510538,76.3677684 570.510538,123.921103" id="Fill-38" fill="#FFFFFE" mask="url(#mask-8)"></path>
                                <path d="M328.576909,103.746544 C328.576909,137.391137 300.935102,164.661712 266.839871,164.661712 C232.744639,164.661712 205.102832,137.391137 205.102832,103.746544 C205.102832,70.1058842 232.744639,42.8333427 266.839871,42.8333427 C300.935102,42.8333427 328.576909,70.1058842 328.576909,103.746544" id="Fill-39" fill="#FFFFFE" mask="url(#mask-8)"></path>
                                <path d="M408.915457,82.0355309 C416.839232,119.034354 392.863473,155.366266 355.365598,163.18231 C317.867724,171.00032 281.046053,147.343658 273.124244,110.346802 C265.200469,73.3460109 289.176228,37.0160661 326.674102,29.2000229 C364.171977,21.380045 400.993647,45.0367075 408.915457,82.0355309" id="Fill-40" fill="#FFFFFE" mask="url(#mask-8)"></path>
                            </g>
                        </g>
                    </g>
                    <g id="Combined-Shape-Copy-10">
                        <use fill="black" fill-opacity="1" filter="url(#filter-10)" xlink:href="#path-9"></use>
                        <use fill="#FFFFFF" fill-rule="evenodd" xlink:href="#path-9"></use>
                    </g>
                    <g id="Combined-Shape-Copy-13" transform="translate(477.500000, 330.000000) scale(-1, 1) translate(-477.500000, -330.000000) ">
                        <use fill="black" fill-opacity="1" filter="url(#filter-12)" xlink:href="#path-11"></use>
                        <use fill="#FFFFFF" fill-rule="evenodd" xlink:href="#path-11"></use>
                    </g>
                    <g id="Combined-Shape-Copy-11" transform="translate(256.500000, 401.000000) scale(-1, 1) translate(-256.500000, -401.000000) ">
                        <use fill="black" fill-opacity="1" filter="url(#filter-14)" xlink:href="#path-13"></use>
                        <use fill="#FFFFFF" fill-rule="evenodd" xlink:href="#path-13"></use>
                    </g>
                    <g id="Combined-Shape-Copy-12" transform="translate(364.500000, 432.500000) scale(-1, 1) translate(-364.500000, -432.500000) ">
                        <use fill="black" fill-opacity="1" filter="url(#filter-16)" xlink:href="#path-15"></use>
                        <use fill="#FFFFFF" fill-rule="evenodd" xlink:href="#path-15"></use>
                    </g>
                </g>
            </g>
        </g>
    </g>
</svg>